<svg xmlns="http://www.w3.org/2000/svg" viewBox="0 0 151 159">
  <defs>
    <radialGradient id="b" cx="50.313%" cy="49.983%" r="50.284%" fx="50.313%" fy="49.983%" gradientTransform="matrix(1 0 0 .99276 0 .004)">
      <stop offset="74.34%" stop-color="#141313"/>
      <stop offset="77.06%" stop-color="#171616"/>
      <stop offset="79.07%" stop-color="#201F1F"/>
      <stop offset="80.85%" stop-color="#313030"/>
      <stop offset="82.51%" stop-color="#474646"/>
      <stop offset="84.07%" stop-color="#646363"/>
      <stop offset="85.55%" stop-color="#888787"/>
      <stop offset="86.23%" stop-color="#9B9A9A"/>
      <stop offset="86.82%" stop-color="#8D8C8C"/>
      <stop offset="88.66%" stop-color="#686767"/>
      <stop offset="90.59%" stop-color="#4A4949"/>
      <stop offset="92.6%" stop-color="#323131"/>
      <stop offset="94.74%" stop-color="#212020"/>
      <stop offset="97.08%" stop-color="#171616"/>
      <stop offset="100%" stop-color="#141313"/>
    </radialGradient>
    <radialGradient id="d" cx="-343.57%" cy="-417.139%" r="627.457%" fx="-343.57%" fy="-417.139%" gradientTransform="matrix(.96417 0 0 1 -.123 0)">
      <stop offset="74.34%" stop-color="#141313"/>
      <stop offset="77.06%" stop-color="#171616"/>
      <stop offset="79.07%" stop-color="#201F1F"/>
      <stop offset="80.85%" stop-color="#313030"/>
      <stop offset="82.51%" stop-color="#474646"/>
      <stop offset="84.07%" stop-color="#646363"/>
      <stop offset="85.55%" stop-color="#888787"/>
      <stop offset="86.23%" stop-color="#9B9A9A"/>
      <stop offset="86.82%" stop-color="#8D8C8C"/>
      <stop offset="88.66%" stop-color="#686767"/>
      <stop offset="90.59%" stop-color="#4A4949"/>
      <stop offset="92.6%" stop-color="#323131"/>
      <stop offset="94.74%" stop-color="#212020"/>
      <stop offset="97.08%" stop-color="#171616"/>
      <stop offset="100%" stop-color="#141313"/>
    </radialGradient>
    <radialGradient id="e" cx="-531.052%" cy="1079.658%" r="1704.73%" fx="-531.052%" fy="1079.658%" gradientTransform="matrix(1 0 0 .99874 0 .014)">
      <stop offset="8.113%" stop-color="#D07272"/>
      <stop offset="13.91%" stop-color="#CD6D6D"/>
      <stop offset="21.11%" stop-color="#C65D5D"/>
      <stop offset="29.05%" stop-color="#B94444"/>
      <stop offset="37.47%" stop-color="#A82121"/>
      <stop offset="38.99%" stop-color="#A41A1A"/>
      <stop offset="92.24%" stop-color="#580000"/>
      <stop offset="100%" stop-color="#580000"/>
    </radialGradient>
    <radialGradient id="f" cx="71.269%" cy="41.316%" r="62.524%" fx="71.269%" fy="41.316%" gradientTransform="matrix(.95646 0 0 1 .031 0)">
      <stop offset="8.113%" stop-color="#D07272"/>
      <stop offset="13.91%" stop-color="#CD6D6D"/>
      <stop offset="21.11%" stop-color="#C65D5D"/>
      <stop offset="29.05%" stop-color="#B94444"/>
      <stop offset="37.47%" stop-color="#A82121"/>
      <stop offset="38.99%" stop-color="#A41A1A"/>
      <stop offset="92.24%" stop-color="#580000"/>
      <stop offset="100%" stop-color="#580000"/>
    </radialGradient>
    <radialGradient id="g" cx="266.17%" cy="1131.88%" r="1704.73%" fx="266.17%" fy="1131.88%" gradientTransform="matrix(1 0 0 .99874 0 .014)">
      <stop offset="8.113%" stop-color="#D07272"/>
      <stop offset="13.91%" stop-color="#CD6D6D"/>
      <stop offset="21.11%" stop-color="#C65D5D"/>
      <stop offset="29.05%" stop-color="#B94444"/>
      <stop offset="37.47%" stop-color="#A82121"/>
      <stop offset="38.99%" stop-color="#A41A1A"/>
      <stop offset="92.24%" stop-color="#580000"/>
      <stop offset="100%" stop-color="#580000"/>
    </radialGradient>
    <radialGradient id="i" cx="135.642%" cy="75.324%" r="133.351%" fx="135.642%" fy="75.324%" gradientTransform="matrix(.94192 0 0 1 .079 0)">
      <stop offset="8.113%" stop-color="#D07272"/>
      <stop offset="13.91%" stop-color="#CD6D6D"/>
      <stop offset="21.11%" stop-color="#C65D5D"/>
      <stop offset="29.05%" stop-color="#B94444"/>
      <stop offset="37.47%" stop-color="#A82121"/>
      <stop offset="38.99%" stop-color="#A41A1A"/>
      <stop offset="92.24%" stop-color="#580000"/>
      <stop offset="100%" stop-color="#580000"/>
    </radialGradient>
    <radialGradient id="j" cx="1821.17%" cy="-232.67%" r="1704.35%" fx="1821.17%" fy="-232.67%" gradientTransform="matrix(1 0 0 .99874 0 -.003)">
      <stop offset="8.113%" stop-color="#D07272"/>
      <stop offset="13.91%" stop-color="#CD6D6D"/>
      <stop offset="21.11%" stop-color="#C65D5D"/>
      <stop offset="29.05%" stop-color="#B94444"/>
      <stop offset="37.47%" stop-color="#A82121"/>
      <stop offset="38.99%" stop-color="#A41A1A"/>
      <stop offset="92.24%" stop-color="#580000"/>
      <stop offset="100%" stop-color="#580000"/>
    </radialGradient>
    <radialGradient id="l" cx="1821.17%" cy="-228.38%" r="1695.68%" fx="1821.17%" fy="-228.38%" gradientTransform="matrix(1 0 0 .99874 0 -.003)">
      <stop offset="8.113%" stop-color="#D07272"/>
      <stop offset="13.91%" stop-color="#CD6D6D"/>
      <stop offset="21.11%" stop-color="#C65D5D"/>
      <stop offset="29.05%" stop-color="#B94444"/>
      <stop offset="37.47%" stop-color="#A82121"/>
      <stop offset="38.99%" stop-color="#A41A1A"/>
      <stop offset="92.24%" stop-color="#580000"/>
      <stop offset="100%" stop-color="#580000"/>
    </radialGradient>
    <radialGradient id="m" cx="501.17%" cy="983.58%" r="1704.35%" fx="501.17%" fy="983.58%" gradientTransform="matrix(1 0 0 .99874 0 .012)">
      <stop offset="8.113%" stop-color="#D07272"/>
      <stop offset="13.91%" stop-color="#CD6D6D"/>
      <stop offset="21.11%" stop-color="#C65D5D"/>
      <stop offset="29.05%" stop-color="#B94444"/>
      <stop offset="37.47%" stop-color="#A82121"/>
      <stop offset="38.99%" stop-color="#A41A1A"/>
      <stop offset="92.24%" stop-color="#580000"/>
      <stop offset="100%" stop-color="#580000"/>
    </radialGradient>
    <radialGradient id="o" cx="501.17%" cy="983.13%" r="1704.73%" fx="501.17%" fy="983.13%" gradientTransform="matrix(1 0 0 .99874 0 .012)">
      <stop offset="8.113%" stop-color="#D07272"/>
      <stop offset="13.91%" stop-color="#CD6D6D"/>
      <stop offset="21.11%" stop-color="#C65D5D"/>
      <stop offset="29.05%" stop-color="#B94444"/>
      <stop offset="37.47%" stop-color="#A82121"/>
      <stop offset="38.99%" stop-color="#A41A1A"/>
      <stop offset="92.24%" stop-color="#580000"/>
      <stop offset="100%" stop-color="#580000"/>
    </radialGradient>
    <radialGradient id="r" cx="-768.83%" cy="882.33%" r="1704.35%" fx="-768.83%" fy="882.33%" gradientTransform="matrix(1 0 0 .99874 0 .011)">
      <stop offset="8.113%" stop-color="#D07272"/>
      <stop offset="13.91%" stop-color="#CD6D6D"/>
      <stop offset="21.11%" stop-color="#C65D5D"/>
      <stop offset="29.05%" stop-color="#B94444"/>
      <stop offset="37.47%" stop-color="#A82121"/>
      <stop offset="38.99%" stop-color="#A41A1A"/>
      <stop offset="92.24%" stop-color="#580000"/>
      <stop offset="100%" stop-color="#580000"/>
    </radialGradient>
    <radialGradient id="t" cx="262.298%" cy="-71.373%" r="258.292%" fx="262.298%" fy="-71.373%" gradientTransform="matrix(1 0 0 .8138 0 -.133)">
      <stop offset="8.113%" stop-color="#D07272"/>
      <stop offset="13.91%" stop-color="#CD6D6D"/>
      <stop offset="21.11%" stop-color="#C65D5D"/>
      <stop offset="29.05%" stop-color="#B94444"/>
      <stop offset="37.47%" stop-color="#A82121"/>
      <stop offset="38.99%" stop-color="#A41A1A"/>
      <stop offset="92.24%" stop-color="#580000"/>
      <stop offset="100%" stop-color="#580000"/>
    </radialGradient>
    <radialGradient id="v" cx="106.117%" cy="36.876%" r="189.177%" fx="106.117%" fy="36.876%" gradientTransform="matrix(.90113 0 0 1 .105 0)">
      <stop offset="8.113%" stop-color="#D07272"/>
      <stop offset="13.91%" stop-color="#CD6D6D"/>
      <stop offset="21.11%" stop-color="#C65D5D"/>
      <stop offset="29.05%" stop-color="#B94444"/>
      <stop offset="37.47%" stop-color="#A82121"/>
      <stop offset="38.99%" stop-color="#A41A1A"/>
      <stop offset="92.24%" stop-color="#580000"/>
      <stop offset="100%" stop-color="#580000"/>
    </radialGradient>
    <radialGradient id="x" cx="50.836%" cy="402.118%" r="1547.464%" fx="50.836%" fy="402.118%" gradientTransform="matrix(.7867 0 0 1 .108 0)">
      <stop offset="8.113%" stop-color="#D07272"/>
      <stop offset="13.91%" stop-color="#CD6D6D"/>
      <stop offset="21.11%" stop-color="#C65D5D"/>
      <stop offset="29.05%" stop-color="#B94444"/>
      <stop offset="37.47%" stop-color="#A82121"/>
      <stop offset="38.99%" stop-color="#A41A1A"/>
      <stop offset="92.24%" stop-color="#580000"/>
      <stop offset="100%" stop-color="#580000"/>
    </radialGradient>
    <radialGradient id="z" cx="50.836%" cy="401.709%" r="1547.809%" fx="50.836%" fy="401.709%" gradientTransform="matrix(.7867 0 0 1 .108 0)">
      <stop offset="8.113%" stop-color="#D07272"/>
      <stop offset="13.91%" stop-color="#CD6D6D"/>
      <stop offset="21.11%" stop-color="#C65D5D"/>
      <stop offset="29.05%" stop-color="#B94444"/>
      <stop offset="37.47%" stop-color="#A82121"/>
      <stop offset="38.99%" stop-color="#A41A1A"/>
      <stop offset="92.24%" stop-color="#580000"/>
      <stop offset="100%" stop-color="#580000"/>
    </radialGradient>
    <radialGradient id="A" cx="-178.907%" cy="767.693%" r="1532.333%" fx="-178.907%" fy="767.693%" gradientTransform="matrix(.38362 0 0 1 -1.103 0)">
      <stop offset="8.113%" stop-color="#D07272"/>
      <stop offset="13.91%" stop-color="#CD6D6D"/>
      <stop offset="21.11%" stop-color="#C65D5D"/>
      <stop offset="29.05%" stop-color="#B94444"/>
      <stop offset="37.47%" stop-color="#A82121"/>
      <stop offset="38.99%" stop-color="#A41A1A"/>
      <stop offset="92.24%" stop-color="#580000"/>
      <stop offset="100%" stop-color="#580000"/>
    </radialGradient>
    <radialGradient id="D" cx="48.279%" cy="30.418%" r="72.235%" fx="48.279%" fy="30.418%" gradientTransform="matrix(.95283 0 0 1 .023 0)">
      <stop offset="28.88%" stop-color="#D07272"/>
      <stop offset="33%" stop-color="#CD6D6D"/>
      <stop offset="38.12%" stop-color="#C65D5D"/>
      <stop offset="43.77%" stop-color="#B94444"/>
      <stop offset="49.76%" stop-color="#A82121"/>
      <stop offset="50.84%" stop-color="#A41A1A"/>
      <stop offset="92.24%" stop-color="#580000"/>
      <stop offset="100%" stop-color="#580000"/>
    </radialGradient>
    <radialGradient id="F" cx="-1095.842%" cy="796.9%" r="1781.44%" fx="-1095.842%" fy="796.9%" gradientTransform="matrix(1 0 0 .99874 0 .01)">
      <stop offset="28.88%" stop-color="#D07272"/>
      <stop offset="33%" stop-color="#CD6D6D"/>
      <stop offset="38.12%" stop-color="#C65D5D"/>
      <stop offset="43.77%" stop-color="#B94444"/>
      <stop offset="49.76%" stop-color="#A82121"/>
      <stop offset="50.84%" stop-color="#A41A1A"/>
      <stop offset="92.24%" stop-color="#580000"/>
      <stop offset="100%" stop-color="#580000"/>
    </radialGradient>
    <radialGradient id="I" cx="73.333%" cy="46.324%" r="58.547%" fx="73.333%" fy="46.324%" gradientTransform="matrix(.70008 -.67073 .6331 .7417 -.073 .612)">
      <stop offset="7.454%" stop-color="#D07272"/>
      <stop offset="12.11%" stop-color="#CD6D6D"/>
      <stop offset="17.89%" stop-color="#C65D5D"/>
      <stop offset="24.27%" stop-color="#B94444"/>
      <stop offset="31.04%" stop-color="#A82121"/>
      <stop offset="32.26%" stop-color="#A41A1A"/>
      <stop offset="92.24%" stop-color="#580000"/>
      <stop offset="100%" stop-color="#580000"/>
    </radialGradient>
    <radialGradient id="J" cx="60.28%" cy="28.215%" r="63.237%" fx="60.28%" fy="28.215%" gradientTransform="matrix(.70014 -.66863 .62955 .7436 .003 .475)">
      <stop offset="7.454%" stop-color="#D07272"/>
      <stop offset="12.11%" stop-color="#CD6D6D"/>
      <stop offset="17.89%" stop-color="#C65D5D"/>
      <stop offset="24.27%" stop-color="#B94444"/>
      <stop offset="31.04%" stop-color="#A82121"/>
      <stop offset="32.26%" stop-color="#A41A1A"/>
      <stop offset="92.24%" stop-color="#580000"/>
      <stop offset="100%" stop-color="#580000"/>
    </radialGradient>
    <radialGradient id="K" cx="76.592%" cy="41.942%" r="57.202%" fx="76.592%" fy="41.942%" gradientTransform="matrix(1 0 0 .9878 0 .005)">
      <stop offset="0%" stop-color="#FF9494"/>
      <stop offset="33.702%" stop-color="#D26767"/>
      <stop offset="40.786%" stop-color="#BF0000"/>
      <stop offset="100%" stop-color="#0A0000"/>
    </radialGradient>
    <radialGradient id="L" cx="50%" cy="50%" r="52.559%" fx="50%" fy="50%" gradientTransform="matrix(.94607 -.32014 .31606 .93658 -.131 .192)">
      <stop offset="0%"/>
      <stop offset="88.482%" stop-color="#9C1818"/>
      <stop offset="93.565%" stop-color="#5D0101"/>
      <stop offset="100%" stop-color="#600303"/>
    </radialGradient>
    <linearGradient id="a" x1="25.005%" x2="86.534%" y1="72.09%" y2="18.239%">
      <stop offset="35.97%" stop-color="#141313"/>
      <stop offset="42.38%" stop-color="#2C2B2B"/>
      <stop offset="55.85%" stop-color="#696868"/>
      <stop offset="65.92%" stop-color="#9B9A9A"/>
      <stop offset="80.4%" stop-color="#605F5F"/>
      <stop offset="100%" stop-color="#141313"/>
    </linearGradient>
    <linearGradient id="c" x1="-4.472%" x2="114.028%" y1="89.433%" y2="-11.604%">
      <stop offset="35.97%" stop-color="#141313"/>
      <stop offset="42.38%" stop-color="#2C2B2B"/>
      <stop offset="55.85%" stop-color="#696868"/>
      <stop offset="65.92%" stop-color="#9B9A9A"/>
      <stop offset="80.4%" stop-color="#605F5F"/>
      <stop offset="100%" stop-color="#141313"/>
    </linearGradient>
    <linearGradient id="h" x1="3.812%" x2="122.407%" y1="93.439%" y2="-5.346%">
      <stop offset="35.97%" stop-color="#141313"/>
      <stop offset="42.38%" stop-color="#2C2B2B"/>
      <stop offset="55.85%" stop-color="#696868"/>
      <stop offset="65.92%" stop-color="#9B9A9A"/>
      <stop offset="80.4%" stop-color="#605F5F"/>
      <stop offset="100%" stop-color="#141313"/>
    </linearGradient>
    <linearGradient id="k" x1="36.823%" x2="1633.837%" y1="66.51%" y2="-1347.54%">
      <stop offset="35.97%" stop-color="#141313"/>
      <stop offset="42.38%" stop-color="#2C2B2B"/>
      <stop offset="55.85%" stop-color="#696868"/>
      <stop offset="65.92%" stop-color="#9B9A9A"/>
      <stop offset="80.4%" stop-color="#605F5F"/>
      <stop offset="100%" stop-color="#141313"/>
    </linearGradient>
    <linearGradient id="n" x1="-1304.803%" x2="290.934%" y1="1249.69%" y2="-163.24%">
      <stop offset="35.97%" stop-color="#141313"/>
      <stop offset="42.38%" stop-color="#2C2B2B"/>
      <stop offset="55.85%" stop-color="#696868"/>
      <stop offset="65.92%" stop-color="#9B9A9A"/>
      <stop offset="80.4%" stop-color="#605F5F"/>
      <stop offset="100%" stop-color="#141313"/>
    </linearGradient>
    <linearGradient id="p" x1="-2637.77%" x2="-47.914%" y1="2467.062%" y2="135.372%">
      <stop offset="16.82%" stop-color="#580000"/>
      <stop offset="54.2%" stop-color="#B41F1F"/>
      <stop offset="55.27%" stop-color="#BC3737"/>
      <stop offset="56.59%" stop-color="#C34D4D"/>
      <stop offset="58.15%" stop-color="#C95E5E"/>
      <stop offset="60.09%" stop-color="#CD6969"/>
      <stop offset="62.8%" stop-color="#CF7070"/>
      <stop offset="70.33%" stop-color="#D07272"/>
      <stop offset="72.92%" stop-color="#CD6D6D"/>
      <stop offset="76.15%" stop-color="#C65D5D"/>
      <stop offset="79.7%" stop-color="#B94444"/>
      <stop offset="83.47%" stop-color="#A82121"/>
      <stop offset="84.15%" stop-color="#A41A1A"/>
      <stop offset="100%" stop-color="#580000"/>
    </linearGradient>
    <linearGradient id="q" x1="35.995%" x2="61.94%" y1="61.242%" y2="36.903%">
      <stop offset="16.82%" stop-color="#580000"/>
      <stop offset="54.2%" stop-color="#B41F1F"/>
      <stop offset="55.27%" stop-color="#BC3737"/>
      <stop offset="56.59%" stop-color="#C34D4D"/>
      <stop offset="58.15%" stop-color="#C95E5E"/>
      <stop offset="60.09%" stop-color="#CD6969"/>
      <stop offset="62.8%" stop-color="#CF7070"/>
      <stop offset="70.33%" stop-color="#D07272"/>
      <stop offset="72.92%" stop-color="#CD6D6D"/>
      <stop offset="76.15%" stop-color="#C65D5D"/>
      <stop offset="79.7%" stop-color="#B94444"/>
      <stop offset="83.47%" stop-color="#A82121"/>
      <stop offset="84.15%" stop-color="#A41A1A"/>
      <stop offset="100%" stop-color="#580000"/>
    </linearGradient>
    <linearGradient id="s" x1="-2519.518%" x2="70.339%" y1="2367.63%" y2="35.94%">
      <stop offset="16.82%" stop-color="#580000"/>
      <stop offset="54.2%" stop-color="#B41F1F"/>
      <stop offset="55.27%" stop-color="#BC3737"/>
      <stop offset="56.59%" stop-color="#C34D4D"/>
      <stop offset="58.15%" stop-color="#C95E5E"/>
      <stop offset="60.09%" stop-color="#CD6969"/>
      <stop offset="62.8%" stop-color="#CF7070"/>
      <stop offset="70.33%" stop-color="#D07272"/>
      <stop offset="72.92%" stop-color="#CD6D6D"/>
      <stop offset="76.15%" stop-color="#C65D5D"/>
      <stop offset="79.7%" stop-color="#B94444"/>
      <stop offset="83.47%" stop-color="#A82121"/>
      <stop offset="84.15%" stop-color="#A41A1A"/>
      <stop offset="100%" stop-color="#580000"/>
    </linearGradient>
    <linearGradient id="u" x1="5.509%" x2="266.035%" y1="100.038%" y2="-187.825%">
      <stop offset="16.82%" stop-color="#580000"/>
      <stop offset="54.2%" stop-color="#B41F1F"/>
      <stop offset="55.27%" stop-color="#BC3737"/>
      <stop offset="56.59%" stop-color="#C34D4D"/>
      <stop offset="58.15%" stop-color="#C95E5E"/>
      <stop offset="60.09%" stop-color="#CD6969"/>
      <stop offset="62.8%" stop-color="#CF7070"/>
      <stop offset="70.33%" stop-color="#D07272"/>
      <stop offset="72.92%" stop-color="#CD6D6D"/>
      <stop offset="76.15%" stop-color="#C65D5D"/>
      <stop offset="79.7%" stop-color="#B94444"/>
      <stop offset="83.47%" stop-color="#A82121"/>
      <stop offset="84.15%" stop-color="#A41A1A"/>
      <stop offset="100%" stop-color="#580000"/>
    </linearGradient>
    <linearGradient id="w" x1="-84.805%" x2="174.833%" y1="158.119%" y2="-52.261%">
      <stop offset="16.82%" stop-color="#580000"/>
      <stop offset="54.2%" stop-color="#B41F1F"/>
      <stop offset="55.27%" stop-color="#BC3737"/>
      <stop offset="56.59%" stop-color="#C34D4D"/>
      <stop offset="58.15%" stop-color="#C95E5E"/>
      <stop offset="60.09%" stop-color="#CD6969"/>
      <stop offset="62.8%" stop-color="#CF7070"/>
      <stop offset="70.33%" stop-color="#D07272"/>
      <stop offset="72.92%" stop-color="#CD6D6D"/>
      <stop offset="76.15%" stop-color="#C65D5D"/>
      <stop offset="79.7%" stop-color="#B94444"/>
      <stop offset="83.47%" stop-color="#A82121"/>
      <stop offset="84.15%" stop-color="#A41A1A"/>
      <stop offset="100%" stop-color="#580000"/>
    </linearGradient>
    <linearGradient id="y" x1="-1307.036%" x2="547.521%" y1="1013.48%" y2="-298.412%">
      <stop offset="16.82%" stop-color="#580000"/>
      <stop offset="54.2%" stop-color="#B41F1F"/>
      <stop offset="55.27%" stop-color="#BC3737"/>
      <stop offset="56.59%" stop-color="#C34D4D"/>
      <stop offset="58.15%" stop-color="#C95E5E"/>
      <stop offset="60.09%" stop-color="#CD6969"/>
      <stop offset="62.8%" stop-color="#CF7070"/>
      <stop offset="70.33%" stop-color="#D07272"/>
      <stop offset="72.92%" stop-color="#CD6D6D"/>
      <stop offset="76.15%" stop-color="#C65D5D"/>
      <stop offset="79.7%" stop-color="#B94444"/>
      <stop offset="83.47%" stop-color="#A82121"/>
      <stop offset="84.15%" stop-color="#A41A1A"/>
      <stop offset="100%" stop-color="#580000"/>
    </linearGradient>
    <linearGradient id="B" x1="-801.217%" x2="94.083%" y1="345.396%" y2="36.564%">
      <stop offset="16.82%" stop-color="#580000"/>
      <stop offset="54.2%" stop-color="#B41F1F"/>
      <stop offset="55.27%" stop-color="#BC3737"/>
      <stop offset="56.59%" stop-color="#C34D4D"/>
      <stop offset="58.15%" stop-color="#C95E5E"/>
      <stop offset="60.09%" stop-color="#CD6969"/>
      <stop offset="62.8%" stop-color="#CF7070"/>
      <stop offset="70.33%" stop-color="#D07272"/>
      <stop offset="72.92%" stop-color="#CD6D6D"/>
      <stop offset="76.15%" stop-color="#C65D5D"/>
      <stop offset="79.7%" stop-color="#B94444"/>
      <stop offset="83.47%" stop-color="#A82121"/>
      <stop offset="84.15%" stop-color="#A41A1A"/>
      <stop offset="100%" stop-color="#580000"/>
    </linearGradient>
    <linearGradient id="C" x1="-2.427%" x2="96.514%" y1="93.268%" y2="10.303%">
      <stop offset="16.82%" stop-color="#580000"/>
      <stop offset="54.2%" stop-color="#B41F1F"/>
      <stop offset="55.27%" stop-color="#BC3737"/>
      <stop offset="56.59%" stop-color="#C34D4D"/>
      <stop offset="58.15%" stop-color="#C95E5E"/>
      <stop offset="60.09%" stop-color="#CD6969"/>
      <stop offset="62.8%" stop-color="#CF7070"/>
      <stop offset="70.33%" stop-color="#D07272"/>
      <stop offset="72.92%" stop-color="#CD6D6D"/>
      <stop offset="76.15%" stop-color="#C65D5D"/>
      <stop offset="79.7%" stop-color="#B94444"/>
      <stop offset="83.47%" stop-color="#A82121"/>
      <stop offset="84.15%" stop-color="#A41A1A"/>
      <stop offset="100%" stop-color="#580000"/>
    </linearGradient>
    <linearGradient id="E" x1="-2533.734%" x2="56.132%" y1="2376.9%" y2="45.21%">
      <stop offset="16.82%" stop-color="#580000"/>
      <stop offset="54.2%" stop-color="#B41F1F"/>
      <stop offset="55.27%" stop-color="#BC3737"/>
      <stop offset="56.59%" stop-color="#C34D4D"/>
      <stop offset="58.15%" stop-color="#C95E5E"/>
      <stop offset="60.09%" stop-color="#CD6969"/>
      <stop offset="62.8%" stop-color="#CF7070"/>
      <stop offset="70.33%" stop-color="#D07272"/>
      <stop offset="72.92%" stop-color="#CD6D6D"/>
      <stop offset="76.15%" stop-color="#C65D5D"/>
      <stop offset="79.7%" stop-color="#B94444"/>
      <stop offset="83.47%" stop-color="#A82121"/>
      <stop offset="84.15%" stop-color="#A41A1A"/>
      <stop offset="100%" stop-color="#580000"/>
    </linearGradient>
    <linearGradient id="G" x1="32.684%" x2="67.308%" y1="66.071%" y2="33.913%">
      <stop offset="35.97%" stop-color="#141313"/>
      <stop offset="42.38%" stop-color="#2C2B2B"/>
      <stop offset="55.85%" stop-color="#696868"/>
      <stop offset="65.92%" stop-color="#9B9A9A"/>
      <stop offset="80.4%" stop-color="#605F5F"/>
      <stop offset="100%" stop-color="#141313"/>
    </linearGradient>
    <linearGradient id="H" x1="40.037%" x2="65.099%" y1="59.376%" y2="35.875%">
      <stop offset="0%" stop-color="#580000"/>
      <stop offset="54.2%" stop-color="#B41F1F"/>
      <stop offset="55.27%" stop-color="#BC3737"/>
      <stop offset="56.59%" stop-color="#C34D4D"/>
      <stop offset="58.15%" stop-color="#C95E5E"/>
      <stop offset="60.09%" stop-color="#CD6969"/>
      <stop offset="62.8%" stop-color="#CF7070"/>
      <stop offset="70.33%" stop-color="#D07272"/>
      <stop offset="72.92%" stop-color="#CD6D6D"/>
      <stop offset="76.15%" stop-color="#C65D5D"/>
      <stop offset="79.7%" stop-color="#B94444"/>
      <stop offset="83.47%" stop-color="#A82121"/>
      <stop offset="84.15%" stop-color="#A41A1A"/>
      <stop offset="100%" stop-color="#580000"/>
    </linearGradient>
  </defs>
  <g fill="none" fill-rule="evenodd">
    <g>
      <path d="M145.29 149.376c.567-.378 1.007-.566 1.258-.63-.189-.062-.566.19-1.257.63zM139.004 155.86v-.126.126c0 .063.063.126.126.126h0a.135.135 0 01-.126-.126zM144.662 149.817c.126-.126.314-.19.44-.315a4.286 4.286 0 00-.44.315z"/>
      <ellipse cx="51.93" cy="51.429" rx="36.653" ry="36.699"/>
      <path d="M97.699 95.367a.477.477 0 01-.126.251s0 .063-.063.063c0 0 0-.063.063-.063.063-.063.126-.126.126-.251 0-.126.063-.19 0-.252.063.126.063.189 0 .252zM101.848 97.38c.566-.44 1.195-.817 1.823-1.195-1.006.566-1.886 1.196-2.766 1.888.314-.251.629-.503.943-.692z"/>
      <path fill="url(#a)" fill-rule="nonzero" d="M97.384 94.8l-4.149-4.47c-1.257-1.384-2.515-2.706-3.646-3.965a53.265 53.265 0 01-8.55 7.428l8.11 8.75c.691-1.07 1.571-2.078 2.514-2.959 1.635-1.762 3.584-3.588 5.721-4.784z"/>
      <path fill="url(#b)" fill-rule="nonzero" d="M80.473 93.163v-.188-.063c0-.063.062-.19.125-.252 0 0 0-.063.063-.063l.189-.378s0-.063.063-.063c.063-.126.188-.252.314-.44 0-.063.063-.063.063-.126.063-.063.063-.126.126-.19v-.062l.062-.063.126-.126.126-.126s0-.063.063-.063v-.063l.188-.189.063-.063.063-.063.063-.062.189-.19.063-.062.062-.063.063-.063c.063-.063.126-.126.126-.189l.126-.126.125-.126.126-.126.063-.063.063-.063.126-.125.125-.126.063-.063.126-.126.063-.063.063-.063.063-.063.063-.063.062-.063.063-.063.063-.063.063-.063.063-.063.063-.063.063-.063.062-.063.063-.063.063-.063.063-.062.063-.063.063-.063.063-.063.063-.063.062-.063.126-.126c.063 0 .063-.063.126-.063l.126-.126.063-.063.062-.063s.063 0 .063-.063c0 0 .063 0 .063-.063.063 0 .063-.063.063-.063l.063-.063.063-.063s.063 0 .063-.063l.062-.062.063-.063.063-.063.063-.063.063-.063.063-.063c.063 0 .063-.063.126-.063l.062-.063c.063 0 .063-.063.126-.063 0 0 .063 0 .063-.063h.063l.063-.063c.063-.063.125-.063.188-.126h.126s.063 0 .063-.063h.063c.063 0 .063-.063.063-.063s.063 0 .063-.063h.188l.063-.063h.126s.063 0 .063-.063c.063 0 .063-.063.063-.063s.062 0 .062-.062h.378v.062l.062-.062v-.063c.252.251.503.566.755.818 8.487-9.19 13.705-21.465 13.705-34.936C103.295 23.039 80.284 0 51.93 0S.566 23.039.566 51.429s23.01 51.428 51.364 51.428a50.987 50.987 0 0029.108-9.064l-.565-.63c.062.063 0 0 0 0zM51.93 88.127c-20.244 0-36.653-16.429-36.653-36.698 0-20.27 16.41-36.7 36.653-36.7 20.244 0 36.653 16.43 36.653 36.7 0 20.269-16.41 36.698-36.653 36.698z"/>
      <path fill="url(#c)" fill-rule="nonzero" d="M89.589 86.365c-.252-.252-.503-.567-.755-.818v.063l-.063.063v-.063s-.063-.063-.063 0h-.062-.063-.063-.063-.063s-.063 0-.063.063l-.063.062s-.063 0-.063.063h-.062-.063l-.063.063h-.063-.063-.063s-.063 0-.063.063l-.062.063h-.063s-.063 0-.063.063h-.063-.063c-.063.063-.126.063-.189.126l-.062.063h-.063s-.063 0-.063.063c-.063 0-.063.063-.126.063l-.063.063c-.063 0-.063.063-.126.063l-.062.063-.063.063-.063.063-.063.063-.063.063-.063.063s-.063 0-.063.062l-.062.063-.063.063-.063.063s-.063 0-.063.063c0 0-.063 0-.063.063l-.063.063-.063.063-.125.126c-.063 0-.063.063-.126.063l-.126.126-.063.063-.063.063-.062.063-.063.063-.063.063-.063.063-.063.062-.063.063-.063.063-.063.063-.062.063-.063.063-.063.063-.063.063-.063.063-.063.063-.063.063-.063.063-.062.063-.063.063-.126.126-.063.063-.126.126-.125.125-.063.063-.063.063-.126.126-.126.126-.125.126c-.063.063-.126.126-.126.189 0 0 0 .063-.063.063l-.063.063-.063.063-.188.189-.063.063-.063.062-.063.063-.188.19v.062s0 .063-.063.063l-.126.126-.126.126-.063.063v.063c-.063.063-.063.126-.125.189 0 .063-.063.063-.063.126-.126.125-.189.314-.315.44 0 0 0 .063-.063.063l-.188.378s0 .063-.063.063c-.063.126-.063.189-.126.252v.314l.503.567c2.578-2.14 5.407-4.595 7.985-7.365z"/>
      <path fill="url(#d)" fill-rule="nonzero" d="M89.589 86.365c-.252-.252-.503-.567-.755-.818v.063l-.063.063v-.063s-.063-.063-.063 0h-.062-.063-.063-.063-.063s-.063 0-.063.063l-.063.062s-.063 0-.063.063h-.062-.063l-.063.063h-.063-.063-.063s-.063 0-.063.063l-.062.063h-.063s-.063 0-.063.063h-.063-.063c-.063.063-.126.063-.189.126l-.062.063h-.063s-.063 0-.063.063c-.063 0-.063.063-.126.063l-.063.063c-.063 0-.063.063-.126.063l-.062.063-.063.063-.063.063-.063.063-.063.063-.063.063s-.063 0-.063.062l-.062.063-.063.063-.063.063s-.063 0-.063.063c0 0-.063 0-.063.063l-.063.063-.063.063-.125.126c-.063 0-.063.063-.126.063l-.126.126-.063.063-.063.063-.062.063-.063.063-.063.063-.063.063-.063.062-.063.063-.063.063-.063.063-.062.063-.063.063-.063.063-.063.063-.063.063-.063.063-.063.063-.063.063-.062.063-.063.063-.126.126-.063.063-.126.126-.125.125-.063.063-.063.063-.126.126-.126.126-.125.126c-.063.063-.126.126-.126.189 0 0 0 .063-.063.063l-.063.063-.063.063-.188.189-.063.063-.063.062-.063.063-.188.19v.062s0 .063-.063.063l-.126.126-.126.126-.063.063v.063c-.063.063-.063.126-.125.189 0 .063-.063.063-.063.126-.126.125-.189.314-.315.44 0 0 0 .063-.063.063l-.188.378s0 .063-.063.063c-.063.126-.063.189-.126.252v.314l.503.567c2.578-2.14 5.407-4.595 7.985-7.365z"/>
      <path fill="url(#e)" fill-rule="nonzero" d="M104.049 94.36s.062.062 0 0z"/>
      <path fill="url(#f)" fill-rule="nonzero" d="M93.55 104.683l.125-.126.063-.063c1.949-2.014 4.024-3.966 6.224-5.665.063 0 .063-.063.126-.063.251-.19.503-.44.817-.63a26.846 26.846 0 012.766-1.888l.378-.189c.377-.189 1.005-.567 1.446-.44 0 0 .062 0 .062.062-.44-.566-.88-.755-1.383-1.07h.063a7.642 7.642 0 00-1.069-.503c-1.446-.441-2.829-.441-4.212 0a7.71 7.71 0 00-1.634.755l.251.315v.314a.477.477 0 01-.126.252s0 .063-.063.063l-.188.378s0 .063-.063.063c-.063.126-.189.252-.314.44 0 .063-.063.063-.063.126-.063.063-.063.126-.126.19v.062l-.063.063-.126.126-.125.126-.063.063v.063l-.189.189-.063.063-.063.063-.062.062-.19.19-.062.062-.063.063s0 .063-.063.063c-.063.063-.125.126-.125.189l-.126.126-.126.126-.126.126-.063.063-.062.063-.126.125-.126.126-.063.063-.125.126-.063.063-.063.063-.063.063-.063.063-.063.063-.063.063-.063.063-.062.063-.063.063-.063.063-.063.063-.063.063-.063.063-.063.062-.063.063-.062.063-.063.063-.063.063-.063.063-.063.063-.063.063-.125.126h-.063c-.063 0-.063.063-.126.063l-.126.126-.063.063-.063.063s-.062 0-.062.063l-.063.063c-.063 0-.063.063-.063.063l-.063.063s-.063 0-.063.063c0 0-.063 0-.063.062l-.063.063-.062.063-.063.063h-.063v-.126s-.063.126-.063.19c0 0-.063.125-.063.188-.063 0-.063.063-.126.063l-.063.063c-.062 0-.062.063-.125.063 0 0-.063 0-.063.063l-.063.063-.063.063c-.063.063-.126.063-.189.126h-.062-.063s-.063 0-.063.063h-.063l-.063.063s-.063 0-.063.063h-.063-.062-.063l-.063.062h-.063-.063s-.063 0-.063.063l-.063.063s-.063 0-.063.063h-.062-.063-.063-.063-.063-.063v-.063l-.063-.126-.063.126v.126l-.251-.252c-.189.315-.377.567-.566.882-.314.566-.503 1.133-.691 1.7-.063.251-.126.503-.126.755 0 .189-.063.377-.126.503 0 .063-.251.063-.251.126h.125c0 .126.063.252.063.378 0 .063.063.189.063.315l.189 1.133c.251.881.691 1.7 1.32 2.392v-.252s.063-.252.063-.378c0-.063.188-.314.251-.44 0-.063.063-.063.063-.126.818-2.015 2.326-3.588 3.772-5.036z"/>
      <path fill="url(#g)" fill-rule="nonzero" d="M99.082 94.045h-.063.063z"/>
      <path fill="url(#h)" fill-rule="nonzero" d="M89.4 102.794s0 .063 0 0c0 .063 0 .063 0 0 .063 0 .063 0 .063.063v-.126l.063-.125.063.125v.063h.377s.063 0 .063-.063c0 0 .063 0 .063-.062 0 0 .062 0 .062-.063h.126l.063-.063h.189s.063 0 .063-.063l.062-.063h.063s.063 0 .063-.063h.126c.063-.063.126-.063.188-.126l.063-.063.063-.063s.063 0 .063-.063c.063 0 .063-.063.126-.063l.063-.063c.063 0 .063-.063.125-.063 0 0 .063-.126.063-.189l.063-.188v.125h.063l.063-.063.063-.062.063-.063s.063 0 .063-.063c0 0 .062 0 .062-.063l.063-.063.063-.063s.063 0 .063-.063c0 0 .063 0 .063-.063l.063-.063.063-.063.125-.126c.063 0 .063-.063.126-.063h.063l.126-.126.063-.063.062-.063.063-.063.063-.063.063-.063.063-.062.063-.063.063-.063.062-.063.063-.063.063-.063.063-.063.063-.063.063-.063.063-.063.063-.063.062-.063.063-.063.063-.063.063-.063.063-.063.126-.126.063-.063.125-.125.126-.126.063-.063.063-.063.125-.126.126-.126.126-.126c.063-.063.126-.126.126-.189 0 0 0-.063.063-.063l.062-.063.063-.063.189-.188.063-.063.063-.063.063-.063.188-.19v-.062l.063-.063.126-.126.125-.126.063-.063v-.063c.063-.063.063-.126.126-.189 0-.063.063-.063.063-.125.126-.126.189-.315.314-.441 0 0 0-.063.063-.063l.189-.378s0-.063.063-.063c.063-.126.063-.189.125-.251v-.063-.19.064l-.251-.19v-.125c-2.2 1.196-4.087 2.959-5.784 4.658-.88.881-1.76 1.826-2.452 2.896l.503.377z"/>
      <path fill="url(#i)" fill-rule="nonzero" d="M89.4 102.794s0 .063 0 0c0 .063 0 .063 0 0 .063 0 .063 0 .063.063v-.126l.063-.125.063.125v.063h.377s.063 0 .063-.063c0 0 .063 0 .063-.062 0 0 .062 0 .062-.063h.126l.063-.063h.189s.063 0 .063-.063l.062-.063h.063s.063 0 .063-.063h.126c.063-.063.126-.063.188-.126l.063-.063.063-.063s.063 0 .063-.063c.063 0 .063-.063.126-.063l.063-.063c.063 0 .063-.063.125-.063 0 0 .063-.126.063-.189l.063-.188v.125h.063l.063-.063.063-.062.063-.063s.063 0 .063-.063c0 0 .062 0 .062-.063l.063-.063.063-.063s.063 0 .063-.063c0 0 .063 0 .063-.063l.063-.063.063-.063.125-.126c.063 0 .063-.063.126-.063h.063l.126-.126.063-.063.062-.063.063-.063.063-.063.063-.063.063-.062.063-.063.063-.063.062-.063.063-.063.063-.063.063-.063.063-.063.063-.063.063-.063.063-.063.062-.063.063-.063.063-.063.063-.063.063-.063.126-.126.063-.063.125-.125.126-.126.063-.063.063-.063.125-.126.126-.126.126-.126c.063-.063.126-.126.126-.189 0 0 0-.063.063-.063l.062-.063.063-.063.189-.188.063-.063.063-.063.063-.063.188-.19v-.062l.063-.063.126-.126.125-.126.063-.063v-.063c.063-.063.063-.126.126-.189 0-.063.063-.063.063-.125.126-.126.189-.315.314-.441 0 0 0-.063.063-.063l.189-.378s0-.063.063-.063c.063-.126.063-.189.125-.251v-.063-.19.064l-.251-.19v-.125c-2.2 1.196-4.087 2.959-5.784 4.658-.88.881-1.76 1.826-2.452 2.896l.503.377z"/>
      <path fill="url(#j)" fill-rule="nonzero" d="M89.4 102.794l-.251-.314.251.314z"/>
      <path fill="url(#k)" fill-rule="nonzero" d="M89.4 102.794l-.251-.314.251.314z"/>
      <path fill="url(#l)" fill-rule="nonzero" d="M89.4 102.794l-.251-.314.251.314z"/>
      <path fill="url(#m)" fill-rule="nonzero" d="M97.699 95.115l-.252-.315.252.315c0 .063 0 .063 0 0z"/>
      <path fill="url(#n)" fill-rule="nonzero" d="M97.699 95.115l-.252-.315.252.315c0 .063 0 .063 0 0z"/>
      <path fill="url(#o)" fill-rule="nonzero" d="M97.699 95.115l-.252-.315.252.315c0 .063 0 .063 0 0z"/>
      <path fill="url(#p)" fill-rule="nonzero" d="M147.051 140.437s0-.062 0 0c0-.062 0 0 0 0z"/>
      <path fill="url(#q)" fill-rule="nonzero" d="M130.768 155.42v-.064c0-.063-.063-.063-.063-.189v-.126c0-.125.063-.251.126-.314l.188-.378c0-.063.378-.44.378-.378h-.126l.377-.566c.314-.378.566-.819.943-1.196.189-.19.377-.44.566-.63l.754-.755-.062-.063c.502-.567 1.068-1.133 1.571-1.7l1.069-1.07.566-.566c.063-.063.629-.504.629-.44v-.127-.126-.126c0-.063.628 0 .628-.126v-.125c0-.252.629-.315.629-.441v-.126-.126-.126s.063-.063.126-.063h-.126c0 .063.566-.189.629-.251 0 0 .628-.504.628-.441 0 0 0-.252.063-.252.063-.126.315-.252.377-.378.126-.126.189-.251.252-.314-.063 0 .251-.126.126 0 0-.063.125-.378.125-.378-.125 0 .378 0 .252.126.126-.126.314-.126.44-.189v.063c.063 0 .189-.63.314-.63.063 0 .063.19.063.19.314-.252.629-.504.943-.693.503-.378 1.006-.693 1.509-1.007.189-.126.377-.252.566-.315a.476.476 0 01.251-.126c.063 0 .063-.063.126-.063s.063.063.063.126c.063-.126.189-.315.251-.44v-.064c.063 0 0 .063 0 .063 0 .063 0 .19.063.19.126-.064.503-.253.629-.253h.503c-.189-.314-.566-.629-.817-.944-.692-.692-1.32-1.448-2.012-2.14-.692-.692-1.32-1.448-2.012-2.14-1.572-1.7-3.206-3.462-4.778-5.162-5.658-6.106-11.317-12.275-17.038-18.38-4.212-4.596-8.487-9.128-12.7-13.724-.502-.566-1.005-1.133-1.508-1.636-.126-.19-.314-.44-.566-.567 0 0-.063 0-.063-.063l.063.063c-.063 0-.126-.126-.126-.126-.062 0-.062.126-.125.126s-.189-.063-.252-.063c-.251 0-.629.19-.88.315-.189.063-.377.189-.566.315-.629.377-1.257.755-1.823 1.196-.314.252-.629.44-.943.692-.314.252-.629.44-.88.693-1.635 1.259-3.144 2.643-4.653 4.091-.565.504-1.068 1.07-1.634 1.574l-.063.063c-.566.566-1.069 1.133-1.572 1.7-.628.755-1.257 1.447-1.823 2.266-.251.377-.503.755-.754 1.196-.252.503-.44.944-.063 1.385.628.755 1.383 1.447 2.012 2.203 3.017 3.273 6.098 6.546 9.116 9.883 4.086 4.469 8.235 8.875 12.322 13.345l11.316 12.275c2.075 2.266 4.15 4.469 6.224 6.735a.758.758 0 00.315.315c-.063-.315-.063-.44-.063-.504z"/>
      <path fill="url(#r)" fill-rule="nonzero" d="M105.495 95.555s.062.126.125.126c0-.063-.063-.063-.063-.063 0-.063 0-.063-.062-.063z"/>
      <path fill="url(#s)" fill-rule="nonzero" d="M105.495 95.555s.062.126.125.126c0-.063-.063-.063-.063-.063 0-.063 0-.063-.062-.063z"/>
      <path fill="url(#t)" fill-rule="nonzero" d="M90.28 108.46c.566-.819 1.195-1.511 1.823-2.266.503-.567 1.006-1.133 1.572-1.7l-.126.126c-1.446 1.51-2.954 3.084-3.96 4.847 0 .063-.063.063-.063.126.188-.378.44-.756.754-1.133z"/>
      <path fill="url(#u)" fill-rule="nonzero" d="M90.28 108.46c.566-.819 1.195-1.511 1.823-2.266.503-.567 1.006-1.133 1.572-1.7l-.126.126c-1.446 1.51-2.954 3.084-3.96 4.847 0 .063-.063.063-.063.126.188-.378.44-.756.754-1.133z"/>
      <path fill="url(#v)" fill-rule="nonzero" d="M93.738 104.431c.503-.566 1.069-1.07 1.635-1.574a72.088 72.088 0 014.652-4.091 60.135 60.135 0 00-6.287 5.665z"/>
      <path fill="url(#w)" fill-rule="nonzero" d="M93.738 104.431c.503-.566 1.069-1.07 1.635-1.574a72.088 72.088 0 014.652-4.091 60.135 60.135 0 00-6.287 5.665z"/>
      <path fill="url(#x)" fill-rule="nonzero" d="M99.962 98.766c.314-.252.566-.504.88-.693-.251.19-.503.44-.817.63.063 0 0 .063-.063.063z"/>
      <path fill="url(#y)" fill-rule="nonzero" d="M99.962 98.766c.314-.252.566-.504.88-.693-.251.19-.503.44-.817.63.063 0 0 .063-.063.063z"/>
      <path fill="url(#z)" fill-rule="nonzero" d="M99.962 98.766c.314-.252.566-.504.88-.693-.251.19-.503.44-.817.63.063 0 0 .063-.063.063z"/>
      <path fill="url(#y)" fill-rule="nonzero" d="M99.962 98.766c.314-.252.566-.504.88-.693-.251.19-.503.44-.817.63.063 0 0 .063-.063.063z"/>
      <path fill="url(#A)" fill-rule="nonzero" d="M104.049 95.996l-.378.189c.189-.126.378-.189.566-.315.252-.126.629-.315.88-.315.063 0 .189.063.252.063s.063-.126.126-.126c-.44-.063-1.07.315-1.446.504z"/>
      <path fill="url(#B)" fill-rule="nonzero" d="M104.049 95.996l-.378.189c.189-.126.378-.189.566-.315.252-.126.629-.315.88-.315.063 0 .189.063.252.063s.063-.126.126-.126c-.44-.063-1.07.315-1.446.504z"/>
      <path fill="url(#C)" fill-rule="nonzero" d="M132.214 155.42c.817-.379 1.572-.882 2.263-1.386 2.955-2.077 5.658-4.595 8.173-7.176 1.32-1.385 2.704-2.833 3.772-4.406.252-.378.566-.881.692-1.322.063-.252 0-.44-.063-.63v-.063h-.503c-.126 0-.503.19-.629.252 0 0 0-.126-.062-.189-.063.126-.19.315-.252.441 0-.063 0-.126-.063-.126s-.063.063-.126.063a.476.476 0 00-.251.126 5.664 5.664 0 00-.566.315c-.503.314-1.006.692-1.509 1.007-.314.252-.628.44-.943.692 0 0 0-.189-.063-.189-.125 0-.251.63-.314.63v-.063a3.063 3.063 0 01-.44.189c.189-.126-.314-.126-.252-.126.063 0-.062.315-.125.378.063-.126-.189.063-.126 0-.063.063-.189.251-.251.314-.126.126-.315.252-.378.378l-.063.252c0-.126-.628.44-.628.44-.063.063-.629.252-.629.252h.126l-.126.063v.378c0 .126-.629.126-.629.44v.126c0 .126-.628.063-.628.126v.378s-.629.378-.629.44l-.566.567c-.377.378-.754.693-1.069 1.07-.565.567-1.068 1.133-1.571 1.7 0 0 .063 0 .063.063 0 0-.692.63-.755.755-.189.19-.377.44-.566.63-.314.377-.628.755-.943 1.196l-.377.566h.126c0-.063-.315.315-.377.378l-.19.378c-.062.126-.125.189-.125.314v.126c0 .126.063.126.063.19v.377c.063 0 .063.063.126.063.44.126 1.069-.252 1.383-.378z"/>
      <path fill="url(#D)" fill-rule="nonzero" d="M148.308 142.389s-.125-.252-.125-.378c-.063-.189-.189-.378-.252-.503a13.981 13.981 0 00-.754-1.008c.063.063 0 0-.063 0v-.063h-.503c-.126 0-.503.19-.629.252 0 0 0-.126-.063-.189-.062.126-.188.315-.251.441 0-.063 0-.126-.063-.126s-.063.063-.126.063a.476.476 0 00-.251.126 5.664 5.664 0 00-.566.315c-.503.314-1.006.692-1.509 1.007-.314.252-.629.44-.943.692 0 0 0-.189-.063-.189-.125 0-.251.63-.314.63v-.063a3.063 3.063 0 01-.44.189c.188-.126-.315-.126-.252-.126s-.063.315-.125.378c.062-.126-.189.063-.126 0-.063.063-.189.251-.252.314-.125.126-.314.252-.377.378l-.063.252c0-.126-.628.44-.628.44-.063.063-.63.252-.63.252h.127l-.126.063v.378c0 .126-.629.126-.629.44v.126c0 .126-.628.063-.628.126v.378s-.63.378-.63.44l-.565.567c-.377.378-.754.693-1.069 1.07-.566.567-1.069 1.133-1.571 1.7 0 0 .062 0 .062.063 0 0-.691.63-.754.755-.189.19-.377.44-.566.63-.314.377-.629.755-.943 1.196l-.377.566h.126c0-.063-.315.315-.378.378l-.188.378c-.063.126-.126.189-.126.314v.126c0 .126.063.126.063.19v.377c.063.189.377.378.566.503 1.006.882 2.263 1.322 3.646 1.385 2.452.063 4.652-1.322 6.539-2.77 2.451-1.95 4.966-4.343 6.475-7.113.189-.314.377-.88.503-1.259v.063c.063-.188.126-.44.189-.63.125-1.321.063-2.454-.378-3.524zm-1.508 6.546v.063c-.063.378-.503.945-1.132 1.7-.314.378-.692.755-1.132 1.196l-.125.126c-.378.378-.755.755-1.195 1.133-.377.315-.692.63-1.006.881l-.126.126c-.377.315-.754.63-1.131.881-.629.441-1.132.756-1.446.882v.063l-.063.126-.063-.063h-.189-.062a.135.135 0 01-.126-.126v-.126c.063-.315.503-1.07 1.257-1.889l.063-.063c.252-.251.503-.566.817-.88l.943-.945c.189-.189.378-.315.566-.504a7.496 7.496 0 011.132-.944c.314-.252.629-.503.88-.692h.063c.063-.063.251-.19.44-.315.063 0 .063-.063.126-.063 0 0 .063 0 .063-.063.691-.44 1.068-.692 1.257-.63.126 0 .251 0 .251.064-.062-.063-.062 0-.062.062z"/>
      <path fill="url(#E)" fill-rule="nonzero" d="M145.857 140.375v.062s.062-.062 0-.062z"/>
      <path fill="url(#F)" fill-rule="nonzero" d="M145.857 140.375v.062s.062-.062 0-.062z"/>
      <path fill="#590000" fill-rule="nonzero" d="M146.8 148.81c0-.063-.126-.126-.252-.063-.251.063-.691.251-1.257.63 0 0-.063 0-.063.062-.063 0-.063.063-.126.063-.126.126-.314.252-.503.378-.251.189-.566.44-.88.692l-1.132.944c-.188.19-.377.315-.565.504l-.944.944c-.314.315-.565.567-.817.881l-.063.063c-.754.882-1.257 1.574-1.257 1.889v.126c0 .063.063.063.126.063h.063c.062 0 .125.063.188 0l.063.063.063-.126v-.063c.314-.126.817-.44 1.446-.882.314-.251.691-.566 1.132-.88l.125-.127c.315-.251.692-.566 1.006-.881.44-.378.817-.755 1.195-1.133l.125-.126c.44-.44.818-.818 1.132-1.196.629-.755 1.069-1.385 1.132-1.7v-.062-.063c.063.063.063 0 .063 0z"/>
    </g>
    <g fill-rule="nonzero">
      <path fill="url(#G)" d="M102.114 98.204l-8.746 7.917-15.1-16.65 8.746-7.917z"/>
      <path fill="url(#H)" d="M61.721 47.814L43.035 64.715 4.278 21.865l18.75-16.901z" transform="translate(86.196 91.104)"/>
      <path fill="url(#I)" d="M14.345 1.257L1.51 12.817c-1.636 1.446-1.762 3.959-.315 5.592l3.083 3.393 18.75-16.901-3.083-3.393c-1.51-1.57-3.964-1.696-5.6-.251z" transform="translate(86.196 91.104)"/>
      <path fill="url(#J)" d="M62.35 56.987L52.158 66.16c-2.328 2.137-5.977 1.948-8.116-.44l-1.007-1.13 18.75-16.902 1.006 1.131c2.076 2.45 1.887 6.095-.44 8.168z" transform="translate(86.196 91.104)"/>
      <ellipse cx="52.5" cy="51" fill="url(#K)" opacity=".5" rx="40.5" ry="41"/>
      <path fill="url(#L)" d="M17.302 13.194C-3.712 32.106-5.348 64.464 13.59 85.45c18.938 20.986 51.34 22.62 72.354 3.707 21.014-18.912 22.65-51.27 3.712-72.255-18.938-20.985-51.34-22.619-72.354-3.707zm58.953 65.218C61.218 91.984 38.002 90.79 24.412 75.774 10.822 60.694 12.017 37.573 27.054 24c15.037-13.571 38.254-12.377 51.843 2.64 13.528 15.016 12.395 38.2-2.642 51.771z"/>
    </g>
  </g>
</svg>
