<svg xmlns="http://www.w3.org/2000/svg" viewBox="0 0 170 39">
  <g fill="#FFF" fill-rule="evenodd">
    <path fill-rule="nonzero" d="M42.369 11.525h4.141v8.316c0 1.684 1.308 3.368 3.488 3.368 1.962 0 3.488-1.263 3.488-3.368v-8.316h4.141v8.316c0 4.526-3.27 7.052-7.738 7.052-4.577 0-7.63-3.158-7.63-7.052l.11-8.316zM75.767 26.787h-4.142v-8.21c0-1.684-1.308-3.368-3.487-3.368-1.962 0-3.488 1.263-3.488 3.369v8.315h-4.142v-8.315c0-4.526 3.27-7.053 7.739-7.053 4.577 0 7.629 3.158 7.629 7.053l-.11 8.21zM169.891 26.787h-4.142v-8.21c0-1.684-1.307-3.368-3.487-3.368-1.962 0-3.488 1.263-3.488 3.369v8.315h-4.141v-8.315c0-4.526 3.27-7.053 7.738-7.053 4.577 0 7.629 3.158 7.629 7.053l-.109 8.21zM79.718 11.525h3.841v15.368h-3.841zM105.65 11.525h3.842v15.368h-3.842zM128.7 11.525h3.842v15.368h-3.841zM86.44 11.525h4.377l4.158 9.35 4.377-9.35h4.377l-7.112 15.368h-2.955zM112.373 24.807l2.063-2.958s1.52 1.534 4.126 1.534c1.085 0 2.062-.548 2.062-1.315 0-2.3-7.6-1.534-7.6-6.573 0-2.958 2.715-4.93 6.08-4.93 3.149 0 5.212 1.534 5.212 1.534l-2.063 2.958s-1.52-.986-2.931-.986c-1.52 0-2.063.657-2.063 1.314 0 2.082 7.6 1.206 7.6 6.683 0 2.958-2.932 4.82-6.189 4.82-3.583.11-6.297-2.08-6.297-2.08zM143.587 10.565c-5.263 0-8.163 4.354-8.163 8.164 0 4.898 3.974 8.164 8.163 8.164 4.51 0 8.162-3.484 8.162-8.164.108-5.007-3.974-8.164-8.162-8.164zm0 3.919c2.255 0 4.08 1.741 4.08 4.354 0 2.394-1.718 4.136-3.973 4.136-2.04 0-4.081-1.524-4.081-4.136 0-2.177 1.503-4.354 3.974-4.354z"/>
    <path d="M34.576 2.525C32.25.752 25.766.397 15.293.575l-.166 21.28c10.14.177 17.62-.71 19.283-1.774V2.703l.166-.178zM0 21.343c.178 8.004 5.7 15.83 16.208 17.075-1.425-1.778-2.316-5.336-2.316-15.474-4.452.178-9.083-.356-13.892-1.6M15.123 23.14l.17 7.903c.338 3.863 1.183 5.619 2.198 7.375 9.471-.527 15.56-5.444 17.081-17.034-1.69.878-9.809 2.283-19.449 1.756M4.117 21.343c-1.871-.194-2.807-.388-3.93-.97L0 6.403c3.182 6.791 4.492 11.06 4.305 14.94h-.188z"/>
    <path d="M13.87 19.968c-2.665 1.314-5.685 1.501-8.35 1.314C6.586 13.963-.342 6.457.013 2.142h.178c4.619-.189 12.79 3.565 13.856 7.505v10.321h-.178z"/>
  </g>
</svg>
