<?xml version="1.0" encoding="utf-8"?>
<!-- Svg Vector Icons : http://www.onlinewebfonts.com/icon -->
<!DOCTYPE svg PUBLIC "-//W3C//DTD SVG 1.1//EN" "http://www.w3.org/Graphics/SVG/1.1/DTD/svg11.dtd">
<svg version="1.1" xmlns="http://www.w3.org/2000/svg" xmlns:xlink="http://www.w3.org/1999/xlink" x="0px" y="0px" viewBox="0 0 1000 1000" enable-background="new 0 0 1000 1000" xml:space="preserve">
<metadata> Svg Vector Icons : http://www.onlinewebfonts.com/icon </metadata>
<g><g transform="translate(0.000000,511.000000) scale(0.100000,-0.100000)"><path d="M2002.8,4990.4c-205.6-62.2-334.7-219.9-349-430.3c-21.5-291.7-222.3-117.1,2794.7-2419.3C5933,1007.6,7140.3,72.8,7130.7,63.2C7118.7,53.7,5911.5-838,4446-1918.6C2980.6-2999.2,1742.2-3926.7,1692-3976.9c-344.2-372.9,74.1-970.6,542.7-774.6c107.6,43,6041.1,4439.4,6105.7,4520.7c112.3,143.4,126.7,384.9,28.7,542.7c-62.1,102.8-5940.7,4623.5-6072.2,4668.9C2198.8,5016.7,2098.4,5019.1,2002.8,4990.4z"/></g></g>
</svg>