<svg xmlns="http://www.w3.org/2000/svg" viewBox="0 0 200 35" width="193">
  <g fill="#FFF" fill-rule="nonzero">
    <path d="M28.11 29.508l2.866 3.38H19.423l3.168-3.38V5.39L18.223.81h14.179c5.417.032 7.605 2.353 7.605 7.913 0 5.956-3.099 9.756-5.865 9.756 2.556 0 3.978 2.852 4.218 4.506l1.23 7.08c0 .3 1.274 1.701 1.274 1.701l1.22 1.122h-3.726c-2.716 0-3.766-1.05-4.287-2.738l-1.23-5.804c-.486-1.937-1.55-3.895-3.514-3.895H28.11v9.057zm0-12.785h1.674c3.512 0 4.646-1.339 4.646-6.471 0-4.362-.813-5.744-4.646-5.744H28.11v12.215zm23.843 8.037H46.65l-.604 5.604 1.85 2.524h-8.243l3.252-3.552 4.721-24.539L45.198.81h11.958L54.33 4.594l4.275 24.785 2.797 3.51H50.48l2.294-3.253-.82-4.876zm-.658-3.176c.215 0 .358-.129.287-.3l-1.908-11.97h-.145l-2.365 12.013c-.071.17.071.257.215.257h3.916zm31.245 7.323l-3.389 3.98h11.696l-2.917-3.08V16.674l6.695 12.96-2.273 3.253h11.575c.285 0-2.28-2.137-2.28-2.137-.431-.215-.718-.6-.933-1.026l-8.632-18.059L101.386.81h-8.062l1.422 3.036-6.816 8.17v-7.87L91.147.81H78.82c-.215 0-.358.128-.358.213 0 .172.501.47.501.47l3.576 2.654v24.76zm26.8-24.65h5.772l3.376 5.786V.809H100.39l3.317 3.98v25.018l-3.317 3.08h18.1v-9.32l-3.377 5.98h-5.772v-10.9h2.662l2.512 3.807V11.285l-2.512 3.894h-2.662V4.258zm13.017.832l-4.97-4.28h13.965c5.006 0 9.137 4.149 9.137 15.227 0 13.943-7.433 16.851-9.137 16.851h-13.064l4.068-4.58V5.089zm5.519 24.159h1.29c2.39 0 5.446-.123 5.446-13.212 0-11.462-2.65-11.587-5.446-11.587h-1.29v24.799zM78.063 17.933c-2.27-2.932-4.245-.83-4.245-.83s2.577 8.705-1.67 11.193c-6.15 2.188-5.262-12.581-5.262-12.581 0-8.69 2.58-11.447 4.83-11.496 2.302-.05 3.411 2.375 3.411 2.375v5.255h4.02V.236l-2.828 2.507C73.893.291 71.21.492 71.21.492c-8.958 0-10.415 10.861-10.415 16.122 0 7.142.961 16.398 9.347 16.398 0 0 6.329.35 8.705-6.88 0 0 1.735-5.042-.783-8.2m-60.64 0c-2.269-2.931-4.244-.83-4.244-.83s2.577 8.706-1.67 11.194c-6.15 2.188-5.262-12.581-5.262-12.581 0-8.69 2.58-11.447 4.83-11.496 2.302-.05 3.411 2.375 3.411 2.375v5.255h4.02V.236L15.68 2.743C13.254.291 10.57.492 10.57.492 1.613.492.156 11.353.156 16.614c0 7.142.96 16.398 9.346 16.398 0 0 6.329.35 8.706-6.88 0 0 1.736-5.042-.783-8.2m139.659 6.292c-1.56-2.034-2.918-.576-2.918-.576s1.771 5.741-1.148 7.468c-4.227 1.519-3.617-8.431-3.617-8.431 0-6.03 1.773-7.943 3.32-7.977 1.583-.035 2.345 1.648 2.345 1.648v3.646h2.762v-8.058l-1.942 1.74c-1.668-1.702-3.513-1.563-3.513-1.563-5.207 0-6.858 7.538-6.858 11.189 0 4.955 2.626 10.553 6.153 10.553 0 0 4.321 1.069 5.953-3.947 0 0 1.194-3.5-.537-5.692m17.274-1.643c0 5.626-1.751 11.582-7.407 11.582-4.776 0-7.177-6.131-7.177-11.758 0-4.287 2.776-10.568 7.177-10.568 5.28 0 7.407 6.456 7.407 10.744m-10.46-.146c0 7.74 1.489 8.74 3.053 8.74 1.62 0 3.48-1.054 3.48-8.794 0-6.61-1.86-7.854-3.48-7.854-1.564 0-3.052 1.299-3.052 7.908m10.311-9.844l2.23 2.327v16.467l-1.93 2.328h7.231l-1.754-2.027v-11.23l4.327 9.354 3.96-10.255v12.13l-1.906 2.028h7.123l-1.584-2.329V14.918l2.184-2.328h-6.423l1.289 1.38-3.536 9.493-4.276-9.493.85-1.38h-7.785zm-31.022 19.996a1.801 1.801 0 10-3.602 0 1.801 1.801 0 003.602 0M200 11.82c0 .993-.8 1.782-1.815 1.782s-1.827-.789-1.827-1.783c0-.993.812-1.772 1.838-1.772 1.005 0 1.804.779 1.804 1.772m-3.188 0c0 .79.594 1.416 1.383 1.416.767.01 1.35-.627 1.35-1.405 0-.789-.583-1.427-1.371-1.427-.768 0-1.362.638-1.362 1.416m1.092.919h-.411v-1.772c.162-.021.388-.054.68-.054.335 0 .487.054.606.14a.445.445 0 01.183.378c0 .217-.162.357-.367.421v.023c.173.054.26.194.313.431.054.271.098.368.13.433h-.432c-.055-.065-.087-.216-.14-.433-.033-.182-.142-.27-.368-.27h-.195v.703zm.01-.994h.195c.227 0 .41-.076.41-.26 0-.162-.117-.27-.378-.27a.989.989 0 00-.226.022v.508z"/>
  </g>
</svg>
