<svg xmlns="http://www.w3.org/2000/svg" viewBox="0 0 150 25" width="150">
  <g fill="#FFF" fill-rule="nonzero">
    <path d="M0 23.622V.932h16.69v4.397H5.668v4.144h10.286v4.395H5.667v5.351h11.972v4.403H0M27.995 11.413L20.511.932h6.877l4.142 6.914L35.635.932h6.782l-7.454 10.48 8.7 12.21H36.72l-5.226-8.479-5.376 8.48h-6.852l8.73-12.21M45.414 23.622h5.732V16.29h4.427c7.766 0 9.454-4.653 9.454-7.678 0-4.496-2.26-7.68-8.374-7.68h-11.24v22.69zm5.662-18.484h4.618c2.587 0 3.664 1.243 3.664 3.507 0 1.747-.924 3.44-3.503 3.44h-4.78V5.137zM66.556 23.622h5.669v-8.161h3.598l4.458 8.161h6.34l-5.194-9.116c2.835-.829 4.682-3.188 4.682-6.121 0-5.095-3.118-7.453-8.212-7.453h-11.34v22.69zm5.669-18.484h5.19c1.816.031 3.027.955 3.027 3.06 0 2.1-1.21 3.022-3.026 3.057h-5.191V5.138zM88.359 23.622V.932h16.686v4.397H94.027v4.144h10.286v4.395H94.027v5.351h11.971v4.403h-17.64M111.745 16.832c1.973 1.786 3.855 2.834 6.561 2.834 1.496 0 4.236-.634 4.236-2.612 0-1.148-.864-1.72-2.55-2.008l-4.713-.764c-4.207-.669-6.496-2.898-6.496-6.242 0-5.484 4.427-7.747 9.263-7.747 3.76 0 7.453 1.532 10.004 4.368l-4.298 3.09a7.83 7.83 0 00-6.083-2.867c-1.305 0-3.219.828-3.219 2.294 0 1.207.99 1.815 3.153 2.167l2.169.348c4.518.73 8.248 2.135 8.248 6.47 0 6.818-6.152 8.094-10.388 8.094-3.848 0-7.131-1.241-10.219-4.62l4.332-2.805M133.561 16.832c1.972 1.786 3.851 2.834 6.555 2.834 1.503 0 4.236-.634 4.236-2.612 0-1.148-.857-1.72-2.55-2.008l-4.709-.764c-4.206-.669-6.5-2.898-6.5-6.242 0-5.484 4.434-7.747 9.274-7.747 3.752 0 7.45 1.532 9.997 4.368l-4.303 3.09a7.83 7.83 0 00-6.082-2.867c-1.301 0-3.214.828-3.214 2.294 0 1.207.986 1.815 3.155 2.167l2.162.348c4.522.73 8.248 2.135 8.248 6.47 0 6.818-6.149 8.094-10.38 8.094-3.855 0-7.135-1.241-10.22-4.62l4.331-2.805"/>
  </g>
</svg>
