<svg xmlns="http://www.w3.org/2000/svg" xmlns:xlink="http://www.w3.org/1999/xlink" viewBox="0 0 165 162">
  <defs>
    <path id="a" d="M.17 28.59l12.28 1.121a6.872 6.872 0 014.231 1.983l98.284 98.162 15.02-12.364L25.83 15.264a6.923 6.923 0 01-2.038-4.255L22.7.042.17 28.59z"/>
    <path id="d" d="M.04.112h30.896v31.146H.04z"/>
    <path id="f" d="M10.011 2.417s16.006 6.665 14.402 12.691c-1.641 6.163-5.08 12.143-9.091 12.417C11.312 27.799 0 18.943 0 18.943s4.181 20.725 18.352 22.916c10.853 1.678 23.262-19.995 22.46-29.033C40.214 6.089 37.034.114 25.292.114c-4.013 0-9.027.698-15.28 2.303"/>
    <linearGradient id="b" x1="39.723%" x2="57.019%" y1="58.835%" y2="40.926%">
      <stop offset="0%" stop-color="#3D1700"/>
      <stop offset="28.861%" stop-color="#A54600"/>
      <stop offset="54.988%" stop-color="#D86000"/>
      <stop offset="76.415%" stop-color="#A33B00"/>
      <stop offset="100%" stop-color="#521700"/>
    </linearGradient>
    <linearGradient id="g" x1="135.788%" x2="-24.185%" y1="122.423%" y2="0%">
      <stop offset="0%" stop-color="#F86D00"/>
      <stop offset="60.336%" stop-color="#E26000"/>
      <stop offset="100%" stop-color="#772100"/>
    </linearGradient>
  </defs>
  <g fill="none" fill-rule="evenodd">
    <g transform="translate(19 13)">
      <mask id="c" fill="#fff">
        <use xlink:href="#a"/>
      </mask>
      <path fill="url(#b)" fill-rule="nonzero" d="M.17 28.59l12.28 1.121a6.872 6.872 0 014.231 1.983l98.284 98.162 15.02-12.364L25.83 15.264a6.923 6.923 0 01-2.038-4.255L22.7.042.17 28.59z" mask="url(#c)"/>
    </g>
    <g transform="translate(133.15 129.895)">
      <mask id="e" fill="#fff">
        <use xlink:href="#d"/>
      </mask>
      <path fill="#EE6F00" d="M15.488 27.265c-6.344 0-11.486-5.185-11.486-11.58 0-6.395 5.142-11.58 11.486-11.58s11.486 5.185 11.486 11.58c0 6.395-5.142 11.58-11.486 11.58m0-27.153C6.956.112.04 7.084.04 15.685c0 8.601 6.916 15.573 15.448 15.573 8.531 0 15.448-6.972 15.448-15.573 0-8.6-6.917-15.573-15.448-15.573" mask="url(#e)"/>
    </g>
    <path fill="#672D00" d="M148.637 157.16c-6.344 0-11.486-5.185-11.486-11.58 0-6.395 5.142-11.58 11.486-11.58s11.486 5.185 11.486 11.58c0 6.395-5.142 11.58-11.486 11.58m0-25.227c-7.476 0-13.537 6.11-13.537 13.647s6.06 13.647 13.537 13.647c7.476 0 13.537-6.11 13.537-13.647s-6.06-13.647-13.537-13.647"/>
    <path fill="#000" d="M131.072 126.717a3.056 3.056 0 01-4.347 0L51.998 51.382a3.117 3.117 0 010-4.382 3.056 3.056 0 014.347 0l74.727 75.334a3.117 3.117 0 010 4.383" opacity=".5"/>
    <path fill="#FFF" d="M153.731 154.842l.116.13.532.635a11.357 11.357 0 01-5.351 1.546l-.39.006.145-.82c.424-2.373 3.338-3.214 4.948-1.497zm-10.304.13c1.582-1.887 4.63-1.064 5.064 1.368l.146.82c-2.093 0-4.052-.568-5.742-1.553zm-.202-.302l-.051.154-.28.782a11.582 11.582 0 01-4.009-3.91l-.194-.327.776-.281c2.255-.819 4.438 1.313 3.758 3.582zm14.429-3.634l.153.052.776.281a11.591 11.591 0 01-3.88 4.042l-.323.196-.28-.783c-.811-2.273 1.303-4.473 3.554-3.788zm-20.503-5.456l.813.147c2.355.428 3.189 3.365 1.486 4.989l-.13.116-.63.537a11.595 11.595 0 01-1.54-5.789zm22.972 0c0 1.978-.494 3.838-1.361 5.466l-.179.322-.63-.536c-1.827-1.557-1.092-4.522 1.188-5.069l.17-.035.812-.148zm-21.432-5.789l.63.537c1.827 1.557 1.093 4.521-1.188 5.068l-.17.036-.812.148c0-2.11.562-4.086 1.54-5.789zm19.892 0a11.588 11.588 0 011.534 5.395l.006.394-.813-.148c-2.355-.427-3.189-3.365-1.486-4.988l.13-.116.63-.537zm-4.203-4.238c1.634.953 3.012 2.3 4.009 3.911l.194.326-.776.282c-2.255.819-4.438-1.313-3.757-3.582l.05-.155.28-.782zm-11.486 0l.28.782c.811 2.273-1.303 4.474-3.553 3.788l-.154-.05-.776-.283a11.583 11.583 0 014.203-4.237zm5.743-1.553l-.146.82c-.424 2.374-3.338 3.215-4.948 1.498l-.116-.13-.532-.635a11.36 11.36 0 015.742-1.553zm0 0c1.962 0 3.807.499 5.422 1.373l.32.18-.532.635c-1.545 1.842-4.485 1.102-5.028-1.197l-.035-.171-.147-.82z"/>
    <g>
      <mask id="h" fill="#fff">
        <use xlink:href="#f"/>
      </mask>
      <path fill="url(#g)" fill-rule="nonzero" d="M10.011 2.417s16.006 6.665 14.402 12.691c-1.641 6.163-5.08 12.143-9.091 12.417C11.312 27.799 0 18.943 0 18.943s4.181 20.725 18.352 22.916c10.853 1.678 23.262-19.995 22.46-29.033C40.214 6.089 37.034.114 25.292.114c-4.013 0-9.027.698-15.28 2.303" mask="url(#h)"/>
    </g>
  </g>
</svg>
