<svg xmlns="http://www.w3.org/2000/svg" xmlns:xlink="http://www.w3.org/1999/xlink" viewBox="0 0 203 160">
  <defs/>
  <defs>
    <path id="a" d="M0 0h154.705v97.337H0z"/>
    <path id="e" d="M.166 3.405s2.116 1.892 8.107 2.392h186.454s4.97-.335 8.194-2.31H4.864L.166 3.406z"/>
    <path id="g" d="M87.239.116s.023 2.124 1.642 3.14h25.171s1.385-.661 1.693-3.14H87.647"/>
    <linearGradient id="c" x1="50%" x2="50%" y1="0%" y2="100%">
      <stop offset="0%" stop-color="#151515"/>
      <stop offset="100%" stop-color="#2C2C2C"/>
    </linearGradient>
    <linearGradient id="f" x1="50%" x2="50%" y1="0%" y2="100%">
      <stop offset="0%" stop-color="#5771F3"/>
      <stop offset="100%" stop-color="#36458E"/>
    </linearGradient>
    <filter id="d" width="106.9%" height="685.3%" x="-3.5%" y="-209%" filterUnits="objectBoundingBox">
      <feOffset dy="2" in="SourceAlpha" result="shadowOffsetOuter1"/>
      <feGaussianBlur in="shadowOffsetOuter1" result="shadowBlurOuter1" stdDeviation="2"/>
      <feColorMatrix in="shadowBlurOuter1" values="0 0 0 0 0 0 0 0 0 0 0 0 0 0 0 0 0 0 0.5 0"/>
    </filter>
    <filter id="h" width="103.5%" height="131.9%" x="-1.8%" y="-15.9%" filterUnits="objectBoundingBox">
      <feGaussianBlur in="SourceAlpha" result="shadowBlurInner1" stdDeviation=".5"/>
      <feOffset in="shadowBlurInner1" result="shadowOffsetInner1"/>
      <feComposite in="shadowOffsetInner1" in2="SourceAlpha" k2="-1" k3="1" operator="arithmetic" result="shadowInnerInner1"/>
      <feColorMatrix in="shadowInnerInner1" values="0 0 0 0 0 0 0 0 0 0 0 0 0 0 0 0 0 0 0.301441866 0"/>
    </filter>
  </defs>
  <g fill="none" fill-rule="evenodd">
    <path fill="#5F7AFF" d="M24.994 21.28A5.994 5.994 0 0019 27.274v104.768h165V27.274a6 6 0 00-5.994-5.994H24.994z"/>
    <path stroke="#5F7AFF" stroke-width="2" d="M178.006 22a4.98 4.98 0 013.53 1.465 4.979 4.979 0 011.464 3.53h0V133H20V26.996c0-1.38.559-2.63 1.462-3.533A4.979 4.979 0 0124.994 22h0z"/>
    <g transform="translate(24.287 28.272)">
      <mask id="b" fill="#fff">
        <use xlink:href="#a"/>
      </mask>
      <use fill="#425BD0" xlink:href="#a"/>
      <text fill="#899EFF" font-family="CeraPro-Black, Cera Pro" font-size="24" font-weight="700" mask="url(#b)">
        <tspan x="37.313" y="54.728">WWW.</tspan>
      </text>
    </g>
    <g transform="translate(100 24)">
      <circle cx="1.5" cy="1.5" r="1.5" fill="url(#c)"/>
      <circle cx="1.5" cy="1.5" r="1" fill="#103470"/>
    </g>
    <g>
      <g transform="translate(0 132)">
        <use fill="#000" filter="url(#d)" xlink:href="#e"/>
        <use fill="url(#f)" xlink:href="#e"/>
      </g>
      <path fill="#5771F3" d="M.279 132H203v3.5H.279z"/>
      <g transform="translate(0 132)">
        <use fill="#4F66D9" xlink:href="#g"/>
        <use fill="#000" filter="url(#h)" xlink:href="#g"/>
      </g>
    </g>
  </g>
</svg>