<svg xmlns="http://www.w3.org/2000/svg" xmlns:xlink="http://www.w3.org/1999/xlink" viewBox="0 0 673 713">
  <defs>
    <path id="a" d="M672 120.568c-115.371-10.485-193.659-38.197-234.863-83.136-61.806-67.407-164.067-26.963-207.893-7.864C185.418 48.667 0 170.001 0 276.73c0 106.729 59.559 96.618 104.508 102.235 44.95 5.617 68.549 25.84 66.301 51.68-2.247 25.839-75.29 60.666-119.117 87.63C7.866 545.235-10.114 604.78 62.93 662.075c73.043 57.296 124.736 50.556 140.468 46.062 15.732-4.494 56.187-25.84 103.385-47.185 47.197-21.346 59.558-34.828 130.354-34.828 12.154 0 62.313 1.865 78.662 0C594.686 617.127 672 587.928 672 587.928v-467.36z"/>
    <path id="d" d="M229.244 29.568c43.826-19.099 146.087-59.543 207.893 7.864C478.341 82.371 556.63 110.082 672 120.568v467.36s-77.314 29.199-156.2 38.197c-16.35 1.865-66.51 0-78.663 0-70.796 0-83.157 13.482-130.354 34.828-47.198 21.345-87.653 42.691-103.385 47.185s-67.425 11.234-140.468-46.062c-73.044-57.296-55.064-116.84-11.238-143.803 43.826-26.963 116.87-61.79 119.117-87.63 2.248-25.84-21.35-46.062-66.3-51.679C59.558 373.347 0 383.458 0 276.73 0 170.001 185.418 48.667 229.244 29.57zm-7.853 246.337c0 67.972 5.59 49.411 5.59 115.369 0 65.957-82.741 125.207-24.598 165.452 58.143 40.246 143.121-11.179 196.792-40.245 53.67-29.066 124.113 36.892 190.083-16.769 46.962-48.07 4.462-98.4 34.662-144.212 16.832-25.533 25.303-53.551 25.414-84.054v-1.007c-.036-15.18-10.424-28.378-25.171-31.979-35.017-8.55-71.25-12.763-108.702-12.64-68.702.228-50.316-22.358-134.176-46.952-83.86-24.594-159.894 29.066-159.894 97.037z"/>
    <path id="f" d="M229.244 29.568c43.826-19.099 146.087-59.543 207.893 7.864C478.341 82.371 556.63 110.082 672 120.568v467.36s-77.314 29.199-156.2 38.197c-16.35 1.865-66.51 0-78.663 0-70.796 0-83.157 13.482-130.354 34.828-47.198 21.345-87.653 42.691-103.385 47.185s-67.425 11.234-140.468-46.062c-73.044-57.296-55.064-116.84-11.238-143.803 43.826-26.963 116.87-61.79 119.117-87.63 2.248-25.84-21.35-46.062-66.3-51.679C59.558 373.347 0 383.458 0 276.73 0 170.001 185.418 48.667 229.244 29.57zm13.392 106.819c-51.435 32.42-82.742 64.8-82.742 107.32 0 42.521 24.542 105.913 149.83 33.538 50.316-29.066 102.868 33.538 128.585 67.076 5.582 7.279-182.23 5.092-184.492 11.179-16.374 44.058-182.998 220.545-158.775 249.297 20.84 24.736 12.583 61.234 64.852 64.84 65.352 4.508 131.55-39.472 216.918-55.896 135.502-26.07 284.793-31.302 294.07-31.302V195.785c-21.483-4.115-39.59-6.173-54.321-6.173-22.097 0-72.494 4.645-111.163-24.16-38.67-28.804-52.553-51.424-102.869-57.013-50.316-5.59-108.46-4.472-159.893 27.948z"/>
    <path id="h" d="M437.137 37.432c40.792 44.49 117.93 72.095 231.413 82.817l3.45.32v67.735c-26.235-6.748-48.348-10.122-66.338-10.122-26.985 0-68.587-4.498-115.81-51.73-47.224-47.232-86.577-52.855-110.189-57.353-23.611-4.498-137.817 1.29-182.148 32.612-44.33 31.322-104.71 55.916-130.427 139.447-25.717 83.532 53.521 86.36 80.506 91.984 26.985 5.622 71.284 3.605 124.13-14.388 52.845-17.993 88.825-21.367 129.302-4.498 40.478 16.868 69.712 47.232 109.065 47.232 30.358 2.249 82.079 0 110.188-17.993 10.07-6.447 44.975-24.741 51.721-34.862v279.295s-77.314 29.199-156.2 38.197c-16.35 1.865-66.51 0-78.663 0-70.796 0-83.157 13.482-130.354 34.828-47.198 21.345-87.653 42.691-103.385 47.185s-67.425 11.234-140.468-46.062c-73.044-57.296-55.064-116.84-11.238-143.803 43.826-26.963 116.87-61.79 119.117-87.63 2.248-25.84-21.35-46.062-66.3-51.679C59.558 373.347 0 383.458 0 276.73 0 170.001 185.418 48.667 229.244 29.57c43.826-19.1 146.087-59.544 207.893 7.863zm-117.35 479.05c-23.48-4.473-59.261-20.124-105.105-15.652-45.843 4.472-68.206 27.948-74.915 36.892-6.709 8.943-31.308 53.66-2.236 90.552 19.38 24.594 54.043 26.084 103.986 4.471 43.235-22.358 73.425-35.028 90.57-38.01 17.144-2.98 45.47-1.49 84.978 4.473 23.853-4.472 35.78-17.515 35.78-39.128 0-32.42-24.599-41.363-44.725-41.363-20.127 0-64.852 2.236-88.333-2.236zm329.73-162.017c-14.615 4.501-49.465 19.132-89.935 40.515-26.98 14.256-53.212 13.88-78.693-1.125-47.965-26.26-81.69-39.39-101.176-39.39-29.23 0-77.569 12.38-88.81 40.515-11.243 28.136-4.498 59.648 6.744 70.902 11.242 11.254 19.111 15.756 71.948 15.756 52.836 0 64.078-6.752 98.928 5.627 34.85 12.38 51.712 38.265 80.941 43.892 29.229 5.627 58.458 0 82.065-18.007 15.739-12.004 29.23-27.76 40.471-47.268v-103.54c-5.246-8.253-12.74-10.879-22.484-7.877z"/>
    <path id="j" d="M229.244 29.568c43.826-19.099 146.087-59.543 207.893 7.864C478.341 82.371 556.63 110.082 672 120.568v467.36s-77.314 29.199-156.2 38.197c-16.35 1.865-66.51 0-78.663 0-70.796 0-83.157 13.482-130.354 34.828-47.198 21.345-87.653 42.691-103.385 47.185s-67.425 11.234-140.468-46.062c-73.044-57.296-55.064-116.84-11.238-143.803 43.826-26.963 116.87-61.79 119.117-87.63 2.248-25.84-21.35-46.062-66.3-51.679C59.558 373.347 0 383.458 0 276.73 0 170.001 185.418 48.667 229.244 29.57z"/>
    <path id="k" d="M27.6 6.489c.231-.67 1.813-2.749-1.004-4.729-.506-.356-1.342-.001-2.067-.226-.545-.168-.729-.931-1.354-1.064-.648-.139-1.354.487-2.087.432C20.64.87 19.947.167 19.48.13c-.834-.068-1.592.722-2.407.773-.472.03-1.02-.733-1.49-.773-1.14-.098-2.18.435-3.185.597-.927.15-1.358 2.055-2.04 2.505-2.142 1.413-3.82 1.808-5.559 3.258-2.066 1.724-2.462 3.006-3.318 4.155-.856 1.149-1.385 5.196-.886 7.79.295 1.53 1.062 5.709 2.777 7.326 2.346 2.215 7.12 2.87 7.544 2.575 1.962-1.368 6.362-8.936 9.482-11.61 2.295-1.967 5.765-6.081 7.202-10.236z"/>
    <filter id="c" width="105.4%" height="105.1%" x="-1.9%" y="-1.8%" filterUnits="objectBoundingBox">
      <feMorphology in="SourceAlpha" operator="dilate" radius=".5" result="shadowSpreadOuter1"/>
      <feOffset dx="5" dy="5" in="shadowSpreadOuter1" result="shadowOffsetOuter1"/>
      <feGaussianBlur in="shadowOffsetOuter1" result="shadowBlurOuter1" stdDeviation="5"/>
      <feComposite in="shadowBlurOuter1" in2="SourceAlpha" operator="out" result="shadowBlurOuter1"/>
      <feColorMatrix in="shadowBlurOuter1" values="0 0 0 0 0 0 0 0 0 0 0 0 0 0 0 0 0 0 0.5 0"/>
    </filter>
    <filter id="e" width="105.4%" height="105.1%" x="-1.9%" y="-1.8%" filterUnits="objectBoundingBox">
      <feMorphology in="SourceAlpha" operator="dilate" radius=".5" result="shadowSpreadOuter1"/>
      <feOffset dx="5" dy="5" in="shadowSpreadOuter1" result="shadowOffsetOuter1"/>
      <feGaussianBlur in="shadowOffsetOuter1" result="shadowBlurOuter1" stdDeviation="5"/>
      <feComposite in="shadowBlurOuter1" in2="SourceAlpha" operator="out" result="shadowBlurOuter1"/>
      <feColorMatrix in="shadowBlurOuter1" values="0 0 0 0 0 0 0 0 0 0 0 0 0 0 0 0 0 0 0.5 0"/>
    </filter>
    <filter id="g" width="105.4%" height="105.1%" x="-1.9%" y="-1.8%" filterUnits="objectBoundingBox">
      <feMorphology in="SourceAlpha" operator="dilate" radius=".5" result="shadowSpreadOuter1"/>
      <feOffset dx="5" dy="5" in="shadowSpreadOuter1" result="shadowOffsetOuter1"/>
      <feGaussianBlur in="shadowOffsetOuter1" result="shadowBlurOuter1" stdDeviation="5"/>
      <feComposite in="shadowBlurOuter1" in2="SourceAlpha" operator="out" result="shadowBlurOuter1"/>
      <feColorMatrix in="shadowBlurOuter1" values="0 0 0 0 0 0 0 0 0 0 0 0 0 0 0 0 0 0 0.5 0"/>
    </filter>
    <filter id="i" width="102.4%" height="102.3%" x="-1.2%" y="-1.1%" filterUnits="objectBoundingBox">
      <feGaussianBlur in="SourceAlpha" result="shadowBlurInner1" stdDeviation="5"/>
      <feOffset dx="5" dy="5" in="shadowBlurInner1" result="shadowOffsetInner1"/>
      <feComposite in="shadowOffsetInner1" in2="SourceAlpha" k2="-1" k3="1" operator="arithmetic" result="shadowInnerInner1"/>
      <feColorMatrix in="shadowInnerInner1" values="0 0 0 0 0 0 0 0 0 0 0 0 0 0 0 0 0 0 0.668870192 0"/>
    </filter>
  </defs>
  <g fill="none" fill-rule="evenodd">
    <g transform="translate(1 1)">
      <mask id="b" fill="#fff">
        <use xlink:href="#a"/>
      </mask>
      <use fill="#092475" xlink:href="#a"/>
      <g mask="url(#b)">
        <use fill="#000" filter="url(#c)" xlink:href="#d"/>
        <use fill="#0C2E95" stroke="#3947D2" xlink:href="#d"/>
      </g>
      <g mask="url(#b)">
        <use fill="#000" filter="url(#e)" xlink:href="#f"/>
        <use fill="#0E38B8" stroke="#2D53DB" xlink:href="#f"/>
      </g>
      <g stroke="#FFF" stroke-linecap="square" stroke-width="5" mask="url(#b)">
        <path d="M264.44 120.177l116.285 484.061M228.659 177.191h46.962M221.95 143.653h46.962M243.195 244.267h46.961M236.486 210.729h46.962M259.967 311.342h46.961M253.258 277.804h46.962M274.502 378.417h46.962M267.794 344.88h46.961M292.393 445.493h46.961M285.684 411.955h46.962M306.928 512.568h46.962M300.22 479.03h46.961M323.7 579.644h46.962M316.992 546.106h46.961M211.887 120.177l116.286 484.061"/>
      </g>
      <g mask="url(#b)">
        <path fill="#DB2721" d="M403.462 409.099c-5.202-3.251-3.19-10.682-4.003-15.957-.582-3.775-4.648-5.299-3.57-9.4 2.71-10.316 13.698-11.901 23.078-6.04 9.38 5.861 12.373 15.144 8.731 24.011-3.642 8.867-14.856 13.247-24.236 7.386z"/>
        <path fill="#D4A181" d="M400.007 383.083c-5.72 3.284-13.224 15.99-10.366 19.002 1.14 1.202 4.575 2.15 8.636 2.21l-10.056 11.975 10.925 6.826 7.228-19.935c3.64-1.16 6.952-3.299 8.834-6.839 5.423-10.2-9.481-16.523-15.201-13.24z"/>
        <path fill="#DB2721" d="M399.334 382.7c1.844 1.7 4.801 6.33 6.362 11.297a3.347 3.347 0 011.542.504c1.548.967 2.036 2.977 1.09 4.49a3.17 3.17 0 01-1.59 1.296c-.022 1.513-.29 2.95-.882 4.228 2.302 1.438 16.16-2.05 12.929-15.498-3.232-13.448-22.657-9.271-19.45-6.316z"/>
        <g>
          <path fill="#D4A181" d="M393.097 467.907l-20.195 65.887-9.783 56.033h-7.67l10.337-121.92z"/>
          <path fill="#000" fill-opacity=".1" d="M393.097 467.907l-20.195 65.887-9.783 56.033h-7.67l10.337-121.92z"/>
          <path fill="#D4A181" d="M400.322 467.907c-1.372 36.175.242 54.835.55 58.122.306 3.287 4.51 24.598 14.463 64.901l-8.174-2.801c-15.729-36.964-21.088-56.175-22.892-61.029-1.804-4.854-6.595-24.585-14.374-59.193h30.427z"/>
          <path fill="#E4E4E4" d="M415.615 588.792c.37 1.09.554 1.94.554 2.547 0 .947-.162 2.329-.487 4.145h-30.513c-.793-2.544-.335-3.917 1.373-4.12 1.709-.203 3.128-.386 4.258-.55l13.766-5.955a1 1 0 011.318.526l.73 1.72c1.581.715 2.866 1.073 3.855 1.073.645 0 1.486-.202 2.525-.608a2 2 0 012.621 1.222zM365.168 588.792c.37 1.09.555 1.94.555 2.547 0 .947-.163 2.329-.488 4.145h-30.512c-.793-2.544-.336-3.917 1.373-4.12 1.708-.203 3.127-.386 4.257-.55l13.767-5.955a1 1 0 011.317.526l.73 1.72c1.582.715 2.867 1.073 3.856 1.073.644 0 1.486-.202 2.524-.608a2 2 0 012.621 1.222z"/>
          <path fill="#69A1AC" d="M395.78 467.907l-8.586 33.568h-26.227l3.91-33.568z"/>
          <path fill="#89C5CC" d="M400.61 467.907c2.826 8.451 3.362 19.64 1.61 33.568h-26.763l-7.36-33.568h32.513z"/>
        </g>
        <g>
          <path fill="#D4A181" d="M412.993 467.025l-11.02-1.899c2.931 23.136 4.55 35.422 4.856 36.86.687 3.235-2.705 7.38-4.244 9.657 3.31 2.24 3.977-3.78 8.14-.872 3.799 2.654 6.332 6.695 11.634 4.59.651-.259 1.536-1.51.168-2.85-3.41-3.341-8.177-8.977-8.663-10.64-.661-2.27-.952-13.885-.87-34.846zm-64.471-11.807l-18.987 9.371c-4.776.426-8.855 1.284-12.237 2.574-.839.53-1.947 1.71 1.09 2.007l.554.056c2.859.3 5.68.759 5.9 1.787.233 1.094-1.796 1.996-1.203 3.522.395 1.017 3.434-.823 9.116-5.52l17.864-3.962-2.097-9.835z"/>
          <path fill="#E87613" d="M389.837 415.327l-4.42-1.585c-19.482 11.614-31.37 38.43-54.716 49.63l3.899 7.059c36.74 1.89 51.683-30.74 55.237-55.104z"/>
          <path fill="#DDE3E9" d="M399.613 476.058l-40.324-7.11c-1.842-.325-1.026-2.922-.524-4.217 5.805-14.941 20.748-29.516 24.634-51.556l11.952.229c6.895 17.157 6.865 36.78 4.262 62.654z"/>
          <path fill="#FF9B21" d="M396.227 413.558a7.418 7.418 0 00-1.087-.117l-3.685-.434c-16.519 33.202-23.587 56.171-21.206 68.907l.076.383 31.738 5.597c1.107 4.713 2.257 8.716 3.447 12.01l8.648 1.525c5.451-26.153 3.13-49.576-6.964-70.268 1.775-.186 3.313-1.082 4.613-2.686 5.603-6.916 4.811-11.407.513-13.595-4.299-2.189-8.854-.046-16.093-1.322z"/>
          <path fill="#000" fill-opacity=".1" d="M390.284 485.816l11.779 2.078c-1.293-5.498-2.529-11.961-3.708-19.39-2.47 8.17-5.16 13.94-8.07 17.312z"/>
        </g>
      </g>
      <g mask="url(#b)">
        <use fill="#000" filter="url(#g)" xlink:href="#h"/>
        <use fill="#0E3CC8" stroke="#2F5DE9" xlink:href="#h"/>
      </g>
    </g>
    <g transform="translate(1 1)">
      <use fill="#000" filter="url(#i)" xlink:href="#j"/>
      <use stroke="#2F5DE9" xlink:href="#j"/>
    </g>
    <path fill="#B28B67" d="M253.723 35.49c-2.271 6.193.148 20.75 4.273 21.22 1.646.188 4.886-1.293 8.036-3.858l-.006 15.637 12.757-1.793-7.277-19.917c2.044-3.229 3.205-6.996 2.371-10.917-2.402-11.3-17.884-6.563-20.154-.371z"/>
    <g transform="scale(-1 1) rotate(8 -296.82 -1991.702)">
      <mask id="l" fill="#fff">
        <use xlink:href="#k"/>
      </mask>
      <use fill="#89C5CC" xlink:href="#k"/>
      <path fill="#000" fill-opacity=".2" d="M18.314-.678c-1.75 7.41-3.107 12.597-4.071 15.565-.977 3.007-1.773 5.555-2.457 7.64 1.41-3.13 3.221-7.147 4.86-11.267 1.175-2.955 2.426-6.74 3.751-11.353h1.595c-2.513 7.185-4.403 12.202-5.67 15.052-2.04 4.585-3.505 8.067-4.673 10.404 1.956-2.876 4.963-7.567 8.17-13.875 1.215-2.391 2.646-6.053 4.293-10.985l1.485.637c-2.493 6.243-4.42 10.596-5.778 13.06-4.43 8.03-8.66 12.876-10.14 14.252-.255.238-.34.293-.28.17-.02-.002-.035-.014-.045-.036a3.785 3.785 0 01-.31.416c-1.491 1.71 2.324-7.826 5.136-17.828.861-3.062 1.71-6.957 2.548-11.685l1.586-.167z" mask="url(#l)"/>
    </g>
    <path fill="#1F28CF" d="M289.176 109.753l-16.07 71.067-10.921 52.25-10.213 1.435 8.148-120.668z"/>
    <path fill="#2B44FF" d="M295.49 108.866c3.532 23.113 7.712 54.312 8.562 55.664.567.901 15.527 9.978 44.881 27.228l-4.008 9.673c-34.188-15.77-52.273-24.888-54.253-27.35-2.971-3.695-20.265-39.103-29.663-60.369l34.482-4.846z"/>
    <path fill="#191847" d="M358.66 196.22l-9.636-5.383-6.02 9.635c.262 6.515-.942 14.056-3.612 22.622l1.781 1.112 10.894-17.433 2.836-6.52.89.556 2.867-4.588zM264.415 242.064l-2.07-10.842-11.25 1.581c-4.823 4.39-11.373 8.314-19.65 11.775l.292 2.08 20.357-2.862 6.818-2.018.146 1.04 5.357-.754z"/>
    <g>
      <path fill="#D4A181" d="M243.148 96.824l-15.16 14.78c-4.412 1.88-8.026 3.957-10.844 6.23-.633.763-1.323 2.227 1.658 1.572 2.98-.656 6.146-1.21 6.706-.242.56.969-1.091 2.453-.056 3.721.69.845 3.012-1.844 6.966-8.066l15.765-9.29-5.035-8.705zm-39.443-40.976c2.317 1.985 4.665 4.177 4.227 5.207-.437 1.03-2.617.606-3.007 2.195-.26 1.06 3.286 1.294 10.637.704l16.91 6.99 3.928-9.259-20.934-3.202c-4.157-2.389-7.991-4.023-11.502-4.904-.992-.046-2.576.285-.26 2.27z"/>
      <path fill="#E87613" d="M264.71 59.73c-6.795 18.445-18.258 33.464-35.636 49.845l8.464 7.206c20.423-11.03 31.117-17.456 34.424-34.446.83-4.264-.012-17.368-.13-24.307l-7.122 1.701z"/>
      <path fill="#F2F2F2" d="M298.476 113.258l-40.806 5.735c5.285-29.468 7.29-49.466 6.014-59.992-.065-.536.792-1.619 1.247-1.557 3.327.454 6.704-.365 10.132-2.457 11.858 14.188 17.894 32.859 23.413 58.271z"/>
      <path fill="#FF9B21" d="M218.35 58.098l-.644 11.092c18.035 8.306 35.942 14.187 50.455 10.955-2.535 28.214.902 50.535 14.972 48.557l21.758-3.057c.194-23.692-13.41-54.592-24.11-69.638-.409-.574-1.258-1.646-2.87-1.42l-6.322.889-.005.027c-11.683 1.738-30.36 6.54-53.234 2.595z"/>
    </g>
  </g>
</svg>
