<svg xmlns="http://www.w3.org/2000/svg" xmlns:xlink="http://www.w3.org/1999/xlink" viewBox="0 0 202 193">
  <defs>
    <path id="m" d="M9.167.407C1.98 1.207-1.708 5.7.929 10.445l4.766 2.845c-1.546-2.78.617-5.415 4.828-5.883 4.212-.47 8.88 1.405 10.425 4.186 1.545 2.78-.617 5.416-4.829 5.884-4.211.468-8.879-1.406-10.424-4.187L.93 10.445c2.637 4.745 10.6 7.942 17.786 7.143 5.586-.621 9.058-3.476 9.09-6.944v-.093c-.009-.966-.283-1.978-.852-3.001C24.588 3.295 17.942.284 11.411.284c-.751 0-1.502.04-2.244.123"/>
  </defs>
  <defs>
    <use xlink:href="#m"/>
    <use id="o" xlink:href="#m"/>
    <use id="q" xlink:href="#m"/>
    <use id="s" xlink:href="#m"/>
    <use id="u" xlink:href="#m"/>
    <use id="w" xlink:href="#m"/>
    <use id="y" xlink:href="#m"/>
    <use id="A" xlink:href="#m"/>
    <use id="C" xlink:href="#m"/>
    <use id="E" xlink:href="#m"/>
    <use id="G" xlink:href="#m"/>
    <use id="I" xlink:href="#m"/>
    <use id="K" xlink:href="#m"/>
    <use id="M" xlink:href="#m"/>
    <use id="O" xlink:href="#m"/>
    <use id="Q" xlink:href="#m"/>
    <use id="S" xlink:href="#m"/>
    <use id="U" xlink:href="#m"/>
    <use id="W" xlink:href="#m"/>
    <use id="Y" xlink:href="#m"/>
    <use id="aa" xlink:href="#m"/>
    <use id="ac" xlink:href="#m"/>
    <use id="ae" xlink:href="#m"/>
    <use id="ag" xlink:href="#m"/>
    <use id="ai" xlink:href="#m"/>
    <use id="ak" xlink:href="#m"/>
    <use id="am" xlink:href="#m"/>
    <use id="ao" xlink:href="#m"/>
    <use id="aq" xlink:href="#m"/>
    <use id="as" xlink:href="#m"/>
    <use id="au" xlink:href="#m"/>
    <use id="aw" xlink:href="#m"/>
    <use id="ay" xlink:href="#m"/>
    <use id="aA" xlink:href="#m"/>
    <use id="aC" xlink:href="#m"/>
    <use id="aE" xlink:href="#m"/>
    <use id="aG" xlink:href="#m"/>
    <use id="aI" xlink:href="#m"/>
    <use id="aK" xlink:href="#m"/>
    <use id="aM" xlink:href="#m"/>
    <use id="aO" xlink:href="#m"/>
    <use id="aQ" xlink:href="#m"/>
    <use id="aS" xlink:href="#m"/>
    <use id="aU" xlink:href="#m"/>
    <use id="aW" xlink:href="#m"/>
    <use id="aY" xlink:href="#m"/>
    <use id="ba" xlink:href="#m"/>
    <use id="bc" xlink:href="#m"/>
    <use id="be" xlink:href="#m"/>
    <use id="bg" xlink:href="#m"/>
    <use id="bi" xlink:href="#m"/>
    <use id="bk" xlink:href="#m"/>
    <use id="bm" xlink:href="#m"/>
    <use id="bo" xlink:href="#m"/>
    <use id="bq" xlink:href="#m"/>
    <path id="d" d="M.341.423h10.626V25H.341z"/>
    <path id="g" d="M.493.146h.365v.481H.493z"/>
    <path id="i" d="M0 .203h34.113v26.049H0z"/>
    <path id="bs" d="M.077.284h27.728V17.71H.077z"/>
    <path id="bu" d="M0 .329h68.948v85.335H0z"/>
    <filter id="a" width="111.8%" height="117.5%" x="-5.9%" y="-8.7%" filterUnits="objectBoundingBox">
      <feGaussianBlur in="SourceGraphic" stdDeviation="3"/>
    </filter>
    <filter id="b" width="379.2%" height="234.1%" x="-126.6%" y="-54.9%" filterUnits="objectBoundingBox">
      <feOffset in="SourceAlpha" result="shadowOffsetOuter1"/>
      <feGaussianBlur in="shadowOffsetOuter1" result="shadowBlurOuter1" stdDeviation="10"/>
      <feColorMatrix in="shadowBlurOuter1" result="shadowMatrixOuter1" values="0 0 0 0 0 0 0 0 0 0 0 0 0 0 0 0 0 0 0.3 0"/>
      <feMerge>
        <feMergeNode in="shadowMatrixOuter1"/>
        <feMergeNode in="SourceGraphic"/>
      </feMerge>
    </filter>
    <filter id="c" width="382.3%" height="222.1%" x="-141.2%" y="-61%" filterUnits="objectBoundingBox">
      <feGaussianBlur in="SourceGraphic" stdDeviation="5"/>
    </filter>
    <linearGradient id="e" x1="43.358%" x2="56.417%" y1="41.825%" y2="47.574%">
      <stop offset="0%" stop-color="#7E7B74"/>
      <stop offset="55.472%" stop-color="#969696"/>
      <stop offset="100%" stop-color="#757575"/>
    </linearGradient>
    <linearGradient id="l" x1="82.17%" x2="15.263%" y1="66.733%" y2="54.04%">
      <stop offset="0%" stop-color="#9E7100"/>
      <stop offset="16.588%" stop-color="#E69500"/>
      <stop offset="48.832%" stop-color="#FFD48B"/>
      <stop offset="77.936%" stop-color="#FFA100"/>
      <stop offset="100%" stop-color="#BC8000"/>
    </linearGradient>
    <radialGradient id="j" cx="57.157%" cy="60.538%" r="61.682%" fx="57.157%" fy="60.538%" gradientTransform="matrix(0 1 -.73292 0 1.015 .034)">
      <stop offset="0%" stop-color="#FFD48B"/>
      <stop offset="53.262%" stop-color="#FFA100"/>
      <stop offset="100%" stop-color="#9E7100"/>
    </radialGradient>
  </defs>
  <g fill="none" fill-rule="evenodd">
    <path fill="#000" d="M137.063 53.715S78.302 89.986.139 103c0 0 141.635-16.336 152.722-34.61 0 0-13.304-8.307-25.83-68.252l10.032 53.577" filter="url(#a)" opacity=".37" transform="translate(49 90)"/>
    <path fill="#F8CE64" d="M25 53.725C30.83 53.45 165.181 33 165.181 33L186 143.812S119.38 182.775 48.872 193L25 53.725z"/>
    <path fill="#AB882F" d="M176.104 134S169.39 151.5 134 169c0 0 48.819-16.805 51.896-24.8 1.159-1.952-7.71-8.722-9.792-10.2"/>
    <g filter="url(#b)" transform="translate(83)">
      <path fill="#000" d="M28.624 52.495a1.252 1.252 0 00-.014-.223c-.004-.029-.007-.057-.014-.086a1.42 1.42 0 00-.044-.152c-.008-.024-.014-.049-.024-.074a1.66 1.66 0 00-.11-.229 2.152 2.152 0 00-.148-.221l-.008-.012c-.02-.026-.044-.05-.066-.077-.031-.037-.062-.075-.096-.111l-.012-.015a2.955 2.955 0 00-.16-.154l-.002-.002-.011-.01a3.61 3.61 0 00-.138-.116l-.046-.034-.05-.038-.055-.04c-.05-.035-.1-.07-.152-.103h-.003l-.005-.005a3.304 3.304 0 00-.146-.088l-.082-.046c-.015-.007-.028-.015-.042-.023l-.032-.018a4.993 4.993 0 00-.161-.08l-.045-.021-.048-.022-.075-.034a5.075 5.075 0 00-.174-.072l-.009-.003-.022-.008a5.364 5.364 0 00-.155-.058l-.096-.032-.059-.02c-.014-.003-.028-.009-.043-.013a6.076 6.076 0 00-.213-.062l-.02-.004c-.02-.006-.042-.01-.062-.015-.052-.013-.103-.027-.156-.038-.023-.006-.046-.009-.069-.014a5.011 5.011 0 00-.116-.023l-.09-.018-.081-.011a6.394 6.394 0 00-.19-.027l-.084-.012c-.015-.001-.03 0-.045-.002a5.6 5.6 0 00-.506-.029h-.082a5.093 5.093 0 00-.834.07l-.008.002-.09.019c-.035.007-.07.116-.104.124-.039.008-.08.126-.117.126h-.001a.73.73 0 00-.23.033c-.002 0-.004-.033-.005-.033h-.001c-.008 0-.015-.06-.023-.058-.019.007-.037-.019-.056-.013-.037.014-.076.01-.113.026-.024.01-.047.012-.07.022-.019.008-.036.006-.054.014a.101.101 0 01-.04.009h-.002c-.002 0-.003.007-.004.008-.048.023-.095.05-.139.074l-.015.01-.027.017c-.03.017-.06.034-.088.052-.01.007-.019.014-.03.02l-.02.016c-.012.007-.024.015-.034.023l-.021.014-.011.008a1.861 1.861 0 00-.108.084l-.039.035a1.202 1.202 0 00-.026.024l-.014.013-.019.016c-.031.03-.061.062-.09.094l-.012.015-.019.024-.05.062-.005.008-.007.01a1.326 1.326 0 00-.037.055l-.016.024-.008.012a1.221 1.221 0 00-.065.12l-.009.022-.006.012-.013.034c-.009.022-.019.044-.026.067-.006.017-.01.035-.014.052-.007.023-.013.045-.018.068-.003.013-.008.026-.01.04l-.001.004L18.017 71.9c-.003.016-.002.033-.005.05a1.307 1.307 0 00-.011.217c.002.046.007.091.014.137.004.029.007.057.014.086.01.05.027.101.044.152.008.024.014.049.024.073a1.73 1.73 0 00.258.451l.008.012c.02.026.044.05.066.077.031.037.062.075.096.111l.013.015a2.955 2.955 0 00.161.156l.012.01c.044.04.09.078.138.116.014.012.03.023.045.034l.05.037.055.042a3.753 3.753 0 00.155.103l.004.003.147.09.083.045.04.023.033.018a5.59 5.59 0 00.207.101l.047.022.075.034a5.695 5.695 0 00.183.075l.022.009c.051.02.103.039.155.057l.098.032.057.019.043.014c.07.022.142.043.214.062l.02.005.06.014c.052.013.104.027.157.038l.07.014.115.023.09.018.083.011c.062.01.125.019.188.027l.084.011c.015.002.03.001.046.003.168.017.336.027.505.03l.082-.002a5.1 5.1 0 00.834-.07l.008-.001c.031-.005.06-.013.09-.019.035-.007.07-.044.104-.052.039-.009.08-.055.117-.055h.001c.08 0 .157-.009.232-.033l.003.033h.001c.008 0 .016-.011.024-.014.018-.006.036-.016.055-.023.038-.013.077-.028.113-.043l.07-.032c.018-.007.037-.015.054-.024l.04-.017.002-.001.004-.002c.048-.023.094-.047.14-.072l.014-.009.028-.016.086-.051.03-.02a.864.864 0 00.022-.016l.033-.023.022-.014.01-.008c.038-.027.074-.055.108-.084l.039-.035.027-.024a.354.354 0 00.014-.013l.018-.016c.031-.031.061-.062.09-.094l.011-.015a.47.47 0 00.02-.024c.017-.02.035-.041.05-.062a.072.072 0 01.005-.008l.007-.01.037-.055.016-.024.008-.012c.024-.04.046-.08.065-.12l.009-.022.006-.012.013-.035c.009-.022.02-.043.027-.065l.013-.053c.007-.023.013-.045.018-.068.003-.013.008-.026.01-.04l.001-.003.593-3.19.154-.825.568-3.059.45-2.414.717-3.863.57-3.059c.05-.277.102-.551.153-.824l.593-3.19c.003-.016.002-.034.004-.05.006-.043.01-.087.011-.131" filter="url(#c)" opacity=".729" transform="rotate(103 23.313 62.289)"/>
      <g transform="translate(9.86 32.52)">
        <mask id="f" fill="#fff">
          <use xlink:href="#d"/>
        </mask>
        <path fill="url(#e)" d="M10.966 2.918a1.252 1.252 0 00-.014-.223c-.004-.029-.008-.057-.014-.086a1.42 1.42 0 00-.045-.152c-.007-.024-.014-.049-.024-.074a1.66 1.66 0 00-.11-.229 2.152 2.152 0 00-.148-.221l-.007-.012c-.02-.026-.045-.05-.066-.077-.032-.037-.062-.075-.096-.111l-.013-.015a2.955 2.955 0 00-.159-.154l-.003-.002-.011-.01a3.61 3.61 0 00-.138-.116l-.046-.034-.05-.038-.055-.04c-.05-.036-.1-.07-.152-.103h-.002l-.006-.005a3.303 3.303 0 00-.145-.088l-.083-.046-.042-.023-.032-.018a4.993 4.993 0 00-.16-.08L9.298.94 9.251.918 9.176.884a5.075 5.075 0 00-.174-.072L8.994.809 8.97.8a5.364 5.364 0 00-.154-.057L8.72.71l-.058-.02C8.648.689 8.633.683 8.619.679a6.076 6.076 0 00-.214-.062l-.02-.004c-.02-.006-.042-.01-.062-.015C8.271.584 8.22.57 8.167.559 8.145.553 8.122.55 8.1.545a5.012 5.012 0 00-.117-.023l-.09-.018L7.81.493a6.394 6.394 0 00-.19-.027L7.538.454c-.014-.001-.03 0-.045-.002a5.6 5.6 0 00-.505-.03l-.082.002a5.093 5.093 0 00-.834.07l-.009.001c-.03.005-.06.013-.09.019-.035.007-.07.116-.104.123-.038.01-.079.126-.116.126H5.75a.73.73 0 00-.23.034c-.002 0-.003-.034-.005-.034-.009 0-.016-.06-.024-.057-.019.007-.036-.019-.055-.013-.038.014-.077.01-.113.026-.025.01-.047.012-.071.022-.018.008-.036.006-.054.014a.101.101 0 01-.04.008h-.002c-.001 0-.002.008-.004.009-.047.023-.094.05-.139.074l-.015.01-.027.017c-.03.017-.06.034-.087.052l-.03.02-.021.016-.034.023-.02.014a1.86 1.86 0 00-.119.092l-.04.035a1.202 1.202 0 00-.026.024l-.014.013-.018.016c-.032.03-.062.062-.09.094l-.012.015a1.052 1.052 0 01-.02.024c-.017.02-.034.04-.05.062l-.005.008-.006.01a1.326 1.326 0 00-.037.055l-.017.024-.008.012a1.221 1.221 0 00-.064.12l-.01.022-.006.012c-.004.012-.007.023-.012.034-.01.022-.02.044-.027.067-.006.017-.009.035-.014.052-.006.023-.013.045-.017.068-.003.013-.008.026-.01.04l-.002.003L.358 22.324c-.003.016-.002.033-.005.05a1.307 1.307 0 00-.01.217c.001.046.007.091.013.137.004.029.008.057.014.085.011.05.027.102.044.153.009.024.015.049.024.073a1.73 1.73 0 00.258.45l.008.013c.02.026.045.05.067.077.03.037.061.075.095.11l.013.016c.05.053.103.104.159.154l.003.002.011.01c.044.04.09.078.138.116l.046.034.05.037.055.042a3.753 3.753 0 00.306.195l.082.046.041.023.032.018a5.59 5.59 0 00.207.101l.047.022.076.034a5.694 5.694 0 00.182.075l.022.009c.051.02.103.039.155.057l.098.032.057.019.043.014c.07.022.142.043.214.062l.02.005.06.014c.053.013.104.027.157.038l.07.014.115.022.091.019.082.011c.063.01.125.019.188.027l.085.011c.014.002.03.001.045.003.168.017.337.027.505.03l.082-.002a5.1 5.1 0 00.834-.07l.009-.001c.03-.005.06-.013.09-.019.035-.007.07-.044.104-.052.038-.009.079-.055.117-.055.08 0 .157-.009.232-.033l.003.033h.002c.008 0 .015-.011.023-.014.019-.006.036-.016.055-.023l.114-.043.07-.032.054-.024.04-.017.002-.001.003-.002c.048-.023.095-.047.14-.072l.015-.009.028-.016.086-.051.03-.02a.864.864 0 00.022-.016l.033-.023.021-.014.011-.008c.038-.027.073-.055.108-.084l.038-.035.027-.024a.354.354 0 00.014-.013l.018-.016c.032-.031.062-.062.09-.094l.012-.015.02-.024.05-.062a.072.072 0 01.005-.008l.007-.01.036-.055.017-.024.008-.012c.024-.04.045-.08.064-.12l.01-.022.006-.012c.004-.012.007-.024.012-.035.01-.022.02-.043.027-.065.006-.018.009-.036.014-.053.006-.023.013-.045.018-.068.002-.013.007-.026.01-.04v-.003l.594-3.19.153-.825.569-3.059.449-2.414.718-3.863.569-3.059.153-.825.593-3.189c.003-.016.002-.034.005-.05.005-.043.01-.087.01-.131" mask="url(#f)"/>
      </g>
      <g transform="translate(0 31.558)">
        <mask id="h" fill="#fff">
          <use xlink:href="#g"/>
        </mask>
        <path fill="#FFE5AC" d="M.594.48L.59.495.633.28.593.48" mask="url(#h)"/>
      </g>
      <g transform="translate(.493 19.058)">
        <mask id="k" fill="#fff">
          <use xlink:href="#i"/>
        </mask>
        <path fill="url(#j)" d="M33.992 16.776c.01-.134.013-.286.013-.44l.003-.074-.002-.107c-.002-.236-.008-.474-.007-.676a9.385 9.385 0 00-.097-1.206l-.005-.05-.012-.098-.02-.17-.017-.103a13.295 13.295 0 00-.995-3.511c-.01-.02-.018-.042-.027-.063-.044-.098-.083-.196-.13-.295l-.039-.076-.027-.06a5.968 5.968 0 00-.034-.076l-.002-.006-.002-.002a11.65 11.65 0 00-.53-1.011 11.62 11.62 0 00-.353-.585l-.018-.026a14.754 14.754 0 00-1.782-2.286c-.066-.072-.132-.143-.197-.21l-.003-.003c-.122-.129-.245-.25-.369-.37a15.654 15.654 0 00-3.337-2.502l-.059-.035-.142-.077a26.635 26.635 0 00-.668-.362c-.26-.14-.617-.31-.89-.424-.236-.098-.537-.234-.788-.33a17.283 17.283 0 00-1.724-.58l-.025-.008a15.102 15.102 0 00-.695-.182l-.111-.028c-.016-.004-.031.008-.047.005-.001-.001-.002.015-.003.015h-.002l-.002-.017c-.103-.024-.2-.054-.297-.075a18.345 18.345 0 00-7.848-.087c-.137.027-.274.054-.404.084a15.75 15.75 0 00-3.124 1.017 74.4 74.4 0 00-.38.17c-.283.127-.647.323-.924.463a9.66 9.66 0 00-.44.245c-.166.097-.33.197-.47.287-.085.055-.219.141-.381.25l-.103.067a8.123 8.123 0 00-.363.257c-.013.01-.027.018-.04.027l-.008.006c-.312.226-.665.498-1.01.8-.1.086-.197.176-.295.265-.179.169-.328.313-.467.449l-.04.039-.056.053a.087.087 0 00-.01.01c-.112.113-.229.225-.337.342a13.017 13.017 0 00-2.216 3.145c-.035.065-.076.135-.108.198-.118.214-.233.46-.344.717-.145.322-.282.652-.378.938-.017.049-.034.106-.05.157-.07.195-.135.385-.194.56a9.177 9.177 0 00-.18.625c-.092.337-.171.697-.282 1.238l-.007.05c-.023.131-.04.264-.054.396-.004.043-.012.085-.016.128a5.974 5.974 0 00-.021.531c0 .045.004.09.006.135.003.135.01.27.022.407.006.065.016.131.025.197.014.117.03.235.052.353.013.072.03.144.044.217a6.628 6.628 0 00.147.564c.036.116.076.233.118.35.026.071.05.142.078.214.05.127.107.254.165.382.028.062.053.123.083.185a9.26 9.26 0 00.593 1.048l.014.02.012.018c.004.008.009.014.013.02l.013.02c0 .002.002.004.003.005l.01.014.01.016.02.027.014.024.018.024.026.038.018.027.017.024.02.028.013.019.029.038.04.056.035.052.03.039.027.037.031.04c.01.012.018.025.027.037l.007.01c.007.009-.105.018-.098.027.005.007-.104.014-.104.021v-.002c.493.022.154.044.171.066.011.015.081.03.093.045.013.016.056.031.07.047.015.02.045.04.06.06.01.01.026.022.035.033.002.004.009.007.012.01l.02.023.035.04.031.039a1.326 1.326 0 01.05.058l.022.025.025.03.012.014.037.042.031.036.06.068c.02.021.038.044.057.065a.097.097 0 00.007.008l.01.01c.015.018.033.035.049.052a.053.053 0 01.005.006c.02.021.038.043.057.065l.004.004.058.06.051.055.028.03c.001.003.003.004.005.006l.003.004.006.005.047.048.044.045.036.039.005.005.008.007.013.013.005.005.052.051.015.014.02.021c.017.016.032.033.048.05l.011.01.005.005.028.026.055.051.012.012.068.068.035.033.037.035.027.025.019.018.044.039a.011.011 0 00.004.003l.038.037.056.05c.019.016.037.034.055.052a.127.127 0 00.01.007l.06.052.053.048.02.019c.013.01.028.021.04.033l.023.02c.01.009.021.02.033.029l.01.01.027.021.046.039.063.053.06.05.058.049.021.018.008.006.061.048.074.06c.025.02-.04.04-.014.06.003.002-.08.004-.08.007v.21h.177c.01 0 .02-.089.031-.08.007.005.014-.042.021-.036.013.01.027-.007.04.004.023.018.046.022.069.04.017.013.034.02.051.033l.055.038.048.036.01.007.031.022.07.05.105.08c.016.01.032.022.048.034l.044.031.05.037.021.015.031.022.018.013.067.046.088.062c.023.017.047.032.07.048l.068.047.024.016.019.013c.013.01.027.018.04.027l.085.056c.047.03.093.062.14.093l.069.044.05.033c.01.006-.079.012-.07.018.002.001-.09.003-.09.005h.098c.01.006.067.012.077.018.01.006.044.012.054.018.015.01.042.02.057.03.01.005.026.011.036.017.015.01.034.02.05.029l.153.093.097.06.073.044.057.034c.019.01.036.022.054.033l.015.008.027.016.048.028c.014.008.044.016.057.023.005.003.033.007.033.01v-.002c0 .012.026.024.047.036.012.007.015.013.026.02.035.02.065.042.1.061l.098.056c.04.021.076.043.114.065l.037.02.04.024a.054.054 0 01.008.004l.018.01.154.08c.033.017.064.036.097.054l.003.001c.02.011.042.02.063.032l.086.045.12.061.07.037.02.01.012.007.037.018.135.066.181.088c.026.012.05.026.075.038v-.001l.101.048.09.044.042.018.038.019.009.004.017.008.064.029c.034.015.069.03.102.046a29.357 29.357 0 00.187.084c.045.019.088.04.132.059l.05.022-.002-.002.114.05.053.023.027.011a.07.07 0 00.009.004c.105.045.214.087.32.13l.029.012c.055.023.11.047.166.069l.088.035.063.026.034.013.055.021.026.01.02.008c.075.029.152.055.227.083.166.063.331.125.5.184l.05.02v-.002l.054.02a.212.212 0 01.02.006l.023.009a.318.318 0 01.02.006c.064.023.13.042.195.064l.011.004c.171.057.343.114.516.168.049.015.097.033.147.048l-.002-.002.107.034.035.01.08.024.116.034c.171.05.344.098.518.146.067.018.133.039.2.057l-.002-.003.135.038.073.018.114.028.033.008.24.06c.162.039.325.078.488.115l.08.02-.002-.004.074.016c.093.02.186.041.28.06l.106.023c.038.008.074.017.112.024.238.048.479.092.719.134l.087.017-.002-.001a43.46 43.46 0 00.58.092c.379.057.758.109 1.14.151l.016.002h-.002c1.92.21 3.87.229 5.776.024a23.35 23.35 0 001.021-.135l.273-.044c.058-.01.118-.018.177-.029l-.006.003.053-.01c.198-.035.39-.074.583-.113.06-.012.122-.023.181-.036l.13-.028c.065-.014.128-.031.193-.046.161-.037.323-.073.48-.114l.007-.002.107-.03.135-.036.21-.06c.102-.029.206-.057.308-.088l.24-.078.024-.008c.047-.015.096-.027.142-.043l.023-.008.085-.03a11.132 11.132 0 00.445-.16c.072-.026.145-.052.217-.08.034-.013.069-.025.103-.039l.034-.014.054-.022-.002.002.122-.052.18-.076.15-.064.098-.044.125-.058.105-.049.034-.015a.04.04 0 00.007-.003c.01-.004.017-.008.025-.013l.027-.013.099-.048.09-.044.065-.033.111-.059c.061-.03.12-.063.18-.095l.105-.057.003-.001-.002.002.021-.013.057-.03a.947.947 0 01.038-.021c.011-.008.023-.015.036-.022l.077-.045c.094-.055.185-.111.277-.168.042-.027.107-.051.148-.078.003-.002.03.039.03.037v.043h-.038l.003-.045c.002-.002.005-.025.009-.028.003-.002.007-.015.01-.017.004-.002.007-.01.01-.012.013-.008.025-.019.037-.027.031-.02.061-.042.092-.063l.04-.025.028-.02.04-.03.108-.074c.043-.03.088-.059.13-.09l.02-.013.012-.01c.012-.007.022-.015.033-.024l.008-.005v.001l.008-.007.031-.023.058-.045c.035-.025.067-.052.1-.078l.03-.022.09-.069.054-.041.01-.01h.002l.003-.003.033-.028.08-.067.033-.026v.002c.002-.002.004-.005.007-.006l.032-.03.046-.039.063-.056c.029-.025.058-.049.085-.074a.817.817 0 00.023-.02l.015-.013.03-.03.02-.018c.013-.013.03-.025.044-.039l.001-.001c.022-.02.04-.042.062-.062.017-.017.038-.032.055-.05l.007-.007.025-.025.028-.028.044-.043.028-.03a1.426 1.426 0 01.045-.044l.061-.067.077-.08.038-.042.047-.05.02-.022a.572.572 0 00.006-.008l.003-.004a.214.214 0 00.014-.015l.003-.003v-.001l.01-.012.03-.035.046-.051.036-.045.036-.042.02-.025.02-.023.043-.055.04-.049a.328.328 0 00.01-.013c.02-.024.036-.05.055-.074l.03-.038.006-.007.004-.005.005-.008c.005-.005.008-.01.012-.016v.001l.006-.008.023-.032c.015-.02.027-.042.042-.062.024-.033.05-.065.073-.099l.006-.01.007-.01.011-.016.015-.023.05-.078.04-.058.002-.002.013-.023.023-.036.01-.015.027-.047.014-.022-.002.005.01-.018.022-.035.005-.008.008-.014.013-.024.032-.055.04-.07.021-.038.009-.015.018-.036.037-.07.03-.057.004-.007.002-.004.002-.005.01-.021.031-.065.02-.037.01-.024v.003l.006-.014.001-.003.028-.061.006-.013.01-.02a.483.483 0 01.01-.024l.001-.003a3.455 3.455 0 00.03-.069l.014-.03a.046.046 0 00.002-.005l.004-.01.01-.024.017-.047c.008-.018.017-.035.024-.054l.006-.017.018-.047.02-.051.015-.041.022-.063.016-.044.002-.004.011-.037-.002.008.008-.024.007-.02.01-.034.011-.033a.073.073 0 01.004-.011l.008-.03.01-.028.008-.032.011-.034.002-.009.007-.024.008-.026.005-.021.009-.032.006-.023.003-.01.006-.027c.01-.037.016-.074.025-.111.022-.09.044-.18.06-.272l.01-.061c.009-.052.016-.105.024-.157.024-.16.138-.323.159-.489l.181-.63v-.004c0-.002-.09-.005-.09-.007.005-.088-.035-.187-.03-.282.016-.16.007-.317.017-.47.001-.017-.02-.036-.018-.052" mask="url(#k)"/>
      </g>
      <path fill="url(#l)" d="M29.291 8.948l.448-2.41c.134-.72-.006-1.5-.461-2.292a5.105 5.105 0 00-.36-.538l-.02-.03c-.05-.064-.109-.124-.161-.187-.076-.09-.15-.181-.232-.269l-.031-.036a6.973 6.973 0 00-.392-.378l-.028-.024a8.334 8.334 0 00-.335-.283l-.112-.083-.12-.09-.135-.1a9.179 9.179 0 00-.368-.248l-.005-.003-.015-.009a9.763 9.763 0 00-.353-.215c-.066-.038-.134-.074-.201-.111a10.354 10.354 0 00-.1-.056l-.078-.043c-.129-.068-.26-.133-.393-.197l-.108-.05-.117-.053c-.06-.027-.12-.056-.181-.082-.14-.061-.28-.12-.424-.176l-.02-.007-.054-.02c-.124-.048-.25-.095-.376-.14-.077-.027-.156-.05-.234-.076l-.143-.048c-.035-.01-.068-.023-.103-.033a12.888 12.888 0 00-.52-.15L23.509.5c-.048-.013-.096-.023-.144-.035-.127-.032-.253-.065-.382-.093-.055-.012-.112-.022-.168-.033a13.16 13.16 0 00-.28-.055c-.074-.014-.147-.031-.222-.044-.065-.011-.131-.017-.197-.028a13.35 13.35 0 00-.46-.064c-.067-.009-.134-.021-.202-.029-.071-.007-.143-.01-.214-.018a12.91 12.91 0 00-.782-.05l-.295-.009c-.173-.002-.345 0-.517.005-.084.003-.168.002-.252.006a11.196 11.196 0 00-1.43.15l-.072.01c-.035.007-.067.016-.102.022a9.89 9.89 0 00-.59.127c-.027.007-.058.012-.086.02l-.038.01c-.183.048-.361.1-.533.157l-.002.001-.1.037a7.855 7.855 0 00-.366.134c-.137.055-.27.114-.398.175l-.004.002c-.016.007-.03.015-.045.023-.104.05-.206.102-.303.155l-.027.016c-.036.02-.07.042-.105.062-.061.036-.124.071-.182.109-.02.012-.036.024-.054.037-.04.025-.077.051-.114.078-.039.026-.08.052-.117.08-.029.02-.055.043-.083.065a4.595 4.595 0 00-.108.084l-.07.055c-.04.033-.076.069-.114.103l-.09.081-.033.03c-.06.058-.114.118-.168.177l-.043.045-.006.006c-.07.08-.137.162-.199.246l-.01.014-.06.089c-.036.053-.075.107-.108.161l-.016.03c-.026.044-.048.088-.071.132-.023.043-.049.085-.07.129l-.015.038c-.026.057-.048.115-.07.173-.015.04-.034.077-.047.116-.004.01-.005.02-.008.031a2.976 2.976 0 00-.084.319c-.002.013-.007.025-.01.038a.067.067 0 00-.002.01l-2.18 11.723c-.133.72.007 1.501.462 2.294.105.183.227.362.36.537.007.01.012.02.02.03.049.063.108.124.16.187.077.09.15.181.232.269.012.012.02.025.032.037.122.127.25.251.385.372l.006.006.03.024c.107.095.218.19.334.281.036.029.075.056.112.084l.12.09c.045.033.089.068.134.1a9.525 9.525 0 00.374.25l.015.01c.115.074.233.145.353.215.065.038.134.074.201.111l.1.056c.026.014.051.03.078.043.129.067.26.133.392.197l.11.05.115.053c.06.027.12.056.182.083.139.06.28.118.424.175l.02.007.052.02c.125.048.25.095.378.14l.234.076.143.048c.035.01.068.023.103.034.171.053.344.102.52.149l.049.012c.048.013.098.023.147.036.126.032.252.064.38.092.055.013.11.021.167.033.093.02.187.038.282.056.073.014.146.03.22.043.066.01.133.017.198.028.152.024.304.045.458.064.068.008.136.021.204.029.071.007.143.01.214.017a12.827 12.827 0 00.781.05c.099.004.198.009.296.01.173.002.345 0 .517-.005.084-.002.167-.002.251-.006.255-.011.509-.029.762-.056.23-.025.45-.058.668-.094l.073-.01c.035-.006.066-.016.1-.022.203-.038.4-.08.59-.127l.088-.019.038-.012c.183-.048.361-.099.533-.156h.002l.1-.038c.121-.042.241-.084.356-.13l.01-.003c.136-.056.27-.114.398-.175l.004-.003.045-.023c.103-.05.206-.101.303-.156.009-.004.017-.01.026-.015.036-.02.07-.042.106-.063.06-.036.123-.07.182-.108l.054-.037c.039-.025.076-.051.114-.078.039-.026.08-.052.117-.08.029-.02.055-.043.083-.064l.107-.085c.023-.018.048-.036.07-.055.04-.033.077-.069.115-.104l.089-.08.033-.03c.06-.058.114-.117.169-.177.014-.015.03-.03.042-.045l.007-.007c.07-.08.136-.161.198-.244l.01-.015c.021-.029.039-.058.059-.088.037-.054.076-.107.11-.162l.016-.03c.025-.044.047-.088.07-.131.023-.043.049-.086.07-.13.006-.012.01-.026.015-.038.027-.057.048-.115.07-.173.015-.039.034-.077.047-.116.004-.01.005-.021.009-.031.034-.104.06-.21.083-.317.002-.013.008-.026.01-.04l.002-.01.933-5.013.03-.168.77-4.133z" transform="translate(0 8)"/>
      <g>
        <g transform="translate(8)">
          <mask id="n" fill="#fff">
            <use xlink:href="#m"/>
          </mask>
          <path fill="#997219" d="M5.695 13.29L.929 10.445c.068.121.138.242.213.361l4.678 2.696a5.26 5.26 0 01-.125-.212" mask="url(#n)"/>
        </g>
        <g transform="translate(8)">
          <mask id="p" fill="#fff">
            <use xlink:href="#o"/>
          </mask>
          <path fill="#946D18" d="M5.82 13.502l-4.678-2.696c.23.37.494.73.786 1.079l4.353 2.25a5.51 5.51 0 01-.461-.633" mask="url(#p)"/>
        </g>
        <g transform="translate(8)">
          <mask id="r" fill="#fff">
            <use xlink:href="#q"/>
          </mask>
          <path fill="#8E6916" d="M6.28 14.134l-4.352-2.25c.411.49.88.957 1.4 1.4l3.773 1.67a6.942 6.942 0 01-.82-.82" mask="url(#r)"/>
        </g>
        <g transform="translate(8)">
          <mask id="t" fill="#fff">
            <use xlink:href="#s"/>
          </mask>
          <path fill="#896515" d="M7.1 14.954l-3.773-1.671c3.65 3.103 9.757 4.932 15.388 4.305 4.505-.501 7.635-2.454 8.694-5.01l-6.194 1.962c-.62 1.498-2.455 2.643-5.095 2.937-3.301.367-6.88-.704-9.02-2.523" mask="url(#t)"/>
        </g>
        <g transform="translate(8)">
          <mask id="v" fill="#fff">
            <use xlink:href="#u"/>
          </mask>
          <path fill="#8E6916" d="M21.215 14.54l6.194-1.962c.193-.466.318-.953.37-1.454l-6.348 2.564c-.03.294-.102.579-.216.852" mask="url(#v)"/>
        </g>
        <g transform="translate(8)">
          <mask id="x" fill="#fff">
            <use xlink:href="#w"/>
          </mask>
          <path fill="#946D18" d="M21.431 13.688l6.347-2.564a5.258 5.258 0 00-.003-1.092l-6.346 3.016c.024.217.024.43.002.64" mask="url(#x)"/>
        </g>
        <g transform="translate(8)">
          <mask id="z" fill="#fff">
            <use xlink:href="#y"/>
          </mask>
          <path fill="#997219" d="M21.43 13.048l6.345-3.016a5.808 5.808 0 00-.176-.924l-6.273 3.398c.05.183.085.364.103.542" mask="url(#z)"/>
        </g>
        <g transform="translate(8)">
          <mask id="B" fill="#fff">
            <use xlink:href="#A"/>
          </mask>
          <path fill="#9F751A" d="M21.326 12.507L27.6 9.108a6.666 6.666 0 00-.284-.817l-6.155 3.737c.067.16.123.32.166.479" mask="url(#B)"/>
        </g>
        <g transform="translate(8)">
          <mask id="D" fill="#fff">
            <use xlink:href="#C"/>
          </mask>
          <path fill="#A4791C" d="M21.16 12.028l6.155-3.737a7.687 7.687 0 00-.362-.742l-6.006 4.044c.081.146.152.29.213.435" mask="url(#D)"/>
        </g>
        <g transform="translate(8)">
          <mask id="F" fill="#fff">
            <use xlink:href="#E"/>
          </mask>
          <path fill="#AA7D1D" d="M20.947 11.593l6.006-4.044a8.62 8.62 0 00-.42-.678L20.7 11.195c.09.13.172.263.246.398" mask="url(#F)"/>
        </g>
        <g transform="translate(8)">
          <mask id="H" fill="#fff">
            <use xlink:href="#G"/>
          </mask>
          <path fill="#AF811D" d="M20.701 11.196l5.832-4.325a9.717 9.717 0 00-.463-.621l-5.64 4.582c.096.119.187.24.271.364" mask="url(#H)"/>
        </g>
        <g transform="translate(8)">
          <mask id="J" fill="#fff">
            <use xlink:href="#I"/>
          </mask>
          <path fill="#B4851F" d="M20.43 10.832l5.64-4.582a10.713 10.713 0 00-.505-.578l-5.43 4.82c.103.111.202.225.295.34" mask="url(#J)"/>
        </g>
        <g transform="translate(8)">
          <mask id="L" fill="#fff">
            <use xlink:href="#K"/>
          </mask>
          <path fill="#B88920" d="M20.134 10.493l5.431-4.82a11.778 11.778 0 00-.544-.545l-5.206 5.046c.111.104.218.21.32.319" mask="url(#L)"/>
        </g>
        <g transform="translate(8)">
          <mask id="N" fill="#fff">
            <use xlink:href="#M"/>
          </mask>
          <path fill="#BD8D21" d="M19.815 10.174l5.207-5.046c-.187-.175-.381-.346-.583-.514l-4.965 5.259c.118.098.232.198.341.3" mask="url(#N)"/>
        </g>
        <g transform="translate(8)">
          <mask id="P" fill="#fff">
            <use xlink:href="#O"/>
          </mask>
          <path fill="#C39123" d="M19.474 9.873l4.965-5.259c-.2-.166-.407-.328-.62-.487l-4.708 5.46c.125.093.246.188.363.286" mask="url(#P)"/>
        </g>
        <g transform="translate(8)">
          <mask id="R" fill="#fff">
            <use xlink:href="#Q"/>
          </mask>
          <path fill="#C89424" d="M19.11 9.587l4.71-5.46a14.924 14.924 0 00-.657-.46l-4.437 5.65c.132.088.26.178.385.27" mask="url(#R)"/>
        </g>
        <g transform="translate(8)">
          <mask id="T" fill="#fff">
            <use xlink:href="#S"/>
          </mask>
          <path fill="#CE9824" d="M18.726 9.317l4.437-5.65a16.455 16.455 0 00-.69-.435l-4.15 5.83c.137.083.272.168.403.255" mask="url(#T)"/>
        </g>
        <g transform="translate(8)">
          <mask id="V" fill="#fff">
            <use xlink:href="#U"/>
          </mask>
          <path fill="#D39C27" d="M18.322 9.063l4.152-5.83c-.23-.138-.467-.272-.708-.402l-3.858 5.997c.14.076.28.154.414.235" mask="url(#V)"/>
        </g>
        <g transform="translate(8)">
          <mask id="X" fill="#fff">
            <use xlink:href="#W"/>
          </mask>
          <path fill="#D8A127" d="M17.908 8.828l3.858-5.997c-.232-.125-.469-.245-.71-.362L17.49 8.615c.141.069.28.14.417.213" mask="url(#X)"/>
        </g>
        <g transform="translate(8)">
          <mask id="Z" fill="#fff">
            <use xlink:href="#Y"/>
          </mask>
          <path fill="#DDA428" d="M17.491 8.615l3.565-6.146c-.23-.112-.464-.22-.702-.323l-3.274 6.28c.14.061.277.124.411.19" mask="url(#Z)"/>
        </g>
        <g transform="translate(8)">
          <mask id="ab" fill="#fff">
            <use xlink:href="#aa"/>
          </mask>
          <path fill="#E2A92A" d="M17.08 8.426l3.274-6.28c-.226-.1-.455-.195-.687-.287l-2.99 6.4c.136.053.27.11.403.167" mask="url(#ab)"/>
        </g>
        <g transform="translate(8)">
          <mask id="ad" fill="#fff">
            <use xlink:href="#ac"/>
          </mask>
          <path fill="#E8AD2B" d="M16.677 8.258l2.99-6.398a22.984 22.984 0 00-.65-.246l-2.72 6.5c.128.047.255.095.38.144" mask="url(#ad)"/>
        </g>
        <g transform="translate(8)">
          <mask id="af" fill="#fff">
            <use xlink:href="#ae"/>
          </mask>
          <path fill="#EDB02B" d="M16.296 8.115l2.721-6.5a20.179 20.179 0 00-.626-.214l-2.462 6.588c.124.04.246.082.367.126" mask="url(#af)"/>
        </g>
        <g transform="translate(8)">
          <mask id="ah" fill="#fff">
            <use xlink:href="#ag"/>
          </mask>
          <path fill="#F1B32E" d="M15.93 7.99L18.39 1.4c-.204-.066-.409-.13-.616-.19l-2.207 6.667c.122.036.242.073.361.112" mask="url(#ah)"/>
        </g>
        <g transform="translate(8)">
          <mask id="aj" fill="#fff">
            <use xlink:href="#ai"/>
          </mask>
          <path fill="#F6B82E" d="M15.568 7.877l2.207-6.667a23.788 23.788 0 00-.594-.166L15.22 7.78c.116.031.232.063.347.097" mask="url(#aj)"/>
        </g>
        <g transform="translate(8)">
          <mask id="al" fill="#fff">
            <use xlink:href="#ak"/>
          </mask>
          <path fill="#FCBB2F" d="M15.22 7.78l1.961-6.736a23.003 23.003 0 00-.606-.151l-1.71 6.798c.12.028.237.058.355.09" mask="url(#al)"/>
        </g>
        <g transform="translate(8)">
          <mask id="an" fill="#fff">
            <use xlink:href="#am"/>
          </mask>
          <path fill="#FFBF31" d="M14.865 7.691l1.71-6.799a24.329 24.329 0 00-.627-.138l-1.45 6.856c.123.026.245.053.367.081" mask="url(#an)"/>
        </g>
        <g transform="translate(8)">
          <mask id="ap" fill="#fff">
            <use xlink:href="#ao"/>
          </mask>
          <path fill="#FFC332" d="M14.498 7.61l1.45-6.856c-.23-.047-.462-.092-.695-.133L14.09 7.532c.137.024.272.05.408.078" mask="url(#ap)"/>
        </g>
        <g transform="translate(8)">
          <mask id="ar" fill="#fff">
            <use xlink:href="#aq"/>
          </mask>
          <path fill="#FFCA50" d="M14.09 7.533L15.253.622c-.264-.047-.529-.088-.795-.125l-.834 6.963c.156.022.312.046.466.073" mask="url(#ar)"/>
        </g>
        <g transform="translate(8)">
          <mask id="at" fill="#fff">
            <use xlink:href="#as"/>
          </mask>
          <path fill="#FFCD5B" d="M13.624 7.46l.834-6.963a22.34 22.34 0 00-1.397-.15l-.256 7.025c.274.02.548.05.82.088" mask="url(#at)"/>
        </g>
        <g transform="translate(8)">
          <mask id="av" fill="#fff">
            <use xlink:href="#au"/>
          </mask>
          <path fill="#FFD063" d="M12.805 7.372L13.06.347a21.867 21.867 0 00-1.37-.06l.312 7.049c.268.004.536.015.803.036" mask="url(#av)"/>
        </g>
        <g transform="translate(8)">
          <mask id="ax" fill="#fff">
            <use xlink:href="#aw"/>
          </mask>
          <path fill="#FFCD5B" d="M12.002 7.336l-.313-7.05c-.496-.007-.993.004-1.487.033l.928 7.036c.29-.017.58-.023.872-.019" mask="url(#ax)"/>
        </g>
        <g transform="translate(8)">
          <mask id="az" fill="#fff">
            <use xlink:href="#ay"/>
          </mask>
          <path fill="#FFCA50" d="M11.13 7.355L10.202.32c-.3.018-.6.042-.899.073l1.3 7.006c.175-.018.35-.032.527-.043" mask="url(#az)"/>
        </g>
        <g transform="translate(8)">
          <mask id="aB" fill="#fff">
            <use xlink:href="#aA"/>
          </mask>
          <path fill="#FFC332" d="M10.603 7.398L9.303.392l-.136.015c-.23.025-.455.054-.677.087l1.636 6.964c.13-.019.263-.037.397-.051l.08-.009" mask="url(#aB)"/>
        </g>
        <g transform="translate(8)">
          <mask id="aD" fill="#fff">
            <use xlink:href="#aC"/>
          </mask>
          <path fill="#FFBF31" d="M10.126 7.458L8.49.495c-.266.039-.527.083-.782.133l1.96 6.908c.15-.029.303-.055.458-.078" mask="url(#aD)"/>
        </g>
        <g transform="translate(8)">
          <mask id="aF" fill="#fff">
            <use xlink:href="#aE"/>
          </mask>
          <path fill="#FCBB2F" d="M9.668 7.537L7.708.628c-.265.052-.524.108-.777.17l2.282 6.839c.148-.037.3-.07.455-.1" mask="url(#aF)"/>
        </g>
        <g transform="translate(8)">
          <mask id="aH" fill="#fff">
            <use xlink:href="#aG"/>
          </mask>
          <path fill="#F6B82E" d="M9.213 7.637L6.93.799c-.272.067-.537.14-.796.218l2.611 6.748c.152-.046.307-.089.467-.128" mask="url(#aH)"/>
        </g>
        <g transform="translate(8)">
          <mask id="aJ" fill="#fff">
            <use xlink:href="#aI"/>
          </mask>
          <path fill="#F1B32E" d="M8.746 7.765L6.135 1.018c-.282.086-.556.179-.82.278l2.95 6.632c.155-.058.316-.113.481-.163" mask="url(#aJ)"/>
        </g>
        <g transform="translate(8)">
          <mask id="aL" fill="#fff">
            <use xlink:href="#aK"/>
          </mask>
          <path fill="#EDB02B" d="M8.265 7.928L5.314 1.296c-.28.105-.551.218-.812.338L7.79 8.126c.153-.07.311-.136.476-.198" mask="url(#aL)"/>
        </g>
        <g transform="translate(8)">
          <mask id="aN" fill="#fff">
            <use xlink:href="#aM"/>
          </mask>
          <path fill="#E8AD2B" d="M7.79 8.126L4.502 1.634c-.265.12-.518.25-.761.385l3.601 6.333c.143-.08.291-.155.446-.226" mask="url(#aN)"/>
        </g>
        <g transform="translate(8)">
          <mask id="aP" fill="#fff">
            <use xlink:href="#aO"/>
          </mask>
          <path fill="#E2A92A" d="M7.344 8.352L3.742 2.018a9.885 9.885 0 00-.683.418l3.884 6.16a5.74 5.74 0 01.4-.244" mask="url(#aP)"/>
        </g>
        <g transform="translate(8)">
          <mask id="aR" fill="#fff">
            <use xlink:href="#aQ"/>
          </mask>
          <path fill="#DDA428" d="M6.943 8.596L3.06 2.436c-.21.14-.41.287-.6.438l4.133 5.979c.11-.089.228-.175.351-.257" mask="url(#aR)"/>
        </g>
        <g transform="translate(8)">
          <mask id="aT" fill="#fff">
            <use xlink:href="#aS"/>
          </mask>
          <path fill="#D8A127" d="M6.592 8.853L2.459 2.874a7.818 7.818 0 00-.52.455l4.348 5.79c.096-.091.197-.18.305-.266" mask="url(#aT)"/>
        </g>
        <g transform="translate(8)">
          <mask id="aV" fill="#fff">
            <use xlink:href="#aU"/>
          </mask>
          <path fill="#D39C27" d="M6.287 9.12L1.938 3.328c-.16.152-.31.31-.45.47l4.535 5.597c.082-.095.17-.187.264-.277" mask="url(#aV)"/>
        </g>
        <g transform="translate(8)">
          <mask id="aX" fill="#fff">
            <use xlink:href="#aW"/>
          </mask>
          <path fill="#CE9824" d="M6.023 9.395L1.488 3.8c-.137.158-.266.32-.385.487L5.797 9.68c.07-.097.145-.193.226-.286" mask="url(#aX)"/>
        </g>
        <g transform="translate(8)">
          <mask id="aZ" fill="#fff">
            <use xlink:href="#aY"/>
          </mask>
          <path fill="#C89424" d="M5.797 9.68L1.103 4.288a5.988 5.988 0 00-.323.503l4.828 5.186c.058-.1.12-.199.19-.295" mask="url(#aZ)"/>
        </g>
        <g transform="translate(8)">
          <mask id="bb" fill="#fff">
            <use xlink:href="#ba"/>
          </mask>
          <path fill="#C39123" d="M5.608 9.976L.781 4.791c-.098.17-.186.344-.264.522l4.937 4.969a3.3 3.3 0 01.154-.306" mask="url(#bb)"/>
        </g>
        <g transform="translate(8)">
          <mask id="bd" fill="#fff">
            <use xlink:href="#bc"/>
          </mask>
          <path fill="#BD8D21" d="M5.454 10.282L.517 5.312a5.336 5.336 0 00-.204.543L5.334 10.6c.034-.107.074-.214.12-.318" mask="url(#bd)"/>
        </g>
        <g transform="translate(8)">
          <mask id="bf" fill="#fff">
            <use xlink:href="#be"/>
          </mask>
          <path fill="#B88920" d="M5.334 10.6L.314 5.855a5.197 5.197 0 00-.144.567l5.08 4.51c.022-.112.05-.223.084-.332" mask="url(#bf)"/>
        </g>
        <g transform="translate(8)">
          <mask id="bh" fill="#fff">
            <use xlink:href="#bg"/>
          </mask>
          <path fill="#B4851F" d="M5.25 10.932L.17 6.422a5.068 5.068 0 00-.079.594l5.113 4.265c.008-.118.024-.234.046-.349" mask="url(#bh)"/>
        </g>
        <g transform="translate(8)">
          <mask id="bj" fill="#fff">
            <use xlink:href="#bi"/>
          </mask>
          <path fill="#AF811D" d="M5.204 11.28L.09 7.017a5.265 5.265 0 00-.008.63L5.2 11.65a3.026 3.026 0 01.005-.368" mask="url(#bj)"/>
        </g>
        <g transform="translate(8)">
          <mask id="bl" fill="#fff">
            <use xlink:href="#bk"/>
          </mask>
          <path fill="#AA7D1D" d="M5.2 11.65L.082 7.646a5.6 5.6 0 00.074.674l5.086 3.725a3.188 3.188 0 01-.044-.395" mask="url(#bl)"/>
        </g>
        <g transform="translate(8)">
          <mask id="bn" fill="#fff">
            <use xlink:href="#bm"/>
          </mask>
          <path fill="#A4791C" d="M5.242 12.045L.157 8.32c.042.242.1.486.174.732l5.013 3.422a3.538 3.538 0 01-.102-.43" mask="url(#bn)"/>
        </g>
        <g transform="translate(8)">
          <mask id="bp" fill="#fff">
            <use xlink:href="#bo"/>
          </mask>
          <path fill="#9F751A" d="M5.344 12.474L.331 9.052c.082.27.185.543.308.818l4.886 3.083a3.998 3.998 0 01-.18-.48" mask="url(#bp)"/>
        </g>
        <g transform="translate(8)">
          <mask id="br" fill="#fff">
            <use xlink:href="#bq"/>
          </mask>
          <path fill="#997219" d="M5.525 12.953L.64 9.87c.086.19.182.382.289.575l4.766 2.845a4.501 4.501 0 01-.17-.337" mask="url(#br)"/>
        </g>
      </g>
      <g transform="translate(8)">
        <mask id="bt" fill="#fff">
          <use xlink:href="#bs"/>
        </mask>
        <path fill="#FFAC1D" d="M.93 10.445C-1.709 5.7 1.98 1.206 9.166.407c7.186-.8 15.15 2.398 17.786 7.143 2.637 4.744-1.051 9.238-8.238 10.038-7.186.8-15.15-2.398-17.786-7.143" mask="url(#bt)"/>
      </g>
    </g>
    <g>
      <path fill="#000" d="M108.034 84.199c-.55 1.243-1.47 2.273-2.239 3.134l-8.83 9.893c-.763.854-1.763 1.799-2.823 2.799-2.28 2.151-4.863 4.59-5.725 6.757-.16.401-.388 1.124-.13 1.456.587.755 3.35.274 4.833.015.6-.103 1.166-.202 1.61-.245l12.382-1.2c1.367-.132 2.707-.383 3.262-1.32.393-.663.332-1.59.228-2.563a422.172 422.172 0 00-2.21-17.287c-.075-.503-.176-1.023-.358-1.439M89.884 110c-1.116 0-2.087-.222-2.626-.914-.52-.667-.54-1.615-.06-2.818.972-2.447 3.671-4.994 6.053-7.242 1.038-.98 2.018-1.905 2.743-2.717l8.83-9.893c.8-.896 1.696-1.9 2.124-3.057-.287-.015-.614.036-.97.098L82.77 87.522a.663.663 0 01-.76-.554.676.676 0 01.539-.783l23.208-4.064c.599-.105 1.418-.249 2.175.097 1.215.555 1.573 1.937 1.764 3.215.855 5.738 1.6 11.574 2.217 17.344.13 1.214.196 2.388-.413 3.416-.857 1.447-2.556 1.8-4.264 1.965l-12.382 1.2c-.397.038-.94.133-1.514.233-1.109.192-2.354.409-3.456.409M112.908 83.705c.267 1.107.432 2.238.493 3.374l.004.079c.022.41.042.797.205 1.057.317.507 1.172.599 2.688.29 2.782-.568 5.63-.76 8.467-.571 1.664.11 2.585-.132 2.816-.741.113-.299.051-.715-.003-1.083l-.559-3.77a128.23 128.23 0 00-14.11 1.365m1.97 6.295c-.901 0-1.879-.226-2.426-1.1-.342-.545-.373-1.146-.4-1.676l-.005-.077a17.448 17.448 0 00-.48-3.23c-.258.042-.516.086-.774.13a.675.675 0 01-.784-.535.66.66 0 01.55-.762c.276-.047.553-.094.83-.139a.67.67 0 01.415-.335.691.691 0 01.664.163 129.441 129.441 0 0115.109-1.438c.34-.018.646.23.695.564l.646 4.357c.073.496.165 1.114-.067 1.726-.694 1.831-3.226 1.662-4.18 1.6a30.412 30.412 0 00-8.095.545c-.373.076-1.014.207-1.698.207M115.496 93.49a.911.911 0 01.003.074l.02 5.757c0 .126.006.206.013.258.056-.004.12-.013.149-.017l12.95-1.802a32.2 32.2 0 00-.975-5.298l-12.16 1.029zm0 7.51c-.221 0-.483-.044-.725-.219-.559-.405-.562-1.14-.563-1.455l-.02-5.756c0-.068.009-.134.025-.197a.73.73 0 01-.211-.468c-.028-.391.242-.733.602-.763l13.475-1.14c.298-.026.584.18.675.494a33.726 33.726 0 011.244 6.821c.03.379-.222.716-.57.764l-13.58 1.89a2.48 2.48 0 01-.352.029zM87.668 117c-.343 0-.635-.245-.665-.571-.033-.345.24-.649.608-.679 3.046-.251 6.087-1.07 9.028-1.86 3.567-.96 7.255-1.951 11.057-1.978 1.169-.007 2.34.076 3.475.157 1.61.115 3.131.224 4.665.097 1.732-.143 3.475-.599 5.161-1.04 2.034-.532 4.138-1.083 6.32-1.126.368.005.675.267.683.613.007.346-.286.632-.655.64-2.012.039-3.943.544-5.988 1.079-1.744.456-3.548.928-5.404 1.081-1.644.136-3.29.018-4.884-.095-1.107-.08-2.25-.161-3.363-.154-3.619.026-7.217.993-10.697 1.93-3.002.807-6.106 1.641-9.281 1.903a.758.758 0 01-.06.003M90.41 125c-.252 0-.504-.004-.757-.011a.666.666 0 01-.653-.68.656.656 0 01.694-.637c4.48.132 8.951-1.043 13.275-2.182 3.111-.82 6.329-1.666 9.583-2.046 1.46-.17 2.942-.248 4.375-.323 1.31-.069 2.665-.14 3.981-.281 3.121-.336 6.24-1.09 9.256-1.82a.676.676 0 01.816.48.658.658 0 01-.492.799c-3.06.74-6.222 1.505-9.432 1.85-1.354.147-2.728.218-4.057.288-1.412.074-2.871.15-4.288.315-3.157.369-6.326 1.203-9.391 2.01-4.18 1.102-8.494 2.238-12.91 2.238M89.675 132a.678.678 0 01-.672-.615.68.68 0 01.607-.745 258.654 258.654 0 0041.54-7.617c.36-.096.73.12.827.483a.683.683 0 01-.479.835 260.024 260.024 0 01-41.756 7.656.64.64 0 01-.067.003"/>
      <g transform="translate(74 67)">
        <mask id="bv" fill="#fff">
          <use xlink:href="#bu"/>
        </mask>
        <path fill="#000" d="M1.516 9.48a255.083 255.083 0 016.05 41.227c.054.864.105 1.73.156 2.596.347 5.892.705 11.985 2.455 17.652 1.411 4.574 3.73 8.883 5.973 13.05.046.087.143.267.198.3.056.034.233.017.528-.052a248.931 248.931 0 0150.616-6.508c-1.329-8.39-3.492-16.77-5.587-24.883-2.683-10.394-5.458-21.142-6.51-32.017a229.471 229.471 0 01-.278-3.207c-.428-5.213-.871-10.604-3.13-15.282-.125-.259-.273-.543-.453-.634-.218-.111-.644-.003-.925.068C31.886 6.548 15.814 9.067 1.516 9.48m14.94 76.184a1.53 1.53 0 01-.81-.212c-.366-.223-.556-.577-.683-.812-2.272-4.223-4.623-8.59-6.073-13.29-1.797-5.821-2.16-11.996-2.512-17.969-.05-.863-.101-1.727-.156-2.589A253.697 253.697 0 00.018 8.984a.672.672 0 01.64-.825C15.06 7.822 31.29 5.313 50.276.489c.477-.122 1.198-.306 1.87.036.6.305.895.918 1.054 1.248 2.367 4.902 2.82 10.42 3.258 15.755.087 1.048.176 2.132.278 3.188 1.04 10.77 3.802 21.466 6.473 31.81 2.166 8.389 4.405 17.063 5.731 25.771a.672.672 0 01-.65.773 247.552 247.552 0 00-51.105 6.49c-.18.043-.442.104-.73.104" mask="url(#bv)"/>
      </g>
      <path fill="#000" d="M83.671 138a.677.677 0 01-.159-1.333c9.776-2.397 19.884-4.876 30.1-5.867 1.871-.181 3.784-.317 5.635-.45 6.35-.451 12.916-.919 18.831-3.301a.67.67 0 01.874.376.679.679 0 01-.374.88c-6.11 2.46-12.784 2.936-19.236 3.395-1.842.131-3.747.266-5.6.446-10.121.982-20.182 3.45-29.911 5.835a.683.683 0 01-.16.019M86.673 147a.67.67 0 01-.656-.512.657.657 0 01.507-.787c9.962-2.21 20.188-3.632 30.077-5.008 7.755-1.078 15.774-2.193 23.597-3.68a.67.67 0 01.79.52.658.658 0 01-.533.77c-7.856 1.494-15.893 2.612-23.665 3.692-9.862 1.372-20.06 2.79-29.967 4.989a.688.688 0 01-.15.016M86.19 108c-.351 0-.648-.258-.675-.597a88.663 88.663 0 00-3.489-18.58.63.63 0 01.287-.722.705.705 0 01.809.056c.678.559 1.363.842 2.156 1.17.507.21 1.03.427 1.59.732l24.791 13.534a.629.629 0 01.251.88.696.696 0 01-.925.24L86.194 91.179c-.495-.27-.984-.472-1.457-.668-.307-.127-.618-.256-.93-.403a89.9 89.9 0 013.06 17.199c.028.355-.252.665-.625.691a.904.904 0 01-.052.002"/>
    </g>
  </g>
</svg>