<svg xmlns="http://www.w3.org/2000/svg" viewBox="0 0 170 42">
  <g fill="#FFF" fill-rule="nonzero">
    <path d="M89.2 20.725a8.29 8.29 0 01-.678 1.558c-.271.406-.61.813-.948 1.084-.339.27-.678.541-1.084.745-.88.474-1.829.677-2.845.745h-6.163v6.298h-4.064V9.618h10.227a7.334 7.334 0 012.845.745c.339.203.745.474 1.084.745.338.27.677.677.948 1.083.27.407.474.948.677 1.558.136.61.271 1.287.271 2.032v2.844c0 .813-.135 1.49-.27 2.1zm-3.726-4.876c0-.474-.135-.88-.27-1.22-.136-.338-.407-.61-.746-.88-.338-.27-.813-.406-1.422-.406H77.55v7.788h5.486c.61 0 1.084-.135 1.422-.406.339-.27.61-.542.745-.88.203-.339.271-.745.271-1.22V15.85zM107.012 28.717c-.271.339-.61.677-1.016 1.016-.406.339-.88.61-1.49.88-.61.271-1.287.475-2.032.61-.745.136-1.693.203-2.71.203-1.354 0-2.505-.135-3.453-.338-.948-.204-1.693-.542-2.37-.88-.61-.34-1.084-.814-1.423-1.22-.339-.474-.542-.88-.745-1.287-.136-.406-.271-.813-.271-1.083V14.765c0-.136 0-.406.068-.745.067-.339.135-.745.338-1.151.136-.407.407-.881.745-1.287.339-.474.813-.88 1.423-1.22a8.18 8.18 0 012.302-.88 15.846 15.846 0 013.387-.339c1.355 0 2.506.136 3.454.34.948.202 1.693.54 2.37.88.61.338 1.084.812 1.423 1.219.339.474.542.88.745 1.287.135.406.27.812.27 1.15v11.786a5.59 5.59 0 01-1.015 2.912zm-3.048-13.207c0-.135 0-.406-.068-.677-.067-.339-.27-.61-.541-.88-.271-.272-.678-.543-1.287-.814-.542-.203-1.355-.338-2.303-.338s-1.761.135-2.303.338c-.542.204-1.016.475-1.287.813-.27.271-.474.61-.542.88-.067.272-.135.543-.135.678v9.685c0 .203.068.474.135.745.068.271.271.61.542.88.271.272.678.543 1.22.746.541.203 1.286.338 2.302.338.948 0 1.693-.067 2.303-.338.542-.203.948-.474 1.22-.745.27-.271.473-.542.541-.88.068-.272.135-.543.135-.746V15.51h.068zM111.482 31.155V9.618h4.132v21.537zM131.8 31.155L123.674 19.1v12.055h-4.063V10.16l2.641-1.084 9.414 15.103V9.618h4.064v21.537zM148.124 13.275v17.88h-4.064v-17.88h-5.69V9.618h15.307v3.657zM160.924 31.223c-2.302 0-4.808-.677-6.84-1.76l1.354-2.778c1.897.948 3.59 1.626 5.69 1.626 2.573 0 4.063-1.152 4.063-3.184 0-1.49-.948-2.505-2.98-3.047l-2.37-.61c-2.032-.542-3.32-1.354-3.996-2.574-.542-.88-.813-1.964-.813-3.115 0-3.725 2.98-6.299 7.315-6.299 2.438 0 4.876.745 6.705 1.896l-1.693 2.574c-1.83-1.083-3.251-1.49-4.877-1.49-1.896 0-3.25 1.152-3.25 2.777 0 1.422 1.015 1.964 2.573 2.438l2.573.678c3.387.948 5.148 2.98 5.148 6.027-.136 4.2-3.454 6.841-8.602 6.841zM3.183 30.884H.745V9.685h14.088v2.032H3.183v6.502h8.195v1.964H3.183zM31.968 14.223v-.677c0-.271-.135-.61-.27-1.016a4.217 4.217 0 00-.678-1.152c-.339-.406-.745-.745-1.355-1.083-.61-.339-1.354-.61-2.235-.813a15.846 15.846 0 00-3.386-.339c-1.287 0-2.37.136-3.251.34-.88.202-1.626.473-2.235.812-.542.338-1.016.677-1.355 1.083-.338.407-.542.813-.745 1.152-.135.406-.27.745-.338 1.016-.068.406-.068.542-.068.677v12.665c0 .271.135.61.27 1.016.136.339.34.745.678 1.152.27.406.745.745 1.355 1.083.61.34 1.354.61 2.235.813.88.203 2.032.339 3.386.339 1.016 0 1.897-.068 2.642-.203.745-.136 1.422-.339 1.964-.61.542-.27 1.016-.542 1.422-.813.406-.27.677-.61.948-.948.542-.745.88-1.625.948-2.574l.068-11.92zm-2.438 11.31c0 .272-.068.61-.136 1.085-.135.474-.338.88-.745 1.286-.406.407-.948.745-1.693 1.016-.745.271-1.693.407-2.912.407-1.22 0-2.235-.136-2.913-.407-.745-.27-1.286-.61-1.693-1.016-.406-.406-.677-.88-.745-1.286-.068-.407-.135-.745-.135-1.084v-10.43c0-.204.067-.542.135-1.016.136-.474.339-.88.745-1.355.407-.474.948-.813 1.693-1.151.745-.339 1.761-.474 2.98-.474 1.287 0 2.236.135 2.98.474.746.338 1.287.677 1.694 1.151.406.474.61.88.745 1.355.068.406.135.745.135 1.016v10.43h-.135zM48.223 26.414c.068-.406.136-.745.136-1.016V9.685h2.438v16.323a4.965 4.965 0 01-.948 2.574c-.204.338-.542.61-.949.948-.406.27-.88.61-1.422.813-.542.27-1.219.406-1.964.61-.813.135-1.693.202-2.71.202-1.354 0-2.505-.135-3.386-.338-.88-.203-1.693-.474-2.235-.88-.542-.34-1.016-.678-1.354-1.084a4.217 4.217 0 01-.678-1.152 7.66 7.66 0 01-.27-1.016v-17h2.438v15.713c0 .271.067.61.135 1.016.136.474.339.88.745 1.287.407.407.948.745 1.693 1.084.745.27 1.694.406 2.913.406 1.219 0 2.235-.135 2.912-.406A4.57 4.57 0 0047.41 27.7c.407-.406.678-.813.813-1.287zM63.056 22.825l.61-.068c.338 0 .812-.135 1.422-.27.61-.136 1.151-.407 1.76-.814a5.257 5.257 0 001.49-1.693c.407-.745.61-1.693.61-2.912v-1.693c0-.746-.068-1.355-.203-1.897a4.516 4.516 0 00-.61-1.422 6.659 6.659 0 00-.812-1.016 8.217 8.217 0 00-.948-.677 6.347 6.347 0 00-2.642-.745H53.641v21.266h2.439v-8.127h4.199l6.84 8.737 1.83-.948-5.893-7.721zm-7.044-2.032v-9.076h6.908c.949 0 1.626.203 2.168.61.474.406.88.812 1.083 1.287.271.541.407 1.15.474 1.828v1.693c0 .678-.203 1.287-.474 1.83-.203.473-.61.88-1.083 1.286-.542.406-1.22.61-2.168.61h-6.908v-.068zM6.028 2.912c0 .813-.068 1.49-.542 2.168-.542.745-1.355 1.083-2.235 1.083C1.558 6.163.339 5.012.339 3.32c0-1.761 1.219-2.913 2.98-2.913 1.151 0 1.964.474 2.438 1.558l-1.355.542c-.203-.542-.61-.88-1.151-.88-.948 0-1.422.88-1.422 1.693 0 .812.474 1.693 1.422 1.693.61 0 1.084-.339 1.151-.948H3.251V2.98h2.777v-.068zM11.175 5.96h-1.76L8.06 3.86v2.1H6.637V.542h2.168c1.083 0 1.896.542 1.896 1.693 0 .745-.406 1.422-1.219 1.558l1.693 2.167zM8.06 2.912h.135c.474 0 1.016-.067 1.016-.677 0-.61-.542-.677-1.016-.677H8.06v1.354zM16.323.474v3.048c0 .677 0 1.422-.542 1.896-.474.474-1.152.61-1.829.61-.61 0-1.354-.136-1.828-.61-.542-.542-.542-1.219-.542-1.896V.474h1.422v2.912c0 .678.068 1.49.948 1.49.88 0 .948-.745.948-1.49V.474h1.423zM17.203.474h2.168c1.15 0 1.964.542 1.964 1.761 0 1.287-.678 1.829-1.897 1.829h-.813v1.828h-1.422V.474zm1.422 2.506h.271c.542 0 1.016 0 1.016-.677 0-.678-.474-.678-1.016-.678h-.27V2.98zM27.701 3.116c0 1.76-1.287 2.98-2.98 2.98-1.76 0-2.98-1.22-2.98-2.98 0-1.626 1.422-2.777 2.98-2.777s2.98 1.151 2.98 2.777zm-4.538 0c0 .948.678 1.625 1.558 1.625.813 0 1.558-.677 1.558-1.625 0-.745-.677-1.423-1.558-1.423-.88 0-1.558.678-1.558 1.423zM.948 36.37h1.016c.813 0 1.49.136 2.1.678.61.542.88 1.287.88 2.1 0 .812-.27 1.49-.88 2.031-.678.61-1.287.678-2.168.678H.88V36.37h.068zm1.016 4.877c.677 0 1.22-.068 1.693-.542.474-.406.678-1.016.678-1.625 0-.61-.204-1.22-.678-1.626-.474-.406-1.016-.542-1.693-.542H1.49v4.335h.474zM11.04 36.37h2.844v.542H11.65v1.626h2.168v.542h-2.168v2.167h2.235v.542H11.04zM22.554 37.454c-.203-.406-.474-.61-.948-.61-.475 0-.88.34-.88.813 0 .474.473.678.88.88l.338.136c.678.339 1.287.678 1.287 1.558 0 .948-.745 1.693-1.693 1.693-.88 0-1.558-.542-1.693-1.422l.61-.135c.067.541.473 1.015 1.083 1.015s1.151-.474 1.151-1.083c0-.61-.474-.88-1.016-1.084l-.338-.135c-.61-.271-1.152-.61-1.152-1.423 0-.812.745-1.354 1.558-1.354.61 0 1.151.338 1.422.813l-.61.338zM30.749 41.789h-.61v-4.877h-1.286v-.541h3.25v.541H30.75zM38.538 41.789h-.61V36.37h.61zM44.904 36.1l4.267 4.47v-4.2h.61v5.69l-4.267-4.47v4.199h-.61zM61.498 39.08a2.862 2.862 0 01-2.845 2.844c-1.557 0-2.844-1.219-2.844-2.844a2.862 2.862 0 012.844-2.845 2.862 2.862 0 012.845 2.845zm-5.08 0a2.255 2.255 0 002.235 2.235 2.255 2.255 0 002.235-2.235 2.255 2.255 0 00-2.235-2.235c-1.286 0-2.235 1.016-2.235 2.235zM69.964 37.454c-.203-.406-.474-.61-.948-.61s-.88.34-.88.813c0 .474.474.678.88.88l.339.136c.677.339 1.286.678 1.286 1.558 0 .948-.745 1.693-1.693 1.693-.88 0-1.49-.542-1.693-1.422l.61-.135c.067.541.474 1.015 1.083 1.015.61 0 1.152-.474 1.152-1.083 0-.61-.475-.88-1.016-1.084l-.339-.135c-.61-.271-1.22-.61-1.22-1.423 0-.812.746-1.354 1.559-1.354.61 0 1.083.338 1.422.813l-.542.338zM85.61 41.789H85v-4.877h-1.287v-.541h3.251v.541H85.61zM93.33 39.622c0 .406 0 .88.272 1.219.27.338.677.541 1.083.541.407 0 .813-.203 1.084-.474.27-.338.27-.812.27-1.219v-3.25h.61v3.386c0 .61-.067 1.083-.474 1.49-.406.406-.948.61-1.49.61s-1.016-.204-1.422-.543c-.474-.474-.542-.948-.542-1.557v-3.387h.61v3.184zM103.558 41.789h-.61V36.37h.813c1.016 0 1.964.27 1.964 1.49 0 .812-.542 1.422-1.354 1.49l1.76 2.438h-.745l-1.625-2.37h-.136v2.37h-.067zm0-2.913h.203c.677 0 1.355-.135 1.355-.948 0-.88-.678-1.016-1.355-1.016h-.203v1.964zM113.243 34.813l-1.084 1.083-.338-.203.88-1.151.542.27zm-.61 6.976h-.61V36.37h.61v5.418zM121.438 37.454c-.203-.406-.474-.61-.948-.61s-.88.34-.88.813c0 .474.474.678.88.88l.339.136c.677.339 1.287.678 1.287 1.558 0 .948-.745 1.693-1.694 1.693-.88 0-1.49-.542-1.693-1.422l.61-.135c.067.541.474 1.015 1.083 1.015.61 0 1.152-.474 1.152-1.083 0-.61-.474-.88-1.016-1.084l-.339-.135c-.61-.271-1.151-.61-1.151-1.423 0-.812.745-1.354 1.557-1.354.61 0 1.152.338 1.423.813l-.61.338zM129.633 41.789h-.61v-4.877h-1.286v-.541h3.251v.541h-1.355zM137.422 41.789h-.61V36.37h.61zM147.92 37.522c-.406-.474-1.016-.745-1.693-.745-1.219 0-2.167 1.084-2.167 2.235a2.255 2.255 0 002.235 2.235c.61 0 1.219-.27 1.625-.745v.745c-.474.339-1.016.542-1.625.542-1.558 0-2.845-1.22-2.845-2.777a2.862 2.862 0 012.845-2.845c.61 0 1.151.204 1.625.542v.813zM159.502 39.08a2.862 2.862 0 01-2.845 2.844c-1.557 0-2.844-1.219-2.844-2.844a2.862 2.862 0 012.844-2.845 2.862 2.862 0 012.845 2.845zm-5.08 0a2.255 2.255 0 002.235 2.235 2.255 2.255 0 002.235-2.235 2.255 2.255 0 00-2.235-2.235 2.255 2.255 0 00-2.235 2.235zM168.036 37.454c-.203-.406-.474-.61-.948-.61s-.88.34-.88.813c0 .474.473.678.88.88l.338.136c.678.339 1.287.678 1.287 1.558 0 .948-.745 1.693-1.693 1.693-.88 0-1.558-.542-1.693-1.422l.61-.135c.067.541.473 1.015 1.083 1.015s1.151-.474 1.151-1.083c0-.61-.474-.88-1.016-1.084l-.338-.135c-.61-.271-1.152-.61-1.152-1.423 0-.812.745-1.354 1.558-1.354.61 0 1.152.338 1.422.813l-.61.338z"/>
  </g>
</svg>
