<svg xmlns="http://www.w3.org/2000/svg" viewBox="0 0 120 80" width="120">
  <g fill="#FFF" fill-rule="nonzero">
    <path d="M35.355 33.565v19.378h-6.168V28.586l12.735.013c5.409 0 7.251 3.814 7.251 7.279v17.065h-6.157V35.91c0-1.452-.751-2.345-2.564-2.345h-5.097zm41.946-.29c-2.109 0-3.74 1.083-4.422 2.555-.404.883-.543 1.56-.59 2.642h9.49c-.122-2.642-1.32-5.198-4.478-5.198m-5.012 9.396c0 3.155 1.961 5.477 5.463 5.477 2.725 0 4.079-.755 5.654-2.322l3.81 3.638c-2.44 2.408-5 3.87-9.51 3.87-5.904 0-11.556-3.219-11.556-12.603 0-8.018 4.934-12.557 11.418-12.557 6.572 0 10.368 5.314 10.368 12.275v2.222H72.29M60.943 52.913c-5.025 0-7.157-3.498-7.157-6.953V21.95h6.159v6.636h4.643v4.98h-4.643v12.008c0 1.415.668 2.2 2.137 2.2h2.506v5.139h-3.645M23.698 25.22h-6.21v-5.9h6.21v5.9zm.016 27.98c-4.651-.448-6.234-3.269-6.234-6.524l.007-18.09h6.227v24.613zm74.025-.521c-4.642-.448-6.216-3.264-6.216-6.515V18.48h6.216V52.68zm21.73-30.198c-5.633-27.465-58.947-29.203-93.31-8.283v2.31c34.329-17.643 83.016-17.54 87.451 7.757 1.485 8.365-3.229 17.086-11.647 22.098v6.559c10.132-3.707 20.524-15.727 17.506-30.44M57.003 70.533c-23.716 2.193-48.43-1.25-51.889-19.782-1.692-9.136 2.47-18.82 7.99-24.836v-3.217C3.167 31.415-2.228 42.449.878 55.487 4.84 72.206 26.05 81.68 58.427 78.534c12.809-1.25 29.574-5.37 41.23-11.767V57.68C89.081 63.977 71.58 69.185 57.003 70.534"/>
    <path d="M104.924 20.319c0-.302-.176-.397-.578-.397h-.388v.853c.056 0 .338.01.388.01.402 0 .578-.134.578-.417v-.05zm.606 2.115h-.46a.11.11 0 01-.096-.061l-.628-1.065c-.011-.021-.065-.047-.087-.047h-.282v1.056c0 .056-.039.117-.113.117h-.416c-.052 0-.104-.061-.104-.117v-2.67c0-.155.06-.22.19-.24.147-.02.547-.033.762-.033.765 0 1.227.226 1.227.945v.05c0 .444-.22.679-.564.794l.651 1.1c.004.023.02.054.02.08 0 .043-.027.09-.1.09m-1.093-3.54a2.063 2.063 0 00-2.049 2.061 2.05 2.05 0 004.101 0 2.069 2.069 0 00-2.052-2.061m0 4.534a2.47 2.47 0 01-2.474-2.473 2.472 2.472 0 012.474-2.473 2.486 2.486 0 012.48 2.473 2.484 2.484 0 01-2.48 2.473"/>
  </g>
</svg>
