<svg xmlns="http://www.w3.org/2000/svg" viewBox="0 0 110 25" width="110">
  <g fill="#FFF" fill-rule="nonzero">
    <path d="M94.618 24.593c-1.789-.447-3.398-1.252-4.65-2.682-2.057-2.504-1.968-7.334 1.788-9.659 1.431-.894 3.04-1.341 4.65-1.7 2.505-.446 5.098-.446 7.602-.446.358 0 .447-.09.447-.447 0-.537 0-.984-.179-1.52-.268-.985-.894-1.7-1.788-2.237-1.252-.715-2.683-.894-4.114-.804-1.967.178-3.667.894-5.187 2.235-.09.09-.179.09-.358 0L90.146 4.65c-.179-.178-.09-.268 0-.357 1.431-1.431 3.13-2.326 5.098-2.862 3.845-.984 7.065-.537 8.854.09 2.056.715 3.666 1.967 4.471 4.024.805 1.878.805 4.114.805 4.74v13.861h-5.098v-2.861-.358c-.089.09-1.699 2.772-4.829 3.488-.268.268-2.862.536-4.83.178zM98.82 14.31c-1.162.179-2.325.537-3.398 1.252-.805.626-1.252 1.7-.984 2.683.358 1.163 1.163 1.7 2.236 2.057 1.162.358 2.325.358 3.577.09 1.789-.358 3.04-1.342 3.667-3.13.357-.985.268-2.058.268-3.041v-.18c-.537 0-3.577 0-5.366.269zM21.91 24.593c-1.788-.447-3.398-1.252-4.65-2.682-2.057-2.504-1.967-7.334 1.789-9.659 1.43-.894 3.04-1.341 4.65-1.7 2.504-.446 5.545-.446 8.049-.446v-.447c0-.537 0-.984-.179-1.52-.268-.985-.894-1.7-1.789-2.237-1.252-.715-2.682-.894-4.113-.804-1.968.178-3.667.894-5.187 2.235l-.18.18c-.893-.895-2.146-2.147-3.04-3.041l.179-.18c1.43-1.43 3.13-2.325 5.098-2.861 3.845-.984 7.065-.537 8.853.09 2.057.715 3.667 1.967 4.472 4.024.805 1.878.805 4.114.805 4.74v13.861h-5.098v-2.861-.358c-.09.09-1.7 2.772-4.83 3.488-.267.268-2.861.536-4.828.178zm4.204-10.284c-1.163.179-2.325.537-3.399 1.252-.804.626-1.252 1.7-.983 2.683.357 1.163 1.162 1.7 2.235 2.057 1.163.358 2.326.358 3.578.09 1.788-.358 3.04-1.342 3.666-3.13.358-.985.269-2.058.269-3.041v-.18c-.537 0-3.578 0-5.366.269zM46.236 24.593c-3.13-.804-5.008-2.772-5.634-5.902-.269-.984-.269-1.967-.269-3.04V1.788 1.43H46.057v11.805c0 1.252 0 2.504.447 3.666.805 2.326 2.415 3.13 4.65 2.773 2.415-.358 3.935-1.968 4.204-4.382.09-.537.09-1.073.09-1.61V1.52h5.633V24.236H55.715v-3.31c0-.089.09-.178-.089-.267-.09.089-.09.178-.179.268-.984 1.61-2.236 2.951-4.114 3.577-2.057.626-4.74.268-5.097.09zM14.398 1.163c.09 0 .09 0 .269.089v5.455c-.895-.179-1.7-.357-2.594-.447-3.22-.179-5.723 1.878-6.26 5.008-.09.358-.09.716-.09.984v11.894H0V1.431h5.724V5.187c.089-.09.178-.268.178-.358.984-1.878 2.594-3.13 4.65-3.666 1.968-.537 3.4-.09 3.846 0zM63.138 1.52H70.203c3.04 3.667 6.35 7.513 9.39 11.18.09.178.18.267.18.267-3.041 3.667-6.44 7.602-9.57 11.269h-6.886-.09c.18-.269.448-.537.627-.716 2.95-3.487 6.081-7.154 9.032-10.642 0 0-.09-.09-.179-.268-3.04-3.577-6.081-7.244-9.122-10.821-.178-.09-.357-.18-.447-.269zM82.187 10.016c-1.163-1.341-2.415-2.862-3.577-4.203l.179-.179c1.162-1.341 2.414-2.862 3.577-4.203h6.976c-2.326 2.862-4.74 5.723-7.155 8.585zM89.341 24.236h-7.065c-1.162-1.342-2.593-3.04-3.666-4.293l.09-.179c1.162-1.341 2.235-2.683 3.398-4.024 2.504 2.862 4.829 5.634 7.243 8.496z"/>
  </g>
</svg>
