<svg xmlns="http://www.w3.org/2000/svg" viewBox="0 0 180 26" width="180">
  <path fill="#FFF" fill-rule="nonzero" d="M174.169 3.232h1.585l.063.064.063.063.064.064.063.063.063.063V4.183l-.063.063v.19l-.063.064-.064.063H174.17v-1.33zm1.077-.887h-2.154V7.86h1.077V5.577h.634l1.394 2.282h1.141l-1.521-2.345h.127l.126-.063h.127l.127-.064.063-.063.064-.063.063-.064h.063l.064-.063.19-.064.063-.063.064-.063.063-.064.064-.063.063-.127.063-.063V3.486l-.063-.127-.063-.127-.064-.063v-.063l-.063-.064-.064-.063-.063-.064v-.063l-.063-.063-.064-.064-.063-.063-.064-.063-.126-.064h-.381l-.126-.063h-.381l-.317-.127zm-81.95 22.373h9.253V.888h-9.253v23.83zm58.373-5.07l-.57-.063-.38-.064-.381-.063-.38-.064-.38-.063-.19-.063-.19-.064-.191-.063-.19-.064-.19-.063-.254-.127-.253-.126-.254-.19-.253-.19-.19-.127-.19-.19-.19-.19-.128-.19-.126-.191-.127-.19-.254-.19-.126-.19-.064-.19-.063-.19-.063-.19-.127-.318-.127-.317-.063-.317-.064-.316-.126-.508-.064-.507-.063-.507-.064-.443v-1.331l.064-.444.063-.444.064-.38.063-.38.127-.38v-.254l.063-.19.063-.127.064-.19.063-.127.064-.127.126-.19.127-.19.127-.19.127-.19.126-.127.127-.127.127-.126.127-.127.126-.127.127-.127.19-.126.19-.127.19-.064.19-.063.19-.063.191-.064.444-.126.633-.254.444-.063.507-.064.507-.063.507-.063h1.521l.507.063.507.063.508.064.316.063h.38l.318.063.316.127.19.064.19.063.19.127.191.126.19.127.19.127.19.127.19.126.19.19.19.19.128.19.126.191.127.19.127.19.063.127.064.19.063.127.063.127.064.127.127.38.126.38.064.38.063.38.064.444.063.444.063.444V13.563l-.063.507-.063.507-.064.317-.063.317-.064.317-.126.317-.127.317-.127.317-.127.253-.126.19-.127.254-.127.19-.19.19-.19.19-.19.19-.127.127-.19.127-.19.127-.19.127-.19.126-.19.127-.254.127-.254.127-.253.126-.254.064-.253.063-.254.064-.38.063-.317.063-.38.064-.57.063-.571.064h-.57l-.381.063zM151.479.38h-1.141l-.57.064-.57.063-.635.063-.633.064-.634.063-.634.127-.507.063-.57.127-.508.127-.697.127-.507.126-.443.127-.444.127-.444.19-.443.19-.444.19-.507.254-.507.253-.507.317-.444.317-.444.38-.443.38-.38.381-.38.38-.381.444-.317.444-.19.253-.254.254-.19.253-.19.317-.127.317-.126.317-.127.253-.19.57.063-7.541h-9.317v12.93L117 .886h-12.36v23.958l9.128-.063V11.725l9.76 12.993h12.296l.063-7.922.19.507.064.253.19.444.19.444.19.38.254.38.253.38.254.38.317.381.317.38.317.317.316.317.38.317.381.317.38.317.38.253.38.254.445.253.443.19.507.19.507.19.507.191.634.254.634.19.634.19.634.127.697.126.697.127.634.063.633.064.634.063.634.064.697.063h3.486l.697-.063.698-.064.697-.063.634-.064.633-.063.634-.063.634-.127.634-.127.634-.127.633-.19.634-.19.507-.19.507-.19.507-.19.507-.19.38-.19.38-.19.381-.19.38-.254.38-.254.318-.253.38-.317.38-.317.38-.317.317-.38.317-.38.317-.381.254-.38.253-.444.19-.38.19-.38.127-.38.127-.381.127-.38.127-.38.126-.571.127-.57.127-.57.063-.635.064-.633.063-.634v-1.141l-.063-.57-.064-.571-.063-.507-.064-.507-.126-.507-.127-.507-.127-.38-.127-.38-.126-.381-.19-.38-.127-.317-.19-.38-.254-.444-.317-.444-.317-.38-.317-.38-.38-.38-.317-.318-.38-.316-.38-.317-.38-.254-.444-.317-.444-.253-.507-.254-.444-.19-.57-.253-.57-.254-.634-.19-.634-.19-.634-.19-.634-.127-.507-.127-.507-.127-.507-.063-.57-.063-.697-.127-.57-.064-.445-.063-.443-.063H151.479V.38zm23.134 8.493h-.254l-.253-.063h-.191l-.126-.064-.19-.063h-.064l-.127-.063-.19-.064-.19-.126-.063-.064-.064-.063-.063-.064-.063-.063-.064-.063-.063-.064-.063-.063-.064-.063-.063-.064-.127-.063-.063-.064-.19-.19-.064-.063-.063-.064-.064-.063-.063-.127-.127-.126.064-.127v-.064l-.064-.126-.063-.127v-.063l-.064-.064-.063-.19-.063-.19v-.19l-.064-.127V5.261v.063-1.078l.127-.38.063-.127.127-.253.064-.127v-.253l.063-.127.063-.064.064-.126.126-.127.064-.063.063-.064.064-.063.063-.064.19-.19.19-.19.127-.063h.063l.19-.127.064-.063.127-.064h.126l.064-.063.063-.063.127-.064h.38l.064-.063H175.817l.19.063h.127l.127.064.126.063h.064l.126.063.127.064.127.063.127.063.127.064.063.063.127.127.126.127.064.063.063.063.064.064.126.127.19.19.127.126.064.064.063.127.127.253.063.064.063.19.064.126v.064l.063.127.064.063.063.19v.063l.063.19V6.149l-.063.127-.063.126-.064.19-.063.064-.127.253-.063.064-.19.253-.127.127v.063l-.064.064v.063l-.063.064-.063.063-.064.063-.063.064-.063.063-.064.064-.063.063-.064.063-.253.19-.19.127-.19.064-.064.063h-.127l-.063.063-.127.064h-.126l-.064.063h-1.394l-.19.19zm.443-8.493h-.633l-.254.064h-.127l-.19.063h-.127l-.253.127-.127.063-.127.064-.19.063-.127.063-.253.127-.063.063-.254.19h-.063l-.064.064-.063.063-.19.19-.19.064-.064.063-.19.127-.063.127v.063l-.064.064-.063.126-.063.127-.127.063-.254.38-.063.064-.064.127-.063.127v.063l-.063.127-.127.317v.19l-.063.253V5.641l.063.19v.063l.063.19v.127l.064.19v.127l.126.38.064.127V7.1l.063.126.127.254.063.063.064.127.127.254.063.063.063.063.064.127.063.063.063.127.19.19.064.064.127.126.126.064.064.063.063.064.254.19.127.063.253.127.254.127.063.063.063.063.254.127.127.064.253.063.254.063.253.064h1.331l.254-.064h.19l.127-.063.19-.063h.063l.127-.064.253-.063.127-.064h.064l.063-.063.127-.063.126-.064.064-.063.063-.063.064-.064.126-.063.127-.127.127-.063.063-.064.127-.127.127-.063.253-.253.19-.19.127-.127.064-.064.063-.063.063-.063.127-.254.063-.127V7.48l.19-.317v-.063l.064-.19.063-.254.064-.127.126-.443V4.563l-.063-.253-.063-.254v-.253l-.064-.127V3.55l-.19-.19-.127-.19-.063-.127-.063-.063v-.064l-.127-.253-.063-.127-.064-.127-.127-.126-.063-.127-.063-.063-.127-.19-.064-.064-.126-.127-.19-.126-.127-.127-.064-.064-.126-.063-.127-.127-.254-.19h-.063l-.19-.063-.063-.064-.19-.126-.19-.064h-.128l-.126-.063-.127-.064h-.127l-.19-.063h-.063l-.254-.063-.317-.064h-.317zM70.732 14.768h8.493l.38.063h.38l.191.063.19.064.127.063.127.064.126.063.127.063.064.064.063.063.063.063.064.064.063.063.064.064.063.063.063.063.064.064.063.063.063.063.064.064.063.063.064.064.063.063.063.063v1.585l-.063.063-.063.064-.064.063-.063.063-.064.064-.063.063-.063.064-.064.063-.063.063-.063.064-.064.063-.063.063-.064.064-.063.063-.063.064-.064.063-.127.063-.126.064-.127.063-.127.063-.127.064-.19.063-.19.064H70.732v-4.5zm0-8.367h8.176l.19.064h.127l.127.063.127.064.127.063h.063l.063.063.064.064.063.063.064.063.063.064.063.063.064.064.063.063.063.063.064.064.063.063.064.063v.127l.063.064v.76-.127V9.063l-.063.064-.064.063-.063.064-.064.063-.063.063-.063.064-.064.063-.063.063-.063.064-.064.063-.063.064-.064.063-.126.063-.127.064-.127.063-.127.063-.126.064-.19.063-.127.064h-.127l-.38.063-.38.063h-7.099V6.401h-.064zm-25.225-.253l4.373 9.38h-8.62l4.247-9.38zM15.655 0h-2.028l-.507.063-.634.064-.634.063-.634.064-.633.063L9.95.38l-.57.127-.571.127-.57.127-.571.19-.38.126-.507.19-.38.127-.317.19-.38.254-.381.254-.38.19-.38.317-.38.253-.318.317-.38.317-.317.38-.19.19-.19.254-.19.253-.127.317-.19.254-.127.253-.063.254-.127.253-.127.254-.063.253-.064.254v.317l-.063.317V8.746L1.71 9l.064.254.063.253.063.254v.126l.127.254.064.19.063.19.063.19.127.19.127.19.127.19.19.254.19.254.19.317.254.253.253.254.254.19.253.19.254.127.317.19.316.19.317.127.317.127.254.19.317.126.443.19.444.127.507.127.507.127.507.127.507.063.444.063.443.064.444.063 7.606.444.443.063h.381l.126.064.127.063.127.063.127.064.127.063h.063l.127.063.126.064.127.063.127.064.127.063.063.063.063.127.064.063.063.127.064.127.063.127.063.063.064.064.063.063.063.063V18.254l-.063.126-.063.127-.064.507-.063.127-.063.127-.064.126-.063.064-.064.063-.063.064-.063.063-.064.063-.063.064-.063.063-.127.127-.127.063-.127.064-.126.063-.19.127-.254.126-.254.064-.253.063-.254.127-.443.063-.444.064-.38.126H15.21l-.317-.063-.317-.063-.253-.064-.254-.063-.253-.063-.254-.064-.253-.19-.19-.063-.19-.064-.19-.126-.127-.064-.064-.063-.063-.064-.063-.063-.127-.127-.127-.126-.127-.127-.127-.127-.063-.127-.063-.127-.064-.126-.063-.127-.063-.127-.064-.127-.127-.316-.063-.19-.063-.19-.064-.19v-.761L0 16.859V18l.063.19.064.19.063.19.064.19.126.254.064.19.063.19.19.254.19.253.19.254.19.317.19.253.254.317.317.317.317.254.317.253.444.317.443.317.444.254.444.253.443.254.507.253.57.317.635.254.507.19.507.19.443.127.507.126.507.064.57.126.571.064.57.063.571.064.507.063.507.063.507.064.507.063h4.436l.698-.063.697-.064.634-.063.634-.063.443-.064.508-.063.443-.064.634-.063.634-.127.634-.126.633-.127.57-.127.571-.19.57-.19.254-.127.254-.127.253-.127.254-.126.38-.19.38-.254.38-.253.571-.444-1.077 2.282h9l1.647-3.677h13.817l1.712 3.677 7.035.126H82.458l.57-.063.57-.063.571-.064.57-.063.634-.064.634-.126.634-.127.444-.127.443-.127.444-.126.443-.127.444-.19.38-.19.254-.127.253-.127.254-.127.254-.19.19-.19.19-.19.127-.127.126-.127.127-.126.127-.19.127-.127.126-.19.127-.19.127-.254.127-.254.126-.253.064-.254.063-.253.064-.254.063-.38.063-.444.064-.38V17.24l-.064-.38-.063-.381-.063-.254-.064-.253-.063-.254-.064-.253-.063-.127-.063-.127-.064-.126-.063-.127-.127-.19-.127-.19-.126-.19-.064-.064-.127-.127-.126-.127-.127-.126-.127-.127-.127-.127-.19-.127-.19-.126-.19-.127-.19-.127-.19-.063-.317-.127-.317-.127-.254-.063-.253-.064-.38-.126-.38-.064-.571-.126-.57-.127.38-.19.38-.19.634-.317.253-.127.254-.19.253-.19.254-.19.19-.127.19-.19.19-.19.19-.19.127-.19.127-.191.127-.19.127-.19.126-.19.127-.19.063-.19.064-.254.063-.254.064-.253.063-.254.063-.253.064-.254V5.831l-.064-.254-.063-.253-.063-.254-.064-.253-.063-.19-.064-.254-.063-.19-.063-.127-.064-.126-.063-.127-.063-.127-.064-.127-.127-.19-.126-.127-.127-.126-.127-.127-.317-.19-.19-.127-.19-.127-.254-.127-.253-.126-.254-.127-.253-.127-.254-.127-.38-.126-.38-.127-.444-.127-.444-.127-.38-.063-.253-.063-.57-.064-.635-.063-.633-.064-.634-.063-.57-.063-.571-.064H60.972v18.951L52.099.761h-13.12l-7.416 16.162-.063-.57v-.318l-.063-.317-.064-.317-.063-.316-.064-.254-.063-.317-.127-.253-.126-.254-.127-.253-.127-.254-.127-.19-.126-.254-.19-.253-.19-.254-.19-.19-.191-.253-.254-.19-.253-.19-.254-.19-.19-.128-.253-.126-.254-.127-.38-.19-.38-.19-.38-.19-.318-.127-.316-.127-.38-.127-.381-.063-.38-.064-.38-.063-.38-.063-.381-.064-.507-.063-.507-.063h-.507l-6.275-.254H15.401l-.316-.063-.317-.064-.317-.063-.317-.063-.317-.127-.19-.064-.19-.063-.19-.063-.127-.064-.127-.063-.127-.064-.19-.126-.127-.064-.126-.126-.127-.064-.064-.127-.063-.063-.063-.063-.064-.064-.063-.063-.064-.063-.063-.064-.063-.127v-.126l-.064-.127V6.02l.064-.063.063-.064.063-.126.064-.064.063-.063.064-.127.063-.127.063-.126.127-.127.127-.127.063-.063h.127l.127-.064.127-.063.126-.063.127-.064.127-.063.19-.064.19-.063.127-.063.19-.064.317-.063.317-.064.317-.063.507-.063h.95l.444.063h.254l.253.063.254.064.253.063.317.064.19.126.254.127.19.127.127.063.126.064.127.063.127.063.127.127.127.127.126.127.127.126.127.127.127.127.126.127.064.19.063.127.063.126.064.127.063.19.064.19.063.19.063.19.064.19v.445h10.077l-.127-.698v-.253l-.063-.254-.063-.253-.064-.254-.126-.253-.127-.317-.19-.317-.19-.317-.19-.317-.19-.317-.254-.317-.254-.317-.253-.316-.254-.254-.253-.254-.317-.253-.317-.254-.317-.253-.317-.19-.317-.19-.317-.19-.317-.127-.317-.127-.317-.127-.316-.127-.634-.19-.634-.126-.634-.127-.634-.127-.633-.063-.57-.064-.571-.063-.507-.063-.634-.064-.634-.063-.634-.064L17.683 0h-2.028z"/>
</svg>
