<svg xmlns="http://www.w3.org/2000/svg" xmlns:xlink="http://www.w3.org/1999/xlink" viewBox="0 0 733 426" width="727">
  <defs>
    <linearGradient id="c" x1="50%" x2="50%" y1="0%" y2="100%">
      <stop offset="0%" stop-color="#151515"/>
      <stop offset="100%" stop-color="#2C2C2C"/>
    </linearGradient>
    <linearGradient id="f" x1="50%" x2="50%" y1="0%" y2="100%">
      <stop offset="0%" stop-color="#96979B"/>
      <stop offset="100%" stop-color="#2A2B2D"/>
    </linearGradient>
    <linearGradient id="g" x1="100%" x2="0%" y1="50%" y2="50%">
      <stop offset="0%" stop-color="#808185"/>
      <stop offset=".797%" stop-color="#CFD0D2"/>
      <stop offset="2.104%" stop-color="#949599"/>
      <stop offset="3.732%" stop-color="#A7A8AC"/>
      <stop offset="4.234%" stop-color="#B6B7BB"/>
      <stop offset=".212%" stop-color="#CFD0D4"/>
      <stop offset="9.64%" stop-color="#D8D8D8"/>
      <stop offset="90.91%" stop-color="#DDDEE0"/>
      <stop offset="95.62%" stop-color="#B1B2B4"/>
      <stop offset="98.255%" stop-color="#C2C3C7"/>
      <stop offset="99.128%" stop-color="#F1F3F2"/>
      <stop offset="99.357%" stop-color="#E9EBEA"/>
      <stop offset="99.731%" stop-color="#D4D5D7"/>
      <stop offset="100%" stop-color="#7A7B7F"/>
    </linearGradient>
    <linearGradient id="h" x1="100%" x2="0%" y1="37.234%" y2="37.234%">
      <stop offset="0%" stop-color="#949599"/>
      <stop offset="3.582%" stop-color="#9E9FA3"/>
      <stop offset="5.166%" stop-color="#B9BABC"/>
      <stop offset="8.56%" stop-color="#E0E1E3"/>
      <stop offset="91.829%" stop-color="#D8D9DB"/>
      <stop offset="94.545%" stop-color="#C2C3C5"/>
      <stop offset="100%" stop-color="#8D8E90"/>
    </linearGradient>
    <path id="a" d="M0 0h556v348H0z"/>
    <path id="e" d="M.595 13.62s7.577 7.57 29.032 9.568h667.744s17.801-1.339 29.348-9.237H17.42L.595 13.62z"/>
    <path id="i" d="M312.427.463s.083 5.792 5.88 8.558h90.146s4.959-1.8 6.063-8.558H313.889"/>
    <filter id="d" width="101.9%" height="246.3%" x="-1%" y="-52.3%" filterUnits="objectBoundingBox">
      <feOffset dy="2" in="SourceAlpha" result="shadowOffsetOuter1"/>
      <feGaussianBlur in="shadowOffsetOuter1" result="shadowBlurOuter1" stdDeviation="2"/>
      <feColorMatrix in="shadowBlurOuter1" values="0 0 0 0 0 0 0 0 0 0 0 0 0 0 0 0 0 0 0.5 0"/>
    </filter>
    <filter id="j" width="101%" height="111.7%" x="-.5%" y="-5.8%" filterUnits="objectBoundingBox">
      <feGaussianBlur in="SourceAlpha" result="shadowBlurInner1" stdDeviation=".5"/>
      <feOffset in="shadowBlurInner1" result="shadowOffsetInner1"/>
      <feComposite in="shadowOffsetInner1" in2="SourceAlpha" k2="-1" k3="1" operator="arithmetic" result="shadowInnerInner1"/>
      <feColorMatrix in="shadowInnerInner1" values="0 0 0 0 0 0 0 0 0 0 0 0 0 0 0 0 0 0 0.301441866 0"/>
    </filter>
  </defs>
  <g fill="none" fill-rule="evenodd">
    <path fill="#121212" d="M92.996 1C80.296 1 70 11.3 70 24.002V397h593V24.002C663 11.298 652.707 1 640.004 1H92.996z"/>
    <path stroke="#C5C5C5" stroke-width="2" d="M71 403h591V23.007C662 10.85 652.154 1 640.004 1H92.996C80.845 1 71 10.846 71 23.007V403z"/>
    <g transform="translate(89 26)">
      <mask id="b" fill="#fff">
        <use xlink:href="#a"/>
      </mask>
      <use fill="#282828" xlink:href="#a"/>
      <image width="557" height="348" mask="url(#b)" xlink:href="service-macbook-01.webp"/>
    </g>
    <g transform="translate(363 12)">
      <circle cx="4" cy="4" r="4" fill="url(#c)"/>
      <circle cx="4" cy="4" r="2" fill="#103470"/>
    </g>
    <g>
      <g transform="translate(3 397)">
        <use fill="#000" filter="url(#d)" xlink:href="#e"/>
        <use fill="url(#f)" xlink:href="#e"/>
      </g>
      <path fill="url(#g)" d="M1 0h726v14H1z" transform="translate(3 397)"/>
      <g transform="translate(3 397)">
        <use fill="url(#h)" xlink:href="#i"/>
        <use fill="#000" filter="url(#j)" xlink:href="#i"/>
      </g>
    </g>
  </g>
</svg>
