<svg xmlns="http://www.w3.org/2000/svg" viewBox="0 0 180 26" width="180">
  <g fill="#FFF" fill-rule="nonzero">
    <path d="M105.249 8.247l.051-.082-.055.082c-.93-.638-2.274-.934-3.59-.934-2.985.002-5.118 1.478-6.521 3.552-1.395 2.08-2.052 4.759-2.052 7.144 0 1.724.259 3.33 1.31 4.782.517.708 1.771 2.41 5.827 2.415 2.816-.002 4.15-.731 4.872-1.154l.12-.162c.142-.618.617-3.421.81-4.124l-.145-.112c-1.424 1.129-2.976 1.953-4.74 1.953-1.182 0-2.081-.28-2.688-.822-.604-.538-.9-1.332-.9-2.317 0-.363.03-.694.057-1.057l.009-.085.083-.003c2.757-.07 4.161-.108 6.47-.108.754 0 1.605.004 2.632.012l.178-.124c.23-1.07.478-2.294.478-3.8 0-1.337-.143-3.713-2.206-5.056m-1.826 5.855l-.016.078-2.701.035-2.672.035.025-.09.012-.04c.054-.187.113-.393.18-.603.184-.588.447-1.23.912-1.817.082-.1.167-.202.258-.298.828-.905 1.612-1.046 2.12-1.046.715 0 1.239.287 1.576.712a2.367 2.367 0 01.456 1.175c.018.12.024.247.024.369.001.505-.089 1.002-.174 1.49m-10.49-3.042l-.184.182-2.66-.069-1.233 5.802c-.17.727-.546 2.542-.546 3.127-.004.547.202.92.49 1.14.285.225.641.299.96.3.74 0 .998-.207 1.491-.395l.087.081-.654 3.342-.225.219c-.91.192-1.588.35-2.547.35-2.475-.014-4.262-.844-4.271-3.729 0-1.35.545-3.808.95-5.635l.983-4.605-2.09.071-.125-.182.611-3.245.19-.105h2.122l.849-4.274.165-.187c2.125-.544 2.738-.805 4.674-1.443l.103.116-.642 2.753-.665 3.1 2.725-.083.071.142-.63 3.227zm32.808-5.475l-.147.163-7.02-.017-1.143 5.858 6.144-.185.091.146a44.704 44.704 0 00-.963 3.628l-.155.149-5.843-.013-.768 4.065-.972 5.278-.13.122-5.031.13-.062-.13.873-4.494 1.334-6.344c1.006-4.93 1.294-6.503 2.246-11.874l.15-.147h7.353l4.67-.123.09.123-.717 3.665zm9.918 2.852c-.977-.689-2.535-1.043-4.674-1.043-1.056 0-2.12.102-3.19.305a21.65 21.65 0 00-2.053.48l-.139.14-.694 3.555.224.135c.446-.206 1.1-.457 1.961-.763.882-.31 1.694-.466 2.427-.466 1.072 0 1.889.147 2.444.45.573.308.983.984.98 1.727 0 .184-.015.345-.04.49a4.356 4.356 0 00-.052.296l-.012.076s-.347.024-.715.055c-.243.024-.552.059-.91.1a32.81 32.81 0 00-1.85.245c-1.41.235-5.381.853-6.573 3.513-1.249 2.179-1.036 5.07.191 6.476a3.543 3.543 0 001.985 1.146l-.002.003c.038.013.175.03.206.037 3.433.531 5.897-2.46 5.897-2.46l-.368 1.844.15.13 3.858-.13.16-.14 2.271-11.404c.047-.24.086-.525.114-.848.026-.328.042-.593.042-.789-.003-1.46-.663-2.473-1.638-3.16m-3.972 11.403s-.922 1.449-2.25 1.968c-1.334.516-2.296.109-2.672-.407-.304-.403-.936-1.676.264-3.108 1.216-1.446 5.238-1.539 5.238-1.539l-.58 3.086zm18.728-12.678l-.945 4.905-.198.2a5.768 5.768 0 00-1.02-.087c-1.274 0-3.085.408-4.501 2.286l-.016.015-1.95 10.178-.138.122-4.238.128-.11-.111 3.333-17.087.181-.179 4.194-.406.166.18-.484 2.474.207-.187a13.7 13.7 0 012.522-1.839c.86-.495 1.724-.74 2.591-.74.084 0 .17 0 .26.003l.146.145zm22.685 4.3c0 1.032-.233 2.104-.462 3.147l-1.968 10.05-.151.12-4.436.157-.11-.156s2.273-11.1 2.273-11.653c0-.503-.266-1.85-1.677-1.85-1.111 0-2.26 1.121-2.26 1.121l-2.395 12.261-.148.122-1.909.066-1.709.058-.844.028-.052-.07-.054-.083.767-3.782h-.011c.662-3.273 1.509-7.534 1.509-7.87 0-.504-.265-1.852-1.678-1.852-1.108 0-2.257 1.122-2.257 1.122l-2.396 12.261-.15.122-.686.023-3.774.127-.097-.15 3.325-17.07.167-.168 4.424-.417.179.18-.469 2.402s2.135-2.34 4.856-2.394c2.54-.047 3.071 2.394 3.071 2.394s2.527-2.45 5.223-2.394c1.363.011 3.892.612 3.899 4.147M80.489 8.438c-.975-.689-2.532-1.043-4.67-1.043-1.059 0-2.122.102-3.187.305a21.78 21.78 0 00-2.058.48l-.137.14-.694 3.555.224.135c.445-.206 1.1-.457 1.96-.763.883-.31 1.694-.466 2.426-.466 1.073 0 1.885.147 2.447.45.57.308.977.984.977 1.727 0 .184-.013.345-.038.49-.03.138-.046.238-.053.296l-.01.076s-.346.024-.714.055c-.242.024-.556.059-.911.1-.587.063-1.262.146-1.848.245-1.414.235-5.383.853-6.575 3.513-1.25 2.179-1.035 5.07.192 6.476.429.498 1.09.966 1.983 1.146l-.002.003c.038.013.176.03.205.037 3.435.531 5.898-2.46 5.898-2.46l-.369 1.844.15.13 3.86-.13.16-.14 2.268-11.404c.05-.24.088-.525.12-.848.022-.328.04-.593.04-.789-.004-1.46-.662-2.473-1.644-3.16m-3.97 11.403s-.919 1.449-2.25 1.968c-1.331.516-2.291.109-2.672-.407-.302-.403-.933-1.676.27-3.108 1.212-1.446 5.237-1.539 5.237-1.539l-.584 3.086zm-9.297-8.78l-.185.182-2.658-.069-1.231 5.802c-.173.727-.551 2.542-.551 3.127-.001.547.203.92.49 1.14.288.225.643.299.96.3.741 0 1-.207 1.492-.395l.088.081-.653 3.342-.225.219c-.907.192-1.589.35-2.55.35-2.469-.014-4.259-.844-4.269-3.729 0-1.35.547-3.808.952-5.635l.98-4.605-2.09.071-.125-.182.613-3.245.189-.105h2.121l.85-4.274.166-.187c2.121-.544 2.736-.805 4.676-1.443l.099.116-.642 2.753-.66 3.102 2.72-.084.075.143-.632 3.225zM57.23 3.178l-.808 4.162-.178.056c-.322-.452-.516-.629-.963-.974-.994-.765-2.173-1.198-3.376-1.198-.943 0-1.727.294-2.27.784a2.59 2.59 0 00-.86 1.962c.002 1.468 1.008 2.185 2.794 3.255l.695.394c1.497.981 3.821 2.486 3.821 5.901-.005 3.882-2.492 7.776-8.458 7.785-1.462 0-2.894-.262-4.272-.776-.93-.356-1.378-.665-1.94-1.081l-.047-.268.792-4.06.177-.059c.359.465.809.844 1.482 1.29a6.196 6.196 0 003.404 1.06c2.106 0 3.762-1.203 3.762-3.07-.002-1.673-1.324-2.51-2.704-3.325l-.955-.588c-1.503-.983-3.587-2.32-3.593-5.67 0-1.289.37-3.138 1.512-4.653 1.505-1.992 3.87-2.707 6.254-2.707 3.068 0 4.823 1.086 5.646 1.613l.085.167zm-43.142 7.33c1.208.747 2.907 1.22 4.818 1.22 1.91 0 3.624-.473 4.85-1.22 1.232-.745 1.957-1.751 1.96-2.813-.003-1.065-.724-2.061-1.95-2.8-1.222-.738-2.932-1.202-4.846-1.206-1.91.004-3.612.468-4.826 1.206-1.215.74-1.929 1.733-1.931 2.797.002 1.068.714 2.071 1.925 2.816m.305 5.757c-1.222-.74-2.933-1.204-4.844-1.204-1.912 0-3.613.465-4.827 1.2-1.216.74-1.93 1.73-1.932 2.794.003 1.068.713 2.072 1.926 2.82 1.208.741 2.906 1.216 4.819 1.22 1.912-.005 3.627-.479 4.852-1.223 1.229-.745 1.954-1.749 1.958-2.814-.005-1.06-.726-2.053-1.952-2.793m18.703 0c-1.224-.74-2.936-1.204-4.848-1.204-1.91 0-3.614.465-4.825 1.2-1.215.74-1.927 1.73-1.93 2.797.003 1.064.71 2.068 1.925 2.817 1.209.74 2.906 1.215 4.817 1.219 1.91-.005 3.627-.479 4.854-1.223 1.229-.745 1.954-1.749 1.956-2.813-.002-1.06-.724-2.053-1.95-2.793m-4.867-3.994c-.864 0-1.699.082-2.492.23 1.733-1.236 2.8-2.938 2.8-4.816 0-3.779-4.292-6.786-9.62-6.786C13.59.9 9.342 3.907 9.342 7.686c0 1.881 1.047 3.583 2.762 4.82a13.69 13.69 0 00-2.53-.235C4.245 12.271 0 15.28 0 19.055c0 3.773 4.224 6.837 9.553 6.837 4.535 0 8.336-2.218 9.371-5.206 1.01 2.988 4.745 5.206 9.281 5.206 5.328 0 9.644-3.064 9.644-6.837 0-3.776-4.296-6.784-9.621-6.784M11.079 7.682c.006-1.702 1.299-2.85 2.056-3.386 1.516-1.078 3.57-1.658 5.782-1.658 2.22 0 4.28.583 5.808 1.658.764.539 2.072 1.69 2.078 3.386-.025 2.837-3.668 5.095-7.91 5.102-2.203 0-4.247-.59-5.757-1.675-1.314-.943-2.057-2.157-2.057-3.427m-1.526 16.47c-2.206 0-4.25-.59-5.763-1.677-1.309-.939-2.053-2.153-2.053-3.42.007-1.702 1.299-2.854 2.054-3.39 1.517-1.07 3.57-1.655 5.783-1.658 2.22.003 4.281.587 5.809 1.662.765.538 2.074 1.688 2.082 3.386-.027 2.833-3.672 5.091-7.912 5.097m9.374-6.724c-.418-1.204-1.285-2.278-2.469-3.129a13.51 13.51 0 004.925-.008c-1.18.851-2.046 1.927-2.456 3.137m9.277 6.724c-2.203 0-4.248-.59-5.76-1.677-1.311-.939-2.057-2.153-2.057-3.42.005-1.702 1.301-2.851 2.059-3.39 1.514-1.07 3.569-1.655 5.78-1.658 2.221.003 4.281.587 5.813 1.662.764.538 2.068 1.69 2.072 3.386-.021 2.833-3.665 5.091-7.907 5.097M180 10.735c-.013 1.507-1.107 2.644-2.539 2.632-1.424-.012-2.506-1.167-2.494-2.673.013-1.537 1.092-2.652 2.553-2.64 1.416.012 2.493 1.175 2.48 2.681m-4.702-.047c-.011 1.29.959 2.346 2.165 2.356 1.205.01 2.196-1.03 2.207-2.327.005-.617-.224-1.246-.611-1.663a2.193 2.193 0 00-1.525-.676c-1.275-.01-2.225.977-2.236 2.31m2.077-1.482c.318.004.467.019.649.081.315.108.515.41.513.75-.003.362-.23.647-.594.757l.596 1.436-.422-.003-.552-1.361-.03-.008-.266-.002-.284-.002-.045.007-.013 1.356-.383-.003.025-3.014.806.006zm-.035 1.341c.372.004.514-.019.629-.107a.487.487 0 00.191-.398c.003-.218-.095-.377-.284-.445-.104-.049-.27-.063-.601-.067l-.323-.002-.01 1.016.398.003z"/>
  </g>
</svg>
