<svg xmlns="http://www.w3.org/2000/svg" viewBox="0 0 90 54">
  <g fill="#FFF" fill-rule="nonzero">
    <path d="M13.64 13.375l4.636 14.942 9.961-14.942h8.182L30.92 44.547h-7.836l3.108-17.585-6.668 10.48h-5.671l-2.935-10.48-3.122 17.585H0l5.499-31.172zM66.728 53.818h-35.37L41.068 0h7.796l-8.5 47.058H67.95z"/>
    <path d="M68.654 14.995c-1.753-1.288-4.317-1.926-7.73-1.926-9.324 0-13.986 3.626-13.986 10.865 0 1.7.491 3.121 1.474 4.264a8.765 8.765 0 003.573 2.51 51.883 51.883 0 004.197 1.408c1.395.411 2.59.916 3.573 1.514.983.61 1.474 1.381 1.474 2.337 0 1.794-1.434 2.683-4.303 2.683-2.869 0-4.303-.996-4.303-2.988 0-.226.026-.491.093-.784l.08-.518h-7.797l-.133.691c-.173.956-.266 1.833-.266 2.643 0 2.139.625 3.812 1.86 5.02 1.673 1.621 4.795 2.431 9.35 2.431 4.556 0 7.943-.89 10.134-2.67 2.192-1.78 3.294-4.489 3.294-8.168 0-1.82-.491-3.294-1.474-4.436a8.188 8.188 0 00-3.6-2.444 43.264 43.264 0 00-4.223-1.235c-1.408-.332-2.59-.784-3.573-1.368-.983-.571-1.474-1.355-1.474-2.338 0-1.965 1.54-2.948 4.635-2.948 1.076 0 2.378.186 3.095 1.062.544.678.61 1.58.544 2.418-.026.292-.305 1.607-.504 1.846h7.252l.345-.518c.226-.319.452-.864.677-1.62.213-.77.32-1.568.32-2.405.012-2.258-.864-4.037-2.604-5.326zM18.116 2.484h-3.931l-1.58 9.005H9.721l1.58-9.005H7.359L7.81 0h10.758zM29.353 0l-2.019 11.489h-2.882l.77-4.357h-3.679l-.757 4.357h-2.882L19.923 0h2.882l-.823 4.649h3.665L26.471 0zM36.725 11.489h-8.01L30.736 0h8.022l-.452 2.484h-5.14l-.372 2.165h4.25l-.451 2.483h-4.237l-.319 1.873h5.14zM73.914 13.627h-.97l-.398 2.258h-.717l.398-2.258h-.983l.12-.61h2.67zM75.136 13.016l.425 1.368.916-1.368h.744l-.491 2.87h-.718l.28-1.621-.612.97h-.518l-.265-.97-.293 1.62h-.717l.505-2.869zM67.87 53.14c0-.384.08-.677.253-.85.173-.172.438-.265.81-.265.505 0 .77.226.77.678 0 .385-.079.664-.265.836-.173.173-.452.266-.81.266-.505 0-.757-.226-.757-.664zM79.758 47.044c1.46 0 2.191.598 2.191 1.793 0 .2-.026.412-.066.651l-.319 1.82c-.146.85-.465 1.474-.943 1.873-.491.411-1.169.61-2.045.61-.877 0-1.501-.199-1.846-.61-.24-.28-.359-.664-.359-1.156 0-.212.027-.465.066-.717l.32-1.82c.291-1.633 1.3-2.444 3-2.444zm-.943 5.34c.305 0 .544-.08.73-.24.186-.159.306-.45.385-.876l.306-1.753c.013-.12.026-.226.026-.332 0-.492-.252-.744-.743-.744-.625.013-.996.372-1.116 1.063l-.305 1.753c-.027.146-.04.305-.04.478 0 .438.252.65.757.65zM84.792 47.111l.983 3.148 2.098-3.148h1.713l-1.155 6.561h-1.647l.664-3.705-1.408 2.205h-1.195l-.625-2.205-.65 3.705h-1.647l1.155-6.56zM75.92 49.78c.052-.186.145-.797.145-1.022 0-.518-.186-.93-.544-1.236-.359-.305-.903-.451-1.607-.451-1.7 0-2.683.77-2.962 2.31l-.372 2.1a4.16 4.16 0 00-.066.663c0 .479.12.85.345 1.116.332.372.93.571 1.806.571 1.687 0 2.643-.73 2.896-2.138l.04-.279h-1.647c-.12.717-.465.996-1.036.996-.479 0-.718-.186-.718-.584 0-.146.014-.306.04-.465l.319-1.833c.12-.677.478-1.023 1.09-1.023.225 0 .397.067.504.2.12.132.172.305.172.53 0 .08-.053.572-.066.572h1.66v-.027z"/>
  </g>
</svg>
