<svg xmlns="http://www.w3.org/2000/svg" viewBox="0 0 170 49">
  <g fill="none" fill-rule="evenodd">
    <path fill="#FFF" fill-rule="nonzero" d="M28.9 3.288l-3.4 7.206-6.29 16.127 1.36.344v.857h-5.78v-.857l1.19-.344-6.12-16.127-3.4-7.206-1.36-.344v-.857h8.33v.857l-1.53.344 1.36 5.661 5.1 14.584 5.1-14.584 1.53-5.661-1.53-.344v-.857h6.63v.857l-1.19.344zM16.66 26.62l.85-.171L8.67 3.802 7.31 3.46l3.23 7.035 6.12 16.127zM33.32 19.415v-8.75l-.34-7.377-1.19-.344v-.857h6.63v.857l-1.19.344-.34 7.206v8.921l.34 7.378 1.19.343v.858h-6.63v-.858l1.19-.343.34-7.378zm.51 0l-.34 7.206 1.36-.171V3.802l-1.36-.343.34 7.206v8.75zM60.52 27.48c-2.04.686-4.08 1.029-6.97 1.029-7.14 0-11.56-4.804-11.56-13.04 0-8.922 5.1-13.897 12.41-13.897 1.87 0 3.91.343 5.95 1.03l.51-.859h.68l-.34 5.834h-.68l-.34-1.716c-2.21-1.372-3.91-2.059-5.61-2.059-5.44 0-8.33 3.432-8.33 11.152 0 8.064 3.06 11.496 8.67 11.496 1.53 0 3.23-.515 5.27-1.887v-.172l.34-1.716h.68l.34 5.49h-.68l-.34-.686zm-8.33-.344c-4.42-1.03-8.16-4.804-8.16-11.667 0-5.147 2.04-10.809 8.16-12.353l.17-.515c-6.46 1.373-9.35 6.863-9.35 13.04 0 6.691 3.23 11.495 9.35 12.353l-.17-.858zM67.49 19.415v-8.75l-.34-7.377-1.19-.344v-.857h17.17L83.3.886h.68l-.17 4.804h-.68l-.17-.858-4.76-.343h-7.14l-.34 6.176v2.745h9.69l.51-1.372h.85l-.17 5.147h-.85l-.17-1.716h-9.69v3.946l.34 6.177h6.97l4.76-.515.34-1.544h.85l-.17 5.49h-.85l-.17-1.2H65.79v-.858l1.19-.344.51-7.206zm.51 0l-.34 7.206 1.36-.171V3.802l-1.36-.343.34 7.206v8.75zM108.46 10.665v8.922l.34 7.206 1.19.343v.858h-5.95v-.858l1.7-.343L92.65 8.778v10.637l.34 7.206 1.7.344v.857h-5.95v-.857l1.19-.344.34-7.377v-8.75l-.34-7.206-1.19-.344v-.857h5.78v.857l-1.7.344 13.26 17.843V10.494l-.34-7.206-1.7-.344v-.857h5.78v.857l-1.02.344-.34 7.377zm-2.04 15.785l.85-.172L92.14 5.69l.34 2.058 13.94 18.702zM121.04 19.415v-8.75l-.34-6.176H119l-4.25.171-.34 1.716h-.85l.17-5.49h.85l.17 1.2 4.25.172h7.65l4.25-.171V.886h.85l.17 5.49h-.85l-.34-1.716-4.25-.171h-1.87l-.34 6.005v8.921l.34 7.378 1.19.343v.858h-6.63v-.858l1.19-.343.68-7.378zm.51 0l-.34 7.206 1.36-.171V4.489h-1.19l.34 6.176-.17 8.75zM135.83 19.415v-8.75l-.34-7.377-1.19-.344v-.857h6.63v.857l-1.19.344-.34 7.206v8.921l.34 7.378 1.19.343v.858h-6.63v-.858l1.19-.343.34-7.378zm.51 0l-.34 7.206 1.36-.171V3.802L136 3.46l.34 7.206v8.75zM165.24 10.665v8.922l.34 7.206 1.19.343v.858h-5.95v-.858l1.7-.343-13.09-18.015v10.637l.34 7.206 1.7.344v.857h-5.95v-.857l1.19-.344.34-7.377v-8.75l-.34-7.206-1.19-.344v-.857h5.78v.857l-1.7.344 13.26 17.843V10.494l-.34-7.206-1.7-.344v-.857h5.78v.857l-1.19.344-.17 7.377zM163.2 26.45l.85-.172L148.92 5.69l.34 2.058L163.2 26.45zM18.87 41.034l-.17 1.887v1.03h1.36l1.36-.172v1.2H18.7v.859l.17 2.916h-1.53l.17-2.916V42.92l-.17-2.917h4.93l-.17 1.201-1.7-.171zM25.84 48.754l3.06-7.72.34-1.03 1.19-.171 3.23 8.75h-1.7l-.51-2.23h-3.57l-.51 2.23h-1.53v.171zm3.91-7.377l-1.53 4.117h2.89l-1.36-4.117zM47.09 48.754v-2.916l-.17-3.603-2.38 5.49h-.51l-2.72-5.49-.17 3.603v2.916h-1.36l.34-2.916.17-2.917-.17-2.917h1.53l.34.858 2.38 5.147 2.21-5.319.17-.686h1.36v2.917l.17 2.917.34 2.916zM55.93 48.754l.17-2.916V42.92l-.17-2.917h1.53l-.17 2.917v2.917l.17 2.916zM65.11 48.926l.17-3.088V42.92l-.17-2.917h1.53l-.17 2.917v2.917l.17 1.887h1.53l1.53-.172-.17 1.373-1.53-.172h-1.36zM75.99 48.754l.17-2.916v-.515l-2.89-5.319 1.87-.171.34 1.544 1.36 2.573 1.19-2.573.34-1.373h1.7l-2.72 4.976v.858l.17 2.916zM96.73 48.926l-2.89-8.922 1.7-.171.17 1.887 1.53 5.49 1.7-5.49-.51-1.716 1.53-.171.34 1.887 1.36 5.49 1.7-5.319.34-1.887h1.7l-3.23 8.75-1.02.172-1.7-5.319-1.7 5.147zM111.86 48.754l.34-2.916V42.92l-.34-2.917h1.7l-.17 2.917v2.917l.17 2.916zM127.16 48.754l-.51-.858-4.42-5.661v3.603l.34 2.916h-1.53l.17-2.916V42.92l-.17-2.917h1.36l.51.858 4.08 5.319v-3.26l-.17-2.917h1.36l-.17 2.917v2.573l.17 3.26zM137.02 42.92v.859h1.36l1.36-.172v1.201h-2.72v1.03l.17 1.887h1.87l1.53-.172v1.373l-1.7-.172h-1.7l-1.53.172.17-3.088V42.92l-.17-2.917h4.93l-.17 1.201-1.7-.171h-1.53zM147.39 48.583l.51-1.544c.51.343 1.02.686 1.36.686.34.171.68.171 1.02.171.68 0 1.19-.171 1.53-.514v-.515c0-.515-.17-.858-.51-1.201-.34-.343-.68-.515-1.02-.686-.51-.172-.85-.343-1.36-.515a1.746 1.746 0 01-1.02-.858c-.34-.343-.51-.858-.51-1.372 0-.687.34-1.373.85-1.716.68-.515 1.36-.686 2.38-.686.68 0 1.36.171 1.87.343l-.34 1.372c-.85-.514-1.53-.858-2.04-.858s-1.02.172-1.53.515c0 .515.17 1.03.51 1.373.34.343.68.686 1.02.858.51.171.85.343 1.36.514.51.172.85.515 1.02.858.34.343.51.858.51 1.373 0 .858-.34 1.372-.85 1.887-.68.515-1.36.686-2.21.686-1.02.172-1.87 0-2.55-.171"/>
    <path stroke="#FFF" stroke-width=".53" d="M0 44.808h9.86M159.8 44.808h9.86"/>
  </g>
</svg>
